<?xml version="1.0" encoding="UTF-8" standalone="no"?>
<svg
   xmlns:dc="http://purl.org/dc/elements/1.1/"
   xmlns:cc="http://creativecommons.org/ns#"
   xmlns:rdf="http://www.w3.org/1999/02/22-rdf-syntax-ns#"
   xmlns:svg="http://www.w3.org/2000/svg"
   xmlns="http://www.w3.org/2000/svg"
   xmlns:sodipodi="http://sodipodi.sourceforge.net/DTD/sodipodi-0.dtd"
   xmlns:inkscape="http://www.inkscape.org/namespaces/inkscape"
   inkscape:version="1.0 (4035a4fb49, 2020-05-01)"
   sodipodi:docname="facebook.svg"
   xml:space="preserve"
   style="enable-background:new 0 0 310 310;"
   viewBox="0 0 310 310"
   y="0px"
   x="0px"
   id="Layer_1"
   version="1.1"><metadata
   id="metadata39"><rdf:RDF><cc:Work
       rdf:about=""><dc:format>image/svg+xml</dc:format><dc:type
         rdf:resource="http://purl.org/dc/dcmitype/StillImage" /></cc:Work></rdf:RDF></metadata><defs
   id="defs37" /><sodipodi:namedview
   inkscape:current-layer="Layer_1"
   inkscape:window-maximized="1"
   inkscape:window-y="-8"
   inkscape:window-x="-8"
   inkscape:cy="155"
   inkscape:cx="155"
   inkscape:zoom="2.7741935"
   showgrid="false"
   id="namedview35"
   inkscape:window-height="1027"
   inkscape:window-width="1920"
   inkscape:pageshadow="2"
   inkscape:pageopacity="0"
   guidetolerance="10"
   gridtolerance="10"
   objecttolerance="10"
   borderopacity="1"
   bordercolor="#666666"
   pagecolor="#ffffff"
   inkscape:document-rotation="0" />
<g
   id="XMLID_834_">
	<path
   d="M81.703,165.106h33.981V305c0,2.762,2.238,5,5,5h57.616c2.762,0,5-2.238,5-5V165.765h39.064   c2.54,0,4.677-1.906,4.967-4.429l5.933-51.502c0.163-1.417-0.286-2.836-1.234-3.899c-0.949-1.064-2.307-1.673-3.732-1.673h-44.996   V71.978c0-9.732,5.24-14.667,15.576-14.667c1.473,0,29.42,0,29.42,0c2.762,0,5-2.239,5-5V5.037c0-2.762-2.238-5-5-5h-40.545   C187.467,0.023,186.832,0,185.896,0c-7.035,0-31.488,1.381-50.804,19.151c-21.402,19.692-18.427,43.27-17.716,47.358v37.752H81.703   c-2.762,0-5,2.238-5,5v50.844C76.703,162.867,78.941,165.106,81.703,165.106z"
   id="XMLID_835_" />
</g>
<g
   id="g4">
</g>
<g
   id="g6">
</g>
<g
   id="g8">
</g>
<g
   id="g10">
</g>
<g
   id="g12">
</g>
<g
   id="g14">
</g>
<g
   id="g16">
</g>
<g
   id="g18">
</g>
<g
   id="g20">
</g>
<g
   id="g22">
</g>
<g
   id="g24">
</g>
<g
   id="g26">
</g>
<g
   id="g28">
</g>
<g
   id="g30">
</g>
<g
   id="g32">
</g>
<path
   id="path864"
   d="m 119.85465,309.66876 c -1.55178,-0.38133 -2.52318,-1.07252 -3.29231,-2.34262 -0.64983,-1.07308 -0.67601,-3.52064 -0.76648,-71.65906 l -0.0937,-70.54805 -17.569114,-0.10312 c -19.907074,-0.11684 -19.344389,-0.0373 -20.653476,-2.92063 -0.651992,-1.43606 -0.685065,-2.74365 -0.692604,-27.38302 -0.0086,-28.01932 -0.06145,-27.23313 1.956998,-29.09598 l 0.976432,-0.90116 18.938206,-0.0995 18.938208,-0.0995 -0.11347,-26.214466 c -0.12614,-29.144203 -0.21206,-27.854235 2.37391,-35.641103 6.29264,-18.948415 23.72693,-33.9097461 46.31715,-39.747315 9.54867,-2.46748382 11.09717,-2.56925387 38.88274,-2.55544027 27.69611,0.0137691 26.061,-0.14836686 27.4505,2.72195487 0.68919,1.4236924 0.713,2.2878156 0.70535,25.6008974 -0.008,22.922682 -0.0421,24.202776 -0.6926,25.635542 -1.30704,2.878851 -0.7057,2.793371 -21.10762,3.000436 -19.55284,0.198447 -18.98903,0.141054 -22.68964,2.309752 -1.94394,1.139222 -3.83724,3.585893 -4.75971,6.150851 -0.58921,1.638314 -0.66197,3.561911 -0.7672,20.283798 l -0.11626,18.473833 h 23.42072 23.42073 l 1.15807,0.97445 c 2.40503,2.0237 2.45466,0.45607 -0.9454,29.864 -2.03647,17.614 -3.25503,26.92505 -3.61478,27.62073 -0.29848,0.5772 -1.062,1.36609 -1.6967,1.75309 -1.10838,0.67582 -1.95579,0.7037 -21.43018,0.70499 l -20.27616,0.001 -7.2e-4,70.20058 c -3.6e-4,66.1166 -0.0372,70.27327 -0.63082,71.44995 -0.34664,0.68715 -1.19798,1.5793 -1.89188,1.98255 -1.2381,0.71952 -1.80622,0.73427 -30.4593,0.79057 -16.05872,0.0315 -29.6843,-0.0622 -30.27907,-0.20838 z"
   style="opacity:0.98;fill:#707070;stroke-width:0.360465" /><path
   style="opacity:0.98;fill:#ffffff;stroke:#ffffff;stroke-width:2;stroke-miterlimit:4;stroke-dasharray:none"
   d="m 118.68386,308.98473 c -0.64394,-0.34353 -1.45499,-1.02612 -1.80233,-1.51687 -0.59503,-0.84071 -0.64195,-4.96837 -0.81176,-71.42338 -0.0991,-38.79211 -0.29818,-70.649 -0.44233,-70.7931 -0.14415,-0.1441 -8.20543,-0.36277 -17.913964,-0.48595 -17.128601,-0.21731 -17.681832,-0.24616 -18.662329,-0.97322 -0.555748,-0.4121 -1.204057,-1.30181 -1.440687,-1.97713 -0.549666,-1.56872 -0.659648,-51.76064 -0.117561,-53.65079 0.194351,-0.67766 0.792432,-1.6904 1.329068,-2.25053 l 0.975702,-1.01841 14.441281,-10e-4 c 7.94271,-7.2e-4 16.5183,-0.10739 19.05689,-0.23686 l 4.6156,-0.2354 -0.23671,-22.923023 c -0.28772,-27.862768 -0.11687,-31.120424 1.96455,-37.459048 4.18925,-12.757691 12.00292,-22.867821 23.77589,-30.763689 9.23861,-6.1961389 22.05341,-10.9047427 33.22152,-12.2067446 5.00339,-0.58330647 51.20512,-0.60207365 53.27705,-0.021641 1.31473,0.3683096 1.6666,0.6735518 2.24499,1.9475466 0.65279,1.4378454 0.6853,2.6767431 0.67348,25.661945 -0.0133,25.873725 -0.0201,25.974735 -1.83895,27.323011 -0.89873,0.666219 -1.8155,0.736535 -13.15698,1.009155 -27.15903,0.652835 -25.46213,0.539595 -28.06949,1.873193 -2.27205,1.162096 -4.17107,3.141976 -5.42972,5.660921 -1.10934,2.220126 -0.99884,-0.119844 -1.34918,28.571734 l -0.1398,11.44965 23.44862,-0.015 23.44862,-0.015 1.41811,1.36189 1.41811,1.36189 -0.2801,5.22675 c -0.15406,2.8747 -0.29406,5.99723 -0.31112,6.93895 -0.0171,0.94171 -0.12866,1.71221 -0.24798,1.71221 -0.32145,0 -1.15681,8.53856 -0.8793,8.98759 0.1307,0.21147 0.0961,0.3845 -0.077,0.3845 -0.38776,0 -1.33181,8.4578 -1.00337,8.98924 0.13014,0.21057 0.0951,0.38285 -0.0778,0.38285 -0.17295,0 -0.60453,2.5548 -0.95906,5.67733 -1.10906,9.76806 -2.27938,17.38517 -2.76012,17.96443 -1.29165,1.55635 -1.54273,1.57664 -22.60989,1.82776 l -20.15475,0.24023 -0.25033,69.60153 c -0.13767,38.28083 -0.34279,70.13556 -0.45581,70.78828 -0.30673,1.77149 -1.89971,3.16862 -3.93008,3.44691 -0.93338,0.12794 -14.5295,0.22581 -30.2136,0.2175 -26.34219,-0.014 -28.60582,-0.0627 -29.68734,-0.6397 z"
   id="path847" /></svg>
