<?xml version="1.0" encoding="UTF-8" standalone="no"?>
<svg
   xmlns:dc="http://purl.org/dc/elements/1.1/"
   xmlns:cc="http://creativecommons.org/ns#"
   xmlns:rdf="http://www.w3.org/1999/02/22-rdf-syntax-ns#"
   xmlns:svg="http://www.w3.org/2000/svg"
   xmlns="http://www.w3.org/2000/svg"
   xmlns:sodipodi="http://sodipodi.sourceforge.net/DTD/sodipodi-0.dtd"
   xmlns:inkscape="http://www.inkscape.org/namespaces/inkscape"
   inkscape:version="1.0 (4035a4fb49, 2020-05-01)"
   sodipodi:docname="pinterest.svg"
   id="svg4"
   version="1.1"
   height="2500"
   width="2500"
   viewBox="0 0 999.9 999.9">
  <metadata
     id="metadata10">
    <rdf:RDF>
      <cc:Work
         rdf:about="">
        <dc:format>image/svg+xml</dc:format>
        <dc:type
           rdf:resource="http://purl.org/dc/dcmitype/StillImage" />
      </cc:Work>
    </rdf:RDF>
  </metadata>
  <defs
     id="defs8" />
  <sodipodi:namedview
     inkscape:current-layer="svg4"
     inkscape:window-maximized="1"
     inkscape:window-y="-8"
     inkscape:window-x="-8"
     inkscape:cy="1250"
     inkscape:cx="1250"
     inkscape:zoom="0.344"
     showgrid="false"
     id="namedview6"
     inkscape:window-height="1027"
     inkscape:window-width="1920"
     inkscape:pageshadow="2"
     inkscape:pageopacity="0"
     guidetolerance="10"
     gridtolerance="10"
     objecttolerance="10"
     borderopacity="1"
     bordercolor="#666666"
     pagecolor="#ffffff"
     inkscape:document-rotation="0" />
  <path
     id="path2"
     d="M0 500c2.6-141.9 52.7-260.4 150.4-355.4S364.6 1.3 500 0c145.8 2.6 265.3 52.4 358.4 149.4 93.1 97 140.3 213.9 141.6 350.6-2.6 140.6-52.7 258.8-150.4 354.5-97.7 95.6-214.2 144.1-349.6 145.4-46.9 0-93.7-7.2-140.6-21.5 9.1-14.3 18.2-30.6 27.3-48.8 10.4-22.1 23.4-63.8 39.1-125 3.9-16.9 9.8-39.7 17.6-68.4 9.1 15.6 24.7 29.9 46.9 43 58.6 27.3 120.4 24.7 185.5-7.8 67.7-39.1 114.6-99.6 140.6-181.6 23.4-85.9 20.5-165.7-8.8-239.2C778.3 277 725.9 224 650.4 191.4c-95-27.3-187.5-24.4-277.3 8.8s-152.3 90.2-187.5 170.9C176.5 401 171 430.7 169 460c-2 29.3-1 57.9 2.9 85.9s13.7 53.1 29.3 75.2 36.5 39.1 62.5 50.8c6.5 2.6 11.7 2.6 15.6 0 5.2-2.6 10.4-13 15.6-31.2 5.2-18.2 7.2-30.6 5.9-37.1-1.3-2.6-3.9-7.2-7.8-13.7-27.3-44.3-36.5-90.8-27.3-139.6 9.1-48.8 29.3-90.2 60.5-124 48.2-43 104.5-66.4 168.9-70.3 64.4-3.9 119.5 13.7 165 52.7 24.7 28.6 40.7 63.1 47.8 103.5s7.2 79.1 0 116.2c-7.2 37.1-19.9 71.9-38.1 104.5-32.6 50.8-71 76.8-115.2 78.1-26-1.3-47.2-11.4-63.5-30.3s-21.2-40.7-14.6-65.4c2.6-14.3 10.4-42.3 23.4-84 13-41.7 20.2-72.9 21.5-93.7-3.9-49.5-26.7-74.9-68.4-76.2-32.6 3.9-56.6 18.6-72.3 43.9s-24.1 54.4-25.4 86.9c3.9 37.8 9.8 63.8 17.6 78.1-14.3 58.6-25.4 105.5-33.2 140.6-2.6 9.1-9.8 37.1-21.5 84s-18.2 82.7-19.5 107.4V957C206.3 914 133.3 851.9 80 770.5 26.7 689.1 0 598.9 0 500z" />
  <path
     transform="scale(0.39996)"
     id="path835"
     d="m 1200.5814,2496.8529 c -69.7886,-2.7546 -136.2586,-11.573 -207.84884,-27.5746 -26.70137,-5.9682 -74.48887,-18.5021 -87.76686,-23.0198 -2.18271,-0.7426 2.35354,-10.8296 12.26046,-27.263 64.69026,-107.3067 89.91164,-178.1031 158.35364,-444.4985 15.9079,-61.9181 29.9378,-116.1399 31.1776,-120.4928 2.2252,-7.8125 2.4603,-7.6495 18.2426,12.6417 16.7836,21.5784 46.8365,48.2124 78.2747,69.3697 32.9726,22.1898 94.17,44.0985 151.3765,54.1928 33.6233,5.933 109.8446,6.6764 145.0615,1.4149 80.8001,-12.0718 167.159,-44.4412 231.392,-86.7314 127.2073,-83.7516 226.5463,-209.1455 287.3687,-362.7407 17.9597,-45.3538 26.7063,-73.9486 37.9286,-123.9985 47.6,-212.2882 26.5183,-419.43267 -60.7516,-596.93177 -70.9272,-144.25965 -175.628,-248.17898 -326.2803,-323.845 -34.7351,-17.44593 -46.6661,-21.76634 -88.0594,-31.88779 -212.4229,-51.94148 -407.91,-45.44631 -608.92698,20.23201 -201.64296,65.88284 -347.04648,172.10933 -448.62523,327.74912 -37.72692,57.80547 -59.3166,104.38907 -72.97707,157.46096 -23.67122,91.96447 -30.68997,150.40717 -30.54779,254.36047 0.14913,109.0225 9.03881,173.9336 32.24021,235.4133 34.81058,92.2421 102.93587,169.0025 187.39686,211.15 47.99078,23.9482 65.50206,17.9965 85.2454,-28.9731 12.05277,-28.6737 28.09564,-95.0308 28.21843,-116.7181 0.10466,-18.4596 -0.4595,-19.8835 -24.45648,-61.7413 -67.91663,-118.4664 -86.04968,-224.2756 -60.20761,-351.3204 23.06968,-113.41537 78.07319,-223.01613 146.63584,-292.18863 25.84546,-26.07538 69.06959,-59.23137 107.40334,-82.38605 141.88508,-85.70267 321.40628,-117.82377 480.05328,-85.89424 108.0553,21.74735 218.0549,81.9839 266.4783,145.92538 75.4655,99.64977 110.7689,220.09984 111.0151,378.76804 0.1328,85.6282 -7.6105,140.1099 -31.9147,224.5492 -22.7902,79.1792 -62.8228,165.1837 -100.4756,215.8578 -75.2574,101.2832 -164.4429,155.6302 -256.8776,156.5334 -38.7735,0.3788 -58.9417,-4.4205 -96.8847,-23.0551 -44.4234,-21.8174 -82.8707,-64.2764 -99.9867,-110.4197 -5.2253,-14.0871 -6.3937,-23.366 -6.3809,-50.6749 0.02,-44.7816 10.2354,-86.0448 69.4421,-280.5233 18.9378,-62.2056 38.361,-142.7005 43.9234,-182.0297 4.3793,-30.9641 4.396,-36.1638 0.2017,-62.5 -14.2164,-89.26283 -53.5646,-139.19167 -123.606,-156.84336 -59.3656,-14.96116 -135.1126,7.70724 -186.13213,55.70273 -36.80357,34.62216 -61.28302,75.82063 -81.68174,137.46903 -22.95561,69.3756 -26.69017,124.826 -13.54218,201.0727 8.54038,49.5267 17.90375,86.2849 27.80015,109.1365 l 6.40886,14.7987 -27.50817,114.5618 c -15.12962,63.009 -32.98822,138.7624 -39.68593,168.3409 -6.6977,29.5785 -18.69456,78.6337 -26.65968,109.0117 -25.13142,95.8478 -56.93942,226.3707 -67.47543,276.883 -18.89245,90.5749 -22.51887,122.3323 -24.22207,212.1177 l -1.55596,82.024 -45.41337,-23.0235 C 443.43302,2237.241 246.76593,2038.9206 123.13568,1786.5881 59.583279,1656.8761 21.496926,1519.8453 7.1228991,1369.186 1.2343625,1307.4662 2.7639381,1171.4087 9.998791,1113.3721 30.306006,950.47154 68.062677,822.68154 134.96753,690.40698 195.87173,569.99605 265.49394,475.11619 367.50733,373.50602 436.35172,304.93372 508.6702,246.09833 584.30233,197.13036 849.59262,25.368319 1164.8116,-34.438953 1491.2791,25.047409 1707.0318,64.360186 1898.89,155.13642 2059.7602,294.01985 c 35.728,30.84486 105.7133,101.40599 137.9845,139.11968 237.8449,277.95756 339.3251,632.18217 286.0689,998.54647 -25.9501,178.5187 -90.9463,349.6306 -188.2666,495.6396 -109.454,164.2129 -271.0934,315.1727 -442.1921,412.9759 -162.4141,92.839 -358.5809,148.9301 -543.7619,155.4809 -23.9825,0.8484 -47.529,1.8623 -52.3256,2.2532 -4.7965,0.3908 -30.3052,-0.1413 -56.686,-1.1827 z"
     style="opacity:0.98;fill:#707070;stroke-width:2.90698" />
  <path
     style="opacity:0.98;fill:#ffffff;stroke:#ffffff;stroke-width:1;stroke-miterlimit:4;stroke-dasharray:none"
     d="m 1172.9651,2493.9095 c -43.2209,-2.9019 -97.9301,-9.8489 -138.0814,-17.5335 -40.52466,-7.7561 -122.86765,-28.4171 -126.16478,-31.6564 -1.54218,-1.5152 5.80419,-17.2669 17.87492,-38.3263 35.33488,-61.6476 52.93186,-100.2633 73.91706,-162.2073 23.7923,-70.2299 55.99,-184.5494 53.2338,-189.0091 -0.9692,-1.5682 -0.622,-2.8513 0.7716,-2.8513 1.3936,0 14.1455,-44.9563 28.3375,-99.9029 l 25.8036,-99.9028 32.1539,32.5287 c 28.668,29.0023 75.5478,65.259 79.3994,61.4073 0.7764,-0.7764 3.1691,0.3458 5.3171,2.4938 9.5537,9.5538 86.8894,36.1347 108.7745,37.3868 5.596,0.3202 10.8847,1.5292 11.7528,2.6868 3.2396,4.3198 74.883,8.7666 112.7323,6.9972 39.185,-1.832 97.0824,-11.5357 98.8737,-16.5714 0.5363,-1.5076 2.1736,-2.0004 3.6384,-1.0951 3.8774,2.3964 46.874,-11.2893 83.1477,-26.4655 150.4494,-62.9452 284.9723,-202.9774 361.5021,-376.3071 16.4914,-37.3509 35.1943,-89.95 33.1563,-93.2474 -0.9119,-1.4756 -0.4687,-2.6828 0.985,-2.6828 3.1718,0 20.6962,-69.2502 21.7013,-85.7559 0.3895,-6.3953 1.5434,-12.2819 2.5644,-13.0813 1.021,-0.7995 4.8805,-21.7297 8.5767,-46.5117 5.7543,-38.5808 6.7267,-56.55 6.7646,-125 0.023,-43.968 -0.8273,-87.7907 -1.8923,-97.3837 -1.0651,-9.593 -2.0213,-20.0581 -2.1249,-23.2558 -0.4653,-14.3664 -12.5151,-78.5882 -14.9095,-79.4634 -1.4671,-0.5363 -1.9667,-2.1091 -1.1101,-3.495 2.3235,-3.7597 -11.5183,-55.90327 -25.199,-94.92687 -65.7571,-187.56968 -181.2183,-320.34393 -356.9563,-410.4807 -22.4936,-11.53706 -42.2011,-20.17078 -43.7945,-19.18605 -1.5934,0.98477 -2.897,0.60678 -2.897,-0.84 0,-4.58697 -94.5905,-29.09119 -98.2337,-25.44802 -0.8372,0.83718 -2.9506,0.3605 -4.6966,-1.0593 -3.1283,-2.54395 -57.0115,-12.60204 -61.7728,-11.53079 -1.3465,0.30294 -4.4103,-0.21947 -6.8086,-1.1609 -21.3533,-8.38229 -169.2858,-13.45372 -234.2601,-8.0309 -23.8459,1.99021 -44.6643,4.4214 -46.2631,5.40265 -1.5989,0.98125 -5.5233,1.44982 -8.721,1.04131 -7.5813,-0.96855 -79.1534,12.28186 -116.279,21.52718 -43.306,10.78439 -97.38375,27.95145 -97.38375,30.91459 0,1.43142 -1.22375,1.84625 -2.71945,0.92186 -6.4241,-3.97032 -102.73067,36.89137 -155.71078,66.06616 -135.27471,74.49227 -245.5305,186.53849 -312.46477,317.53887 -17.00166,33.27482 -39.30988,95.13759 -36.7309,101.85828 0.81695,2.1289 0.30674,4.2823 -1.13375,4.78529 -3.5296,1.2325 -19.15544,80.36374 -23.71593,120.10064 -4.89189,42.6243 -4.84096,199.5345 0.0779,239.8256 13.17096,107.8861 47.01393,184.1724 111.7407,251.8778 55.70869,58.2723 125.45762,97.988 157.8471,89.8796 9.2577,-2.3175 20.12636,-14.6472 28.4984,-32.3292 16.74212,-35.3599 36.21072,-119.3659 32.18805,-138.8896 -1.04273,-5.0608 -12.80413,-29.4776 -26.13643,-54.2596 -50.48267,-93.8367 -68.21462,-156.4354 -68.24002,-240.906 -0.0462,-153.3898 76.20287,-329.88214 180.52956,-417.86892 67.07078,-56.56596 135.95514,-94.90421 220.62157,-122.78907 66.6858,-21.96296 122.755,-31.93316 193.3139,-34.37508 128.9127,-4.4614 240.7905,25.1529 338.6628,89.64479 124.5765,82.08826 192.412,256.19108 185.0116,474.84078 -1.8301,54.0737 -6.8394,95.3538 -16.756,138.0814 -27.7077,119.3847 -76.3607,225.6233 -135.995,296.9584 -67.9614,81.2962 -143.635,124.4036 -227.028,129.3262 -35.6766,2.106 -62.7759,-3.5445 -97.3837,-20.3053 -45.2308,-21.9055 -78.1612,-54.7739 -99.1437,-98.9571 -8.6535,-18.2218 -10.7795,-26.4367 -12.0302,-46.484 -2.7964,-44.8219 5.6845,-84.5646 48.7736,-228.5614 49.9912,-167.0623 68.5933,-250.2267 65.8288,-294.3003 -0.8764,-13.9727 -2.5317,-26.923 -3.6784,-28.7784 -1.1466,-1.8553 -2.4595,-7.5481 -2.9173,-12.6507 -1.2731,-14.1876 -14.7597,-50.45795 -25.2408,-67.88126 -52.4149,-87.13279 -181.9768,-95.47538 -275.044,-17.71032 -21.84665,18.25462 -49.26782,54.25268 -64.68718,84.92028 -13.71456,27.2769 -35.61116,90.8804 -33.33194,96.8199 0.8686,2.2636 0.52171,4.1157 -0.77088,4.1157 -2.40128,0 -9.14433,33.3869 -9.3938,46.5116 -0.0759,3.9971 -0.58367,16.355 -1.12823,27.4621 -2.06052,42.0281 12.73355,133.591 28.91073,178.9332 4.27822,11.9913 8.43244,25.0727 9.23157,29.0698 0.79915,3.9971 -3.26826,26.8895 -9.03867,50.8721 -5.77038,23.9826 -23.48567,98.5465 -39.36729,165.6977 -15.88163,67.1511 -45.30326,187.5 -65.38143,267.4418 -20.07817,79.9419 -35.92793,147.6381 -35.22166,150.4361 0.70625,2.7979 0.27733,5.0872 -0.9529,5.0872 -2.99006,0 -12.55192,48.682 -10.28297,52.3533 0.97872,1.5836 0.5818,2.8792 -0.882,2.8792 -3.36823,0 -14.26689,64.055 -18.05323,106.1047 -1.58366,17.5872 -3.04294,52.2529 -3.24285,77.0349 -0.2,24.782 -1.18215,53.8955 -2.18267,64.6968 l -1.81916,19.6387 -55.23256,-29.4632 C 545.65416,2283.0824 445.26212,2207.3209 340.07029,2097.2017 189.45668,1939.533 78.394794,1731.4318 32.20877,1520.3488 10.643883,1421.7913 5.2116544,1361.9502 6.2157782,1234.0116 c 0.4517439,-57.5581 1.843609,-106.0805 3.0930337,-107.8274 1.2494241,-1.747 2.6093841,-13.1803 3.0221321,-25.4075 0.412748,-12.2272 1.731556,-22.2441 2.930684,-22.2598 1.199128,-0.016 2.180232,-2.5577 2.180232,-5.649 0,-11.535 14.990657,-87.53671 26.180532,-132.73363 C 77.939326,801.52509 145.61526,654.03901 227.15672,540.15814 299.23994,439.48666 405.71227,330.80017 509.41959,252.02541 808.29183,25.005904 1188.7057,-49.885017 1568.3261,43.561703 1753.3409,89.10464 1919.473,174.67463 2059.593,296.59959 c 43.8922,38.19259 126.8845,124.37404 162.2817,168.51768 118.0499,147.21921 201.3575,318.49052 242.9887,499.55834 9.1096,39.62089 20.6017,105.31879 20.6017,117.77569 0,4.2158 0.9905,7.665 2.2012,7.665 1.2106,0 1.733,5.8866 1.1608,13.0814 -0.5722,7.1947 0.072,13.0814 1.4325,13.0814 2.878,0 3.0796,5.759 4.1202,117.7325 1.4255,153.3963 -17.8597,276.3285 -65.2267,415.7822 -60.3923,177.8016 -152.1373,324.8218 -290.7753,465.9636 -229.6785,233.8268 -506.4163,360.8348 -824.4243,378.3673 -59.7551,3.2944 -89.3908,3.2492 -140.9884,-0.2151 z"
     id="path831"
     transform="scale(0.39996)" />
  <path
     transform="scale(0.39996)"
     id="path832"
     d="m 1170.0581,2492.5031 c -4.7965,-0.6554 -23.1104,-2.6176 -40.6976,-4.3605 -48.4614,-4.8025 -108.9237,-15.6029 -160.23419,-28.6227 -58.61209,-14.8726 -59.24259,-15.0571 -59.24259,-17.3386 0,-1.0495 7.99334,-16.2675 17.763,-33.818 53.54706,-96.1932 82.58418,-173.5305 121.67208,-324.061 25.918,-99.8122 59.246,-225.2827 60.1516,-226.4543 0.4948,-0.6401 15.6745,13.1493 33.7327,30.6431 30.7763,29.8142 67.5459,59.1833 74.0964,59.1833 1.5942,0 8.6228,3.1556 15.6192,7.0123 18.4911,10.1932 60.3248,24.3148 97.0232,32.7516 60.4019,13.8861 169.0099,12.0709 223.0717,-3.7282 76.1813,-22.2635 112.0327,-36.6615 156.3975,-62.8098 175.5715,-103.4805 305.8054,-293.8158 351.6316,-513.9052 15.6198,-75.0174 17.939,-96.2477 19.5315,-178.7974 1.6594,-86.0124 -1.5972,-141.4311 -10.9851,-186.9361 -3.1975,-15.4991 -7.1992,-35.3246 -8.8926,-44.05666 -1.6934,-8.73203 -8.02,-32.27854 -14.0591,-52.32558 C 2006.078,810.24154 1935.2985,693.99439 1844.4767,612.85419 1774.4196,550.26506 1686.0481,496.14738 1616.0238,472.95224 1580.8466,461.3 1559.5519,456.67084 1460.4192,439.12622 c -54.2382,-9.59919 -222.789,-11.50262 -280.1866,-3.16419 -75.1059,10.91102 -152.0071,28.29652 -203.48841,46.00378 -13.59012,4.67439 -33.86628,11.48782 -45.05814,15.14093 -28.66,9.35486 -103.93404,43.27375 -135.87986,61.2282 -124.17311,69.78881 -221.90032,163.85762 -290.54913,279.67256 -40.06784,67.59698 -61.16851,130.25253 -78.05043,231.7599 -7.53951,45.3336 -10.99837,185.3545 -6.1505,248.9829 9.17053,120.3632 46.41306,209.0794 118.18806,281.5383 48.27319,48.7332 103.31982,82.6806 138.15436,85.2004 20.49505,1.4824 28.22645,-2.4537 39.31174,-20.0139 15.05872,-23.8546 39.10366,-111.2846 39.10366,-142.1851 0,-9.5154 -5.87738,-23.8458 -27.2343,-66.4039 -53.71416,-107.0362 -66.01375,-151.1938 -66.03163,-237.0643 -0.0174,-90.0365 19.45108,-170.6095 62.65387,-259.28349 34.53535,-70.88395 72.57974,-121.9277 120.72834,-161.97994 89.23939,-74.2334 202.23137,-125.37732 322.71497,-146.07148 36.8249,-6.32503 141.2033,-8.9502 179.0247,-4.50259 90.9886,10.6998 173.3556,39.8893 242.5558,85.95776 95.124,63.32663 156.3396,174.62024 179.2001,325.79624 7.5364,49.838 7.5411,189.3705 0.01,235.3198 -12.6565,77.2006 -41.915,168.6268 -75.267,235.1928 -44.8634,89.541 -93.4012,148.0995 -159.2831,192.1669 -45.4982,30.4331 -86.8371,44.5252 -138.0814,47.0708 -37.9254,1.884 -57.6894,-2.1843 -93.0232,-19.1484 -46.5023,-22.3258 -73.5857,-48.4925 -98.1394,-94.8169 l -12.3264,-23.2559 0.058,-42.1511 c 0.069,-49.5846 2.8925,-62.536 44.9992,-206.3954 55.9991,-191.3235 65.0658,-231.6211 65.0784,-289.2442 0.01,-46.6496 -5.1806,-70.8189 -23.3362,-108.6574 -50.43,-105.10273 -205.7323,-112.6307 -299.19703,-14.50293 -40.68735,42.71733 -66.2154,95.12443 -86.89709,178.39293 -14.38442,57.9144 -5.015,163.3024 22.02209,247.7067 6.60471,20.6185 8.57666,31.3097 7.38227,40.0237 -2.12453,15.5001 -50.09439,217.0044 -99.66686,418.665 -37.96046,154.423 -46.16372,189.0287 -55.12762,232.5581 -2.30471,11.1919 -6.15971,29.5058 -8.56665,40.6977 -11.06974,51.4721 -18.0396,128.7669 -19.00431,210.7558 -0.58165,49.4329 4.4623,48.1651 -57.31752,14.4069 C 546.53084,2279.5477 469.98235,2223.0342 369.03564,2122.1854 289.85416,2043.0806 239.6894,1980.1142 185.67086,1892.0271 88.36066,1733.3451 25.81748,1548.1438 11.559674,1376.4535 7.7156762,1330.1647 9.4490052,1125.841 13.927093,1097.3837 25.352433,1024.7783 43.736782,941.01576 60.090657,887.05392 87.940904,795.15831 133.24265,693.31137 182.24746,612.42218 282.91008,446.26471 447.78198,283.32133 620.57023,179.22644 899.71445,11.058294 1234.4908,-36.498756 1565.407,45.006526 c 186.8919,46.031823 349.5562,129.385934 491.167,251.688824 33.8451,29.23049 108.1452,104.75982 144.3034,146.69084 138.0959,160.14337 238.8212,374.18721 274.2446,582.77661 4.2086,24.782 9.01,51.5988 10.6698,59.593 1.6598,7.9942 4.2396,47.2384 5.733,87.2093 7.6351,204.362 -16.9948,358.8889 -84.7911,531.9768 -67.6568,172.7315 -174.6921,325.268 -323.8849,461.5698 -202.2798,184.802 -429.2048,288.8657 -699.1279,320.6074 -36.8381,4.3319 -192.6311,8.2577 -213.6628,5.384 z"
     style="opacity:0.98;fill:#ffffff;stroke:#ffffff;stroke-width:15;stroke-miterlimit:4;stroke-dasharray:none" />
</svg>
