<?xml version="1.0" encoding="UTF-8" standalone="no"?>
<svg
   xmlns:dc="http://purl.org/dc/elements/1.1/"
   xmlns:cc="http://creativecommons.org/ns#"
   xmlns:rdf="http://www.w3.org/1999/02/22-rdf-syntax-ns#"
   xmlns:svg="http://www.w3.org/2000/svg"
   xmlns="http://www.w3.org/2000/svg"
   xmlns:sodipodi="http://sodipodi.sourceforge.net/DTD/sodipodi-0.dtd"
   xmlns:inkscape="http://www.inkscape.org/namespaces/inkscape"
   height="24"
   viewBox="0 0 24 24"
   width="24"
   version="1.1"
   id="svg6"
   sodipodi:docname="account_circle-white.svg"
   inkscape:version="1.0 (4035a4fb49, 2020-05-01)">
  <metadata
     id="metadata12">
    <rdf:RDF>
      <cc:Work
         rdf:about="">
        <dc:format>image/svg+xml</dc:format>
        <dc:type
           rdf:resource="http://purl.org/dc/dcmitype/StillImage" />
      </cc:Work>
    </rdf:RDF>
  </metadata>
  <defs
     id="defs10" />
  <sodipodi:namedview
     inkscape:document-rotation="0"
     pagecolor="#ffffff"
     bordercolor="#666666"
     borderopacity="1"
     objecttolerance="10"
     gridtolerance="10"
     guidetolerance="10"
     inkscape:pageopacity="0"
     inkscape:pageshadow="2"
     inkscape:window-width="1920"
     inkscape:window-height="1027"
     id="namedview8"
     showgrid="false"
     inkscape:zoom="35.833333"
     inkscape:cx="13.227907"
     inkscape:cy="13.116279"
     inkscape:window-x="-8"
     inkscape:window-y="-8"
     inkscape:window-maximized="1"
     inkscape:current-layer="svg6" />
  <path
     d="M0 0h24v24H0V0z"
     fill="none"
     id="path2" />
  <path
     d="M12 2C6.48 2 2 6.48 2 12s4.48 10 10 10 10-4.48 10-10S17.52 2 12 2zm0 3c1.66 0 3 1.34 3 3s-1.34 3-3 3-3-1.34-3-3 1.34-3 3-3zm0 14.2c-2.5 0-4.71-1.28-6-3.22.03-1.99 4-3.08 6-3.08 1.99 0 5.97 1.09 6 3.08-1.29 1.94-3.5 3.22-6 3.22z"
     id="path4" />
  <path
     style="opacity:0.98;fill:#707070;fill-opacity:1;stroke-width:0.027907"
     d="M 11.455814,21.974215 C 10.71439,21.917687 10.184432,21.83512 9.5613971,21.679068 7.8695816,21.255317 6.3370814,20.400105 5.0690138,19.172093 c -1.6863722,-1.633104 -2.708906,-3.70163 -2.993568,-6.055814 -0.067425,-0.557614 -0.067425,-1.674944 0,-2.232558 C 2.356922,8.5558839 3.370427,6.4856964 5.0134242,4.8825996 6.6755135,3.2608741 8.6560828,2.3286755 11.009302,2.0605071 c 0.45973,-0.05239 1.616,-0.044114 2.106977,0.015081 2.326633,0.2805111 4.384185,1.2877017 6.002418,2.938238 1.607625,1.6397171 2.557573,3.658711 2.820906,5.9954759 0.04461,0.395858 0.04461,1.585538 0,1.981396 -0.263434,2.337666 -1.206225,4.341085 -2.821756,5.996199 -1.598096,1.637251 -3.690663,2.662717 -5.987614,2.934241 -0.352172,0.04163 -1.392168,0.0746 -1.674419,0.05308 z m 1.772093,-2.866624 c 1.866433,-0.330374 3.533606,-1.370363 4.619219,-2.881486 l 0.159097,-0.221454 -0.01356,-0.181395 C 17.957479,15.352644 17.644411,14.870971 17.096188,14.443983 16.793889,14.208533 16.551525,14.062647 16.116279,13.854144 14.682757,13.167422 12.7642,12.789192 11.370107,12.918472 9.664056,13.07668 7.9170726,13.669609 6.9194576,14.429028 6.3756402,14.843001 6.0425593,15.352135 6.0073384,15.823256 l -0.013561,0.181395 0.1602985,0.223256 c 1.0922883,1.521284 2.8288273,2.59377 4.6738311,2.886555 0.504162,0.08001 0.504962,0.08005 1.283721,0.07206 0.619282,-0.0064 0.764138,-0.0166 1.116279,-0.07893 z M 12.325552,10.993424 C 14.186811,10.785881 15.393774,8.9929956 14.898057,7.172093 14.594781,6.058075 13.607467,5.1913264 12.448776,5.0219034 12.131094,4.9754523 11.547933,5.001804 11.269207,5.0752058 10.134148,5.3741202 9.2933255,6.2431753 9.0510114,7.3678803 c -0.080198,0.3722403 -0.067335,1.0165889 0.027444,1.3747434 0.08188,0.3094147 0.2638278,0.712783 0.4356343,0.9657796 0.5303853,0.7810257 1.4535993,1.2775237 2.4381733,1.3112317 0.05816,0.002 0.226143,-0.0098 0.373289,-0.02621 z"
     id="path837" />
  <path
     style="opacity:0.98;fill:#707070;fill-opacity:1;stroke-width:0.027907"
     d="M 11.00463,21.919513 C 9.0431746,21.705393 7.2992048,20.98736 5.7627907,19.761327 5.3538444,19.434994 4.6156597,18.704778 4.289338,18.30378 1.6945396,15.115181 1.30264,10.714437 3.2961353,7.150843 4.4909853,5.0149161 6.4986879,3.3383898 8.7834536,2.5686733 9.4229531,2.3532318 9.9793831,2.2231583 10.772093,2.1038 11.157022,2.045841 12.179875,2.02397 12.73302,2.061871 c 1.977452,0.1354918 3.894309,0.8900427 5.484586,2.1589491 0.450964,0.3598312 1.194563,1.1037919 1.560815,1.5615738 1.07872,1.3483038 1.7829,2.9320096 2.063517,4.6408621 0.02773,0.168837 0.05776,0.310423 0.06675,0.314635 0.009,0.0042 0.01087,0.04487 0.0042,0.09036 -0.0067,0.04548 -0.002,0.104828 0.01035,0.131877 0.03292,0.07197 0.03712,2.023172 0.0044,2.065074 -0.0148,0.01897 -0.02177,0.07843 -0.01551,0.132118 0.0063,0.05369 0.0044,0.100956 -0.0042,0.105035 -0.0086,0.0041 -0.0383,0.145557 -0.06602,0.314394 -0.352878,2.1489 -1.379666,4.100143 -2.951738,5.609303 -0.777728,0.746603 -1.58552,1.307543 -2.570739,1.785149 -1.16225,0.563425 -2.355913,0.884025 -3.588813,0.963901 -0.557048,0.03609 -1.315381,0.02924 -1.726018,-0.01558 z M 13.193023,19.1296 c 0.157326,-0.02738 0.286047,-0.06116 0.286047,-0.07506 0,-0.0139 0.01182,-0.01797 0.02626,-0.0091 0.03664,0.02265 0.615604,-0.125535 0.615604,-0.157559 0,-0.01436 0.01049,-0.01963 0.0233,-0.01171 0.03241,0.02003 0.22786,-0.0428 0.22786,-0.07325 0,-0.01368 0.0118,-0.01758 0.02621,-0.0087 0.03418,0.02112 0.531926,-0.178035 0.531926,-0.212831 0,-0.01464 0.0108,-0.01995 0.024,-0.01179 0.03327,0.02056 0.404555,-0.162952 0.771351,-0.381248 0.792824,-0.471844 1.517074,-1.125652 2.072252,-1.870701 0.105435,-0.141495 0.199445,-0.270323 0.208911,-0.286284 0.02887,-0.04869 -0.03308,-0.453307 -0.09248,-0.604012 -0.200166,-0.507825 -0.752204,-1.037751 -1.497607,-1.437618 -0.337754,-0.181187 -0.923885,-0.433033 -0.958304,-0.411761 -0.01419,0.0088 -0.02579,0.0039 -0.02579,-0.01089 0,-0.03204 -0.657379,-0.251031 -1.05968,-0.35301 -0.575337,-0.14584 -1.099846,-0.23918 -1.647297,-0.293148 -0.475834,-0.04691 -1.489586,-0.01922 -1.939534,0.05297 -0.508159,0.08153 -0.9348842,0.173222 -0.9348842,0.200882 0,0.01287 -0.017104,0.01683 -0.038009,0.0088 -0.074407,-0.02855 -1.2457119,0.331651 -1.2457119,0.383086 0,0.01498 -0.012509,0.01951 -0.027797,0.01006 -0.015289,-0.0094 -0.1502886,0.035 -0.3,0.09876 -1.1469999,0.48856 -1.8679237,1.073773 -2.1495634,1.744916 -0.061504,0.146562 -0.1270295,0.56002 -0.096825,0.610952 0.072468,0.122197 0.4446558,0.592495 0.6461556,0.816483 0.5533898,0.615152 1.2685811,1.164135 2.0396582,1.565648 0.371367,0.193377 0.9637331,0.43497 1.0045936,0.409716 0.01538,-0.0095 0.027964,-0.0063 0.027964,0.0072 0,0.0327 0.2999251,0.126024 0.3351201,0.104271 0.01522,-0.0094 0.02767,-0.0048 0.02767,0.01016 0,0.03189 0.41366,0.130138 0.851162,0.202158 0.422039,0.06947 1.830237,0.05863 2.267442,-0.01746 z M 12.72764,10.93107 C 13.646757,10.691822 14.344178,10.119542 14.736256,9.2828693 15.05765,8.5970322 15.103943,7.6951275 14.85391,6.9906977 14.527053,6.0698305 13.790193,5.381254 12.820476,5.0905069 12.613971,5.0285911 12.500517,5.0137236 12.147568,5.002327 11.88983,4.9940046 11.633961,5.0016433 11.496302,5.0217728 10.58966,5.1543416 9.7220735,5.7907141 9.2960537,6.6356509 9.1775925,6.8705978 9.0405667,7.2861991 9.0286783,7.4466042 c -0.00531,0.071577 -0.017917,0.1508285 -0.028026,0.1761148 -0.039003,0.097557 0.00884,0.8974995 0.067088,1.1216737 0.1870622,0.7199562 0.6380551,1.3619173 1.2349967,1.7579433 0.257899,0.171096 0.675255,0.367498 0.720939,0.339264 0.01512,-0.0093 0.02749,-0.0053 0.02749,0.0089 0,0.02885 0.139149,0.07103 0.432558,0.131127 0.302417,0.06194 0.905887,0.03739 1.243919,-0.0506 z"
     id="path839" />
  <path
     id="path833"
     d="M 11.260465,21.943748 C 9.3801885,21.781037 7.6394112,21.140784 6.1731747,20.072658 5.7241211,19.745531 5.3968942,19.462649 4.9534883,19.018263 4.5288913,18.592727 4.3499658,18.390305 4.078089,18.027907 3.968697,17.882093 3.8690817,17.750233 3.8567216,17.734884 3.7812952,17.641219 3.528714,17.247611 3.392592,17.011611 2.8399776,16.053523 2.4387982,15.003787 2.2345292,13.981395 2.2176628,13.896977 2.1975878,13.796512 2.1899182,13.758139 2.0089995,12.852976 1.9882956,11.585176 2.1375086,10.548837 2.3494181,9.0770477 2.9610726,7.545426 3.8360376,6.2956123 4.5381023,5.2927726 5.5408336,4.3228393 6.5731998,3.6479791 8.4378935,2.4290246 10.656128,1.8782375 12.893023,2.0787685 c 1.300801,0.1166129 2.434928,0.442856 3.6,1.0355771 0.974337,0.4956857 1.685048,1.009741 2.470202,1.7866903 0.705488,0.698116 1.138645,1.2424868 1.600446,2.0113616 0.605981,1.0089294 1.055155,2.2283945 1.260411,3.4218965 0.03217,0.187068 0.06511,0.358962 0.0732,0.381985 0.06383,0.181726 0.06636,2.539004 0.0027,2.539403 -0.01151,8.4e-5 -0.02093,0.03186 -0.02093,0.07065 0,0.12863 -0.166514,0.921459 -0.281957,1.342494 -0.469487,1.712269 -1.418763,3.288007 -2.738264,4.545345 -1.667004,1.588471 -3.869047,2.567056 -6.119314,2.719416 -0.390291,0.02643 -1.224875,0.03216 -1.479069,0.01016 z m 1.925257,-2.813146 c 0.137961,-0.02554 0.264697,-0.05794 0.281637,-0.072 0.01694,-0.01406 0.03747,-0.0189 0.04561,-0.01075 0.02318,0.02318 0.607958,-0.130641 0.607958,-0.159924 0,-0.01436 0.01049,-0.01963 0.0233,-0.01171 0.03241,0.02003 0.22786,-0.0428 0.22786,-0.07325 0,-0.01368 0.01213,-0.01738 0.02694,-0.0082 0.026,0.01607 0.502827,-0.167464 0.531195,-0.204462 0.0077,-0.01001 0.03279,-0.02202 0.05581,-0.0267 0.08874,-0.01801 0.412572,-0.181901 0.722746,-0.365781 0.796638,-0.472273 1.476607,-1.0785 2.03737,-1.816421 0.134135,-0.176511 0.251512,-0.33399 0.260837,-0.349952 0.02862,-0.04898 -0.03354,-0.453826 -0.09274,-0.604011 -0.198558,-0.503745 -0.758194,-1.040964 -1.497607,-1.437618 -0.337754,-0.181187 -0.923885,-0.433033 -0.958304,-0.411761 -0.01419,0.0088 -0.02579,0.0039 -0.02579,-0.01089 0,-0.08207 -1.832989,-0.577876 -1.925349,-0.520794 -0.01548,0.0096 -0.02814,0.0066 -0.02814,-0.0066 0,-0.02634 -0.288819,-0.07154 -0.77675,-0.121545 -0.449868,-0.04611 -1.425108,-0.01768 -1.90232,0.05545 -0.496695,0.07612 -0.9488372,0.171973 -0.9488372,0.201153 0,0.01287 -0.017104,0.01683 -0.038009,0.0088 -0.074407,-0.02855 -1.245712,0.331651 -1.245712,0.383086 0,0.01498 -0.012109,0.01976 -0.026909,0.01061 -0.0148,-0.0091 -0.1497999,0.03541 -0.3,0.09901 -0.6795642,0.287775 -1.2661585,0.64795 -1.6223897,0.996165 -0.2242604,0.219214 -0.4956722,0.598202 -0.4645105,0.648623 0.00941,0.01522 0.00533,0.02767 -0.00906,0.02767 -0.049413,0 -0.1245818,0.257704 -0.1559914,0.534789 -0.014634,0.129101 -0.012593,0.132983 0.2564755,0.487817 0.6345843,0.836856 1.5150276,1.571057 2.4666689,2.056953 0.3930743,0.200699 0.9324065,0.41933 0.9728177,0.394355 0.014899,-0.0092 0.02709,-0.0057 0.02709,0.0077 0,0.0327 0.2999247,0.126024 0.3351197,0.104271 0.01522,-0.0094 0.02767,-0.0048 0.02767,0.01016 0,0.03905 0.552232,0.157768 1.102325,0.236975 0.04605,0.0066 0.460465,0.0083 0.92093,0.0036 0.631984,-0.0064 0.898698,-0.01983 1.088048,-0.05488 z m -0.781071,-8.136338 c 0.599189,-0.08553 1.166739,-0.344274 1.6198,-0.73845 0.384367,-0.3344106 0.754932,-0.9447124 0.898067,-1.4790699 0.06814,-0.254402 0.07469,-0.323472 0.07408,-0.7813954 -6.08e-4,-0.451186 -0.008,-0.5296535 -0.07284,-0.7707594 C 14.646557,6.1935244 13.866293,5.4008619 12.823256,5.0907174 12.614705,5.0287053 12.500069,5.0137093 12.147568,5.0023268 11.654752,4.986414 11.37988,5.0190537 11.040432,5.1337941 9.9859451,5.4902334 9.2103265,6.3854775 9.0248528,7.4602419 8.9664011,7.7989517 8.9877555,8.433495 9.0680684,8.7443926 9.2430424,9.421729 9.6735455,10.058534 10.218309,10.44584 c 0.216027,0.153587 0.672231,0.386802 0.767323,0.392261 0.03602,0.0021 0.0655,0.01227 0.06551,0.02268 1.6e-5,0.01544 0.23798,0.07553 0.572113,0.144482 0.111329,0.02297 0.590674,0.01623 0.781395,-0.011 z"
     style="opacity:0.98;fill:#ffffff;stroke-width:0.139535" />
  <path
     id="path835"
     d="M 10.897674,21.894112 C 8.6841826,21.596451 6.8621296,20.759881 5.2970871,19.322681 3.5587264,17.726322 2.4925683,15.706481 2.1315621,13.325581 2.0731015,12.940023 2.0481417,11.592752 2.0904443,11.106139 2.2379138,9.4097767 2.8821754,7.6719387 3.8883036,6.2565752 4.6469107,5.1894102 5.6928583,4.2095174 6.802776,3.5261605 7.9902036,2.7950824 9.1929042,2.361267 10.632558,2.144754 c 0.482217,-0.072522 1.7034,-0.1020536 2.226148,-0.053835 1.573709,0.14516 2.938946,0.5944895 4.311077,1.4188707 1.242342,0.7464038 2.517717,2.0136781 3.292519,3.2716054 0.65455,1.062693 1.056757,2.113809 1.338051,3.4968249 l 0.114641,0.56364 0.003,1.116279 c 0.0022,0.836888 -0.0066,1.168665 -0.03534,1.325582 -0.330773,1.807248 -0.748109,2.907325 -1.585917,4.180397 -0.664485,1.009703 -1.618597,1.994651 -2.583661,2.667162 -1.348258,0.939544 -2.790891,1.505035 -4.429324,1.736232 -0.440929,0.06222 -1.992546,0.07952 -2.386047,0.0266 z m 2.344186,-2.761388 c 0.107442,-0.02343 0.282214,-0.06162 0.388383,-0.08486 0.203539,-0.04455 0.522094,-0.13568 0.686036,-0.196251 0.05372,-0.01985 0.191861,-0.07038 0.306977,-0.1123 0.115116,-0.04192 0.385116,-0.161875 0.6,-0.266574 1.010644,-0.492425 1.870052,-1.206877 2.574674,-2.140406 l 0.237136,-0.314174 -0.01881,-0.166261 c -0.04789,-0.423311 -0.185409,-0.710199 -0.506843,-1.057377 -0.415722,-0.449018 -1.034787,-0.845171 -1.769878,-1.132583 -0.145814,-0.05701 -0.315349,-0.126307 -0.376744,-0.15399 -0.243516,-0.109798 -1.281233,-0.391838 -1.716279,-0.466466 -0.130465,-0.02238 -0.343954,-0.05938 -0.474419,-0.08222 -0.328917,-0.05759 -1.475785,-0.0813 -1.964375,-0.0406 -0.386509,0.03219 -1.022466,0.135902 -1.2867878,0.209849 -0.076744,0.02147 -0.2525581,0.06709 -0.3906977,0.101373 -0.2357358,0.05851 -0.5885997,0.172137 -1.0744186,0.345988 -0.3362866,0.12034 -0.9666622,0.439006 -1.2873123,0.650758 -0.504315,0.333042 -0.8545367,0.702954 -1.0390429,1.097462 -0.1031997,0.22066 -0.1766076,0.558237 -0.1470234,0.676109 0.065138,0.259531 1.0667531,1.330238 1.6560581,1.770294 0.7009013,0.52339 1.5853752,0.969477 2.3103438,1.165231 0.076744,0.02072 0.2148838,0.05855 0.3069768,0.08406 0.09209,0.02551 0.324419,0.07615 0.516279,0.112521 0.334163,0.06336 0.389337,0.06565 1.311628,0.05458 0.723469,-0.0087 1.011349,-0.02215 1.158139,-0.05416 z m -0.690707,-8.151663 c 0.595123,-0.112893 1.206548,-0.428929 1.598403,-0.826188 0.399366,-0.4048748 0.751945,-1.0866606 0.835357,-1.6153382 0.03701,-0.2345529 0.0368,-0.8557212 -3.52e-4,-1.0883721 C 14.94229,7.1864929 14.790105,6.7623169 14.648804,6.5153287 14.268699,5.8509188 13.69475,5.3802908 12.951831,5.1238391 12.628262,5.0121448 12.627351,5.01201 12.11961,5.0006457 11.563121,4.9881903 11.358964,5.011607 11.023256,5.1263973 10.079896,5.4489654 9.3682228,6.1935867 9.0814155,7.1581394 c -0.06186,0.2080407 -0.077019,0.3234011 -0.088289,0.6719121 -0.022009,0.6805714 0.065622,1.1026136 0.3327371,1.6025065 0.4260929,0.797412 1.1194074,1.314416 2.0601834,1.536275 0.27182,0.0641 0.85915,0.07027 1.165106,0.01223 z"
     style="opacity:0.98;fill:#ffffff;stroke-width:0.2;stroke:#ffffff;stroke-opacity:1;stroke-miterlimit:4;stroke-dasharray:none" />
</svg>
