<?xml version="1.0" encoding="UTF-8" standalone="no"?>
<svg
   xmlns:dc="http://purl.org/dc/elements/1.1/"
   xmlns:cc="http://creativecommons.org/ns#"
   xmlns:rdf="http://www.w3.org/1999/02/22-rdf-syntax-ns#"
   xmlns:svg="http://www.w3.org/2000/svg"
   xmlns="http://www.w3.org/2000/svg"
   xmlns:sodipodi="http://sodipodi.sourceforge.net/DTD/sodipodi-0.dtd"
   xmlns:inkscape="http://www.inkscape.org/namespaces/inkscape"
   inkscape:version="1.0 (4035a4fb49, 2020-05-01)"
   sodipodi:docname="account_circle.svg"
   id="svg6"
   version="1.1"
   width="24"
   viewBox="0 0 24 24"
   height="24">
  <metadata
     id="metadata12">
    <rdf:RDF>
      <cc:Work
         rdf:about="">
        <dc:format>image/svg+xml</dc:format>
        <dc:type
           rdf:resource="http://purl.org/dc/dcmitype/StillImage" />
      </cc:Work>
    </rdf:RDF>
  </metadata>
  <defs
     id="defs10" />
  <sodipodi:namedview
     inkscape:current-layer="svg6"
     inkscape:window-maximized="1"
     inkscape:window-y="-8"
     inkscape:window-x="-8"
     inkscape:cy="13.116279"
     inkscape:cx="13.227907"
     inkscape:zoom="35.833333"
     showgrid="false"
     id="namedview8"
     inkscape:window-height="1027"
     inkscape:window-width="1920"
     inkscape:pageshadow="2"
     inkscape:pageopacity="0"
     guidetolerance="10"
     gridtolerance="10"
     objecttolerance="10"
     borderopacity="1"
     bordercolor="#666666"
     pagecolor="#ffffff" />
  <path
     id="path2"
     fill="none"
     d="M0 0h24v24H0V0z" />
  <path
     id="path4"
     d="M12 2C6.48 2 2 6.48 2 12s4.48 10 10 10 10-4.48 10-10S17.52 2 12 2zm0 3c1.66 0 3 1.34 3 3s-1.34 3-3 3-3-1.34-3-3 1.34-3 3-3zm0 14.2c-2.5 0-4.71-1.28-6-3.22.03-1.99 4-3.08 6-3.08 1.99 0 5.97 1.09 6 3.08-1.29 1.94-3.5 3.22-6 3.22z" />
  <path
     id="path837"
     d="M 11.455814,21.974215 C 10.71439,21.917687 10.184432,21.83512 9.5613971,21.679068 7.8695816,21.255317 6.3370814,20.400105 5.0690138,19.172093 c -1.6863722,-1.633104 -2.708906,-3.70163 -2.993568,-6.055814 -0.067425,-0.557614 -0.067425,-1.674944 0,-2.232558 C 2.356922,8.5558839 3.370427,6.4856964 5.0134242,4.8825996 6.6755135,3.2608741 8.6560828,2.3286755 11.009302,2.0605071 c 0.45973,-0.05239 1.616,-0.044114 2.106977,0.015081 2.326633,0.2805111 4.384185,1.2877017 6.002418,2.938238 1.607625,1.6397171 2.557573,3.658711 2.820906,5.9954759 0.04461,0.395858 0.04461,1.585538 0,1.981396 -0.263434,2.337666 -1.206225,4.341085 -2.821756,5.996199 -1.598096,1.637251 -3.690663,2.662717 -5.987614,2.934241 -0.352172,0.04163 -1.392168,0.0746 -1.674419,0.05308 z m 1.772093,-2.866624 c 1.866433,-0.330374 3.533606,-1.370363 4.619219,-2.881486 l 0.159097,-0.221454 -0.01356,-0.181395 C 17.957479,15.352644 17.644411,14.870971 17.096188,14.443983 16.793889,14.208533 16.551525,14.062647 16.116279,13.854144 14.682757,13.167422 12.7642,12.789192 11.370107,12.918472 9.664056,13.07668 7.9170726,13.669609 6.9194576,14.429028 6.3756402,14.843001 6.0425593,15.352135 6.0073384,15.823256 l -0.013561,0.181395 0.1602985,0.223256 c 1.0922883,1.521284 2.8288273,2.59377 4.6738311,2.886555 0.504162,0.08001 0.504962,0.08005 1.283721,0.07206 0.619282,-0.0064 0.764138,-0.0166 1.116279,-0.07893 z M 12.325552,10.993424 C 14.186811,10.785881 15.393774,8.9929956 14.898057,7.172093 14.594781,6.058075 13.607467,5.1913264 12.448776,5.0219034 12.131094,4.9754523 11.547933,5.001804 11.269207,5.0752058 10.134148,5.3741202 9.2933255,6.2431753 9.0510114,7.3678803 c -0.080198,0.3722403 -0.067335,1.0165889 0.027444,1.3747434 0.08188,0.3094147 0.2638278,0.712783 0.4356343,0.9657796 0.5303853,0.7810257 1.4535993,1.2775237 2.4381733,1.3112317 0.05816,0.002 0.226143,-0.0098 0.373289,-0.02621 z"
     style="opacity:0.98;fill:#707070;fill-opacity:1;stroke-width:0.027907" />
  <path
     id="path839"
     d="M 11.00463,21.919513 C 9.0431746,21.705393 7.2992048,20.98736 5.7627907,19.761327 5.3538444,19.434994 4.6156597,18.704778 4.289338,18.30378 1.6945396,15.115181 1.30264,10.714437 3.2961353,7.150843 4.4909853,5.0149161 6.4986879,3.3383898 8.7834536,2.5686733 9.4229531,2.3532318 9.9793831,2.2231583 10.772093,2.1038 11.157022,2.045841 12.179875,2.02397 12.73302,2.061871 c 1.977452,0.1354918 3.894309,0.8900427 5.484586,2.1589491 0.450964,0.3598312 1.194563,1.1037919 1.560815,1.5615738 1.07872,1.3483038 1.7829,2.9320096 2.063517,4.6408621 0.02773,0.168837 0.05776,0.310423 0.06675,0.314635 0.009,0.0042 0.01087,0.04487 0.0042,0.09036 -0.0067,0.04548 -0.002,0.104828 0.01035,0.131877 0.03292,0.07197 0.03712,2.023172 0.0044,2.065074 -0.0148,0.01897 -0.02177,0.07843 -0.01551,0.132118 0.0063,0.05369 0.0044,0.100956 -0.0042,0.105035 -0.0086,0.0041 -0.0383,0.145557 -0.06602,0.314394 -0.352878,2.1489 -1.379666,4.100143 -2.951738,5.609303 -0.777728,0.746603 -1.58552,1.307543 -2.570739,1.785149 -1.16225,0.563425 -2.355913,0.884025 -3.588813,0.963901 -0.557048,0.03609 -1.315381,0.02924 -1.726018,-0.01558 z M 13.193023,19.1296 c 0.157326,-0.02738 0.286047,-0.06116 0.286047,-0.07506 0,-0.0139 0.01182,-0.01797 0.02626,-0.0091 0.03664,0.02265 0.615604,-0.125535 0.615604,-0.157559 0,-0.01436 0.01049,-0.01963 0.0233,-0.01171 0.03241,0.02003 0.22786,-0.0428 0.22786,-0.07325 0,-0.01368 0.0118,-0.01758 0.02621,-0.0087 0.03418,0.02112 0.531926,-0.178035 0.531926,-0.212831 0,-0.01464 0.0108,-0.01995 0.024,-0.01179 0.03327,0.02056 0.404555,-0.162952 0.771351,-0.381248 0.792824,-0.471844 1.517074,-1.125652 2.072252,-1.870701 0.105435,-0.141495 0.199445,-0.270323 0.208911,-0.286284 0.02887,-0.04869 -0.03308,-0.453307 -0.09248,-0.604012 -0.200166,-0.507825 -0.752204,-1.037751 -1.497607,-1.437618 -0.337754,-0.181187 -0.923885,-0.433033 -0.958304,-0.411761 -0.01419,0.0088 -0.02579,0.0039 -0.02579,-0.01089 0,-0.03204 -0.657379,-0.251031 -1.05968,-0.35301 -0.575337,-0.14584 -1.099846,-0.23918 -1.647297,-0.293148 -0.475834,-0.04691 -1.489586,-0.01922 -1.939534,0.05297 -0.508159,0.08153 -0.9348842,0.173222 -0.9348842,0.200882 0,0.01287 -0.017104,0.01683 -0.038009,0.0088 -0.074407,-0.02855 -1.2457119,0.331651 -1.2457119,0.383086 0,0.01498 -0.012509,0.01951 -0.027797,0.01006 -0.015289,-0.0094 -0.1502886,0.035 -0.3,0.09876 -1.1469999,0.48856 -1.8679237,1.073773 -2.1495634,1.744916 -0.061504,0.146562 -0.1270295,0.56002 -0.096825,0.610952 0.072468,0.122197 0.4446558,0.592495 0.6461556,0.816483 0.5533898,0.615152 1.2685811,1.164135 2.0396582,1.565648 0.371367,0.193377 0.9637331,0.43497 1.0045936,0.409716 0.01538,-0.0095 0.027964,-0.0063 0.027964,0.0072 0,0.0327 0.2999251,0.126024 0.3351201,0.104271 0.01522,-0.0094 0.02767,-0.0048 0.02767,0.01016 0,0.03189 0.41366,0.130138 0.851162,0.202158 0.422039,0.06947 1.830237,0.05863 2.267442,-0.01746 z M 12.72764,10.93107 C 13.646757,10.691822 14.344178,10.119542 14.736256,9.2828693 15.05765,8.5970322 15.103943,7.6951275 14.85391,6.9906977 14.527053,6.0698305 13.790193,5.381254 12.820476,5.0905069 12.613971,5.0285911 12.500517,5.0137236 12.147568,5.002327 11.88983,4.9940046 11.633961,5.0016433 11.496302,5.0217728 10.58966,5.1543416 9.7220735,5.7907141 9.2960537,6.6356509 9.1775925,6.8705978 9.0405667,7.2861991 9.0286783,7.4466042 c -0.00531,0.071577 -0.017917,0.1508285 -0.028026,0.1761148 -0.039003,0.097557 0.00884,0.8974995 0.067088,1.1216737 0.1870622,0.7199562 0.6380551,1.3619173 1.2349967,1.7579433 0.257899,0.171096 0.675255,0.367498 0.720939,0.339264 0.01512,-0.0093 0.02749,-0.0053 0.02749,0.0089 0,0.02885 0.139149,0.07103 0.432558,0.131127 0.302417,0.06194 0.905887,0.03739 1.243919,-0.0506 z"
     style="opacity:0.98;fill:#707070;fill-opacity:1;stroke-width:0.027907" />
</svg>
