<?xml version="1.0" encoding="UTF-8" standalone="no"?>
<svg
   xmlns:dc="http://purl.org/dc/elements/1.1/"
   xmlns:cc="http://creativecommons.org/ns#"
   xmlns:rdf="http://www.w3.org/1999/02/22-rdf-syntax-ns#"
   xmlns:svg="http://www.w3.org/2000/svg"
   xmlns="http://www.w3.org/2000/svg"
   xmlns:sodipodi="http://sodipodi.sourceforge.net/DTD/sodipodi-0.dtd"
   xmlns:inkscape="http://www.inkscape.org/namespaces/inkscape"
   inkscape:version="1.0 (4035a4fb49, 2020-05-01)"
   sodipodi:docname="behance.svg"
   id="svg4"
   version="1.1"
   viewBox="0 0 24 24"
   height="24"
   width="24">
  <metadata
     id="metadata10">
    <rdf:RDF>
      <cc:Work
         rdf:about="">
        <dc:format>image/svg+xml</dc:format>
        <dc:type
           rdf:resource="http://purl.org/dc/dcmitype/StillImage" />
      </cc:Work>
    </rdf:RDF>
  </metadata>
  <defs
     id="defs8" />
  <sodipodi:namedview
     inkscape:current-layer="svg4"
     inkscape:window-maximized="1"
     inkscape:window-y="-8"
     inkscape:window-x="-8"
     inkscape:cy="12"
     inkscape:cx="12"
     inkscape:zoom="35.833333"
     showgrid="false"
     id="namedview6"
     inkscape:window-height="1027"
     inkscape:window-width="1920"
     inkscape:pageshadow="2"
     inkscape:pageopacity="0"
     guidetolerance="10"
     gridtolerance="10"
     objecttolerance="10"
     borderopacity="1"
     bordercolor="#666666"
     pagecolor="#ffffff" />
  <path
     id="path2"
     d="M22 7h-7v-2h7v2zm1.726 10c-.442 1.297-2.029 3-5.101 3-3.074 0-5.564-1.729-5.564-5.675 0-3.91 2.325-5.92 5.466-5.92 3.082 0 4.964 1.782 5.375 4.426.078.506.109 1.188.095 2.14h-8.027c.13 3.211 3.483 3.312 4.588 2.029h3.168zm-7.686-4h4.965c-.105-1.547-1.136-2.219-2.477-2.219-1.466 0-2.277.768-2.488 2.219zm-9.574 6.988h-6.466v-14.967h6.953c5.476.081 5.58 5.444 2.72 6.906 3.461 1.26 3.577 8.061-3.207 8.061zm-3.466-8.988h3.584c2.508 0 2.906-3-.312-3h-3.272v3zm3.391 3h-3.391v3.016h3.341c3.055 0 2.868-3.016.05-3.016z" />
  <path
     id="path835"
     d="M 0,12.502289 V 5.0202846 l 3.7325581,0.010535 c 4.029576,0.011373 3.9271136,0.00778 4.6234901,0.162308 1.4569136,0.3233009 2.5235908,1.1860242 2.9563098,2.3910491 0.25547,0.7114289 0.262507,1.5741971 0.01892,2.31961 C 11.066806,10.713102 10.48896,11.442417 9.7982603,11.838648 L 9.6476804,11.925028 9.8978977,12.042 c 1.0146493,0.474329 1.7546123,1.46316 2.0046973,2.678927 0.09616,0.467481 0.09604,1.214513 -2.79e-4,1.673606 -0.383272,1.827007 -1.848947,3.097766 -3.9906971,3.459983 -0.6279195,0.106195 -0.6753218,0.107498 -4.3186046,0.118714 L 0,19.984294 Z m 6.8790698,4.491975 C 8.016821,16.831851 8.6802695,16.18502 8.5636228,15.351905 8.4840223,14.783382 7.949208,14.273689 7.2429167,14.093235 6.8547756,13.994067 6.5837364,13.981858 4.7651163,13.981624 l -1.7790698,-2.29e-4 v 1.520931 1.52093 l 1.8488372,-5.53e-4 c 1.0794235,-3.23e-4 1.9301339,-0.01216 2.0441861,-0.02844 z M 7.227907,10.943397 C 8.1171645,10.711245 8.6772927,10.038892 8.5749924,9.3264148 8.4714731,8.6054467 7.7880056,8.1196655 6.7234633,8.0104228 6.5603439,7.9936836 5.7093873,7.9813953 4.7133223,7.9813953 H 2.9860465 v 1.5227493 1.5227484 l 2.0023256,-0.01079 c 1.9604592,-0.01056 2.0072855,-0.01208 2.2395349,-0.07271 z"
     style="opacity:0.98;fill:#707070;stroke-width:0.027907" />
  <path
     id="path837"
     d="m 17.860465,19.949866 c -2.400375,-0.244001 -4.060173,-1.641528 -4.586173,-3.861494 -0.132953,-0.561126 -0.1627,-0.827464 -0.177661,-1.590698 -0.01576,-0.803751 0.01988,-1.251974 0.148664,-1.869767 0.551035,-2.6434377 2.505453,-4.2 5.273513,-4.2 0.782812,0 1.420754,0.095606 2.059591,0.308662 0.757929,0.2527742 1.317672,0.5974181 1.874948,1.1544378 0.557955,0.5577002 0.909474,1.1289422 1.179705,1.9171052 0.24094,0.702733 0.311993,1.194717 0.330995,2.291888 l 0.01486,0.85814 H 19.97085 15.962791 v 0.113259 c 0,0.47676 0.215614,1.17878 0.487786,1.588185 0.452442,0.68057 1.168824,1.067113 2.05425,1.108425 0.750629,0.03502 1.450704,-0.184244 1.891635,-0.592468 l 0.164486,-0.152285 h 1.567918 1.567919 l -0.01951,0.06279 c -0.01073,0.03453 -0.06944,0.163255 -0.130468,0.286046 -0.711609,1.431798 -2.268802,2.39011 -4.19119,2.579301 -0.351106,0.03455 -1.14821,0.03374 -1.495153,-0.0015 z m 3.139838,-7.133587 c -0.03233,-0.302227 -0.115936,-0.587811 -0.255302,-0.872093 -0.109016,-0.222372 -0.168677,-0.303361 -0.370044,-0.502326 -0.27455,-0.271274 -0.463351,-0.391664 -0.790923,-0.504336 -0.607725,-0.209034 -1.477821,-0.221127 -2.037625,-0.02832 -0.44565,0.15349 -0.834305,0.452359 -1.084304,0.833813 -0.194679,0.297046 -0.293241,0.571327 -0.430799,1.198843 l -0.01376,0.06279 h 2.501457 2.501458 z"
     style="opacity:0.98;fill:#707070;stroke-width:0.027907" />
  <path
     id="path839"
     d="M 15.013953,6 V 5.0232558 h 3.488373 3.488372 V 6 6.9767442 h -3.488372 -3.488373 z"
     style="opacity:0.98;fill:#707070;stroke-width:0.027907" />
</svg>
