<?xml version="1.0" encoding="UTF-8" standalone="no"?>
<svg
   xmlns:dc="http://purl.org/dc/elements/1.1/"
   xmlns:cc="http://creativecommons.org/ns#"
   xmlns:rdf="http://www.w3.org/1999/02/22-rdf-syntax-ns#"
   xmlns:svg="http://www.w3.org/2000/svg"
   xmlns="http://www.w3.org/2000/svg"
   xmlns:sodipodi="http://sodipodi.sourceforge.net/DTD/sodipodi-0.dtd"
   xmlns:inkscape="http://www.inkscape.org/namespaces/inkscape"
   inkscape:version="1.0 (4035a4fb49, 2020-05-01)"
   sodipodi:docname="facebook.svg"
   xml:space="preserve"
   style="enable-background:new 0 0 310 310;"
   viewBox="0 0 310 310"
   y="0px"
   x="0px"
   id="Layer_1"
   version="1.1"><metadata
   id="metadata39"><rdf:RDF><cc:Work
       rdf:about=""><dc:format>image/svg+xml</dc:format><dc:type
         rdf:resource="http://purl.org/dc/dcmitype/StillImage" /></cc:Work></rdf:RDF></metadata><defs
   id="defs37" /><sodipodi:namedview
   inkscape:current-layer="Layer_1"
   inkscape:window-maximized="1"
   inkscape:window-y="-8"
   inkscape:window-x="-8"
   inkscape:cy="155"
   inkscape:cx="155"
   inkscape:zoom="2.7741935"
   showgrid="false"
   id="namedview35"
   inkscape:window-height="1027"
   inkscape:window-width="1920"
   inkscape:pageshadow="2"
   inkscape:pageopacity="0"
   guidetolerance="10"
   gridtolerance="10"
   objecttolerance="10"
   borderopacity="1"
   bordercolor="#666666"
   pagecolor="#ffffff" />
<g
   id="XMLID_834_">
	<path
   d="M81.703,165.106h33.981V305c0,2.762,2.238,5,5,5h57.616c2.762,0,5-2.238,5-5V165.765h39.064   c2.54,0,4.677-1.906,4.967-4.429l5.933-51.502c0.163-1.417-0.286-2.836-1.234-3.899c-0.949-1.064-2.307-1.673-3.732-1.673h-44.996   V71.978c0-9.732,5.24-14.667,15.576-14.667c1.473,0,29.42,0,29.42,0c2.762,0,5-2.239,5-5V5.037c0-2.762-2.238-5-5-5h-40.545   C187.467,0.023,186.832,0,185.896,0c-7.035,0-31.488,1.381-50.804,19.151c-21.402,19.692-18.427,43.27-17.716,47.358v37.752H81.703   c-2.762,0-5,2.238-5,5v50.844C76.703,162.867,78.941,165.106,81.703,165.106z"
   id="XMLID_835_" />
</g>
<g
   id="g4">
</g>
<g
   id="g6">
</g>
<g
   id="g8">
</g>
<g
   id="g10">
</g>
<g
   id="g12">
</g>
<g
   id="g14">
</g>
<g
   id="g16">
</g>
<g
   id="g18">
</g>
<g
   id="g20">
</g>
<g
   id="g22">
</g>
<g
   id="g24">
</g>
<g
   id="g26">
</g>
<g
   id="g28">
</g>
<g
   id="g30">
</g>
<g
   id="g32">
</g>
<path
   id="path864"
   d="m 119.85465,309.66876 c -1.55178,-0.38133 -2.52318,-1.07252 -3.29231,-2.34262 -0.64983,-1.07308 -0.67601,-3.52064 -0.76648,-71.65906 l -0.0937,-70.54805 -17.569114,-0.10312 c -19.907074,-0.11684 -19.344389,-0.0373 -20.653476,-2.92063 -0.651992,-1.43606 -0.685065,-2.74365 -0.692604,-27.38302 -0.0086,-28.01932 -0.06145,-27.23313 1.956998,-29.09598 l 0.976432,-0.90116 18.938206,-0.0995 18.938208,-0.0995 -0.11347,-26.214466 c -0.12614,-29.144203 -0.21206,-27.854235 2.37391,-35.641103 6.29264,-18.948415 23.72693,-33.9097461 46.31715,-39.747315 9.54867,-2.46748382 11.09717,-2.56925387 38.88274,-2.55544027 27.69611,0.0137691 26.061,-0.14836686 27.4505,2.72195487 0.68919,1.4236924 0.713,2.2878156 0.70535,25.6008974 -0.008,22.922682 -0.0421,24.202776 -0.6926,25.635542 -1.30704,2.878851 -0.7057,2.793371 -21.10762,3.000436 -19.55284,0.198447 -18.98903,0.141054 -22.68964,2.309752 -1.94394,1.139222 -3.83724,3.585893 -4.75971,6.150851 -0.58921,1.638314 -0.66197,3.561911 -0.7672,20.283798 l -0.11626,18.473833 h 23.42072 23.42073 l 1.15807,0.97445 c 2.40503,2.0237 2.45466,0.45607 -0.9454,29.864 -2.03647,17.614 -3.25503,26.92505 -3.61478,27.62073 -0.29848,0.5772 -1.062,1.36609 -1.6967,1.75309 -1.10838,0.67582 -1.95579,0.7037 -21.43018,0.70499 l -20.27616,0.001 -7.2e-4,70.20058 c -3.6e-4,66.1166 -0.0372,70.27327 -0.63082,71.44995 -0.34664,0.68715 -1.19798,1.5793 -1.89188,1.98255 -1.2381,0.71952 -1.80622,0.73427 -30.4593,0.79057 -16.05872,0.0315 -29.6843,-0.0622 -30.27907,-0.20838 z"
   style="opacity:0.98;fill:#707070;stroke-width:0.360465" /></svg>
