<?xml version="1.0" encoding="UTF-8" standalone="no"?>
<svg
   xmlns:dc="http://purl.org/dc/elements/1.1/"
   xmlns:cc="http://creativecommons.org/ns#"
   xmlns:rdf="http://www.w3.org/1999/02/22-rdf-syntax-ns#"
   xmlns:svg="http://www.w3.org/2000/svg"
   xmlns="http://www.w3.org/2000/svg"
   xmlns:sodipodi="http://sodipodi.sourceforge.net/DTD/sodipodi-0.dtd"
   xmlns:inkscape="http://www.inkscape.org/namespaces/inkscape"
   inkscape:version="1.0 (4035a4fb49, 2020-05-01)"
   sodipodi:docname="favorite_border.svg"
   id="svg6"
   version="1.1"
   width="24"
   viewBox="0 0 24 24"
   height="24">
  <metadata
     id="metadata12">
    <rdf:RDF>
      <cc:Work
         rdf:about="">
        <dc:format>image/svg+xml</dc:format>
        <dc:type
           rdf:resource="http://purl.org/dc/dcmitype/StillImage" />
      </cc:Work>
    </rdf:RDF>
  </metadata>
  <defs
     id="defs10" />
  <sodipodi:namedview
     inkscape:current-layer="svg6"
     inkscape:window-maximized="1"
     inkscape:window-y="-8"
     inkscape:window-x="-8"
     inkscape:cy="12"
     inkscape:cx="12"
     inkscape:zoom="35.833333"
     showgrid="false"
     id="namedview8"
     inkscape:window-height="1027"
     inkscape:window-width="1920"
     inkscape:pageshadow="2"
     inkscape:pageopacity="0"
     guidetolerance="10"
     gridtolerance="10"
     objecttolerance="10"
     borderopacity="1"
     bordercolor="#666666"
     pagecolor="#ffffff" />
  <path
     id="path2"
     fill="none"
     d="M0 0h24v24H0V0z" />
  <path
     id="path4"
     d="M16.5 3c-1.74 0-3.41.81-4.5 2.09C10.91 3.81 9.24 3 7.5 3 4.42 3 2 5.42 2 8.5c0 3.78 3.4 6.86 8.55 11.54L12 21.35l1.45-1.32C18.6 15.36 22 12.28 22 8.5 22 5.42 19.58 3 16.5 3zm-4.4 15.55l-.1.1-.1-.1C7.14 14.24 4 11.39 4 8.5 4 6.5 5.5 5 7.5 5c1.54 0 3.04.99 3.57 2.36h1.87C13.46 5.99 14.96 5 16.5 5c2 0 3.5 1.5 3.5 3.5 0 2.89-3.14 5.74-7.9 10.05z" />
  <path
     id="path837"
     d="M 11.274419,20.672968 C 7.1075858,16.895902 5.6837018,15.51106 4.4802755,14.065116 2.4351169,11.607812 1.6982041,9.4998257 2.1355145,7.3577777 2.612668,5.0205692 4.5463272,3.2858178 6.9448172,3.0431888 8.685022,2.8671513 10.523962,3.5613825 11.769616,4.8646329 l 0.230082,0.24072 0.244337,-0.2536266 c 1.250283,-1.297818 3.075891,-1.9840744 4.811148,-1.8085375 3.167763,0.320448 5.33503,3.1522443 4.863173,6.3543246 -0.207978,1.4113676 -0.904412,2.8099796 -2.210363,4.4389606 -0.684828,0.854221 -2.35993,2.58665 -3.731249,3.858945 -1.023714,0.94979 -3.943353,3.608103 -3.972663,3.617084 -0.0099,0.003 -0.338267,-0.284751 -0.729662,-0.639535 z m 0.767379,-2.031007 c 0.0095,-0.01529 0.427751,-0.401316 0.929554,-0.857828 1.908567,-1.736308 3.108728,-2.878237 3.904165,-3.714732 1.863586,-1.959782 2.744343,-3.325711 3.055438,-4.738549 0.08284,-0.3762084 0.09009,-1.2155263 0.01359,-1.5727125 C 19.64419,6.3557771 18.660081,5.3637388 17.268728,5.0607616 16.975446,4.9968975 16.10768,4.9890887 15.809302,5.0476285 14.588388,5.2871643 13.497153,6.1028118 13.032558,7.1231163 l -0.09767,0.2145044 -0.924809,9.573e-4 -0.924808,9.572e-4 -0.09791,-0.2061589 C 10.493188,6.0927857 9.4134606,5.287527 8.1906977,5.0476285 7.9345108,4.9973663 7.0248165,4.9966909 6.7953488,5.0465926 6.0725132,5.2037858 5.5151319,5.4885788 5.04276,5.9420746 4.5365223,6.4280833 4.2138345,7.0217372 4.0556163,7.7581395 c -0.07719,0.3592708 -0.070287,1.1976547 0.01295,1.5727125 0.2615853,1.178678 0.9057799,2.298856 2.1616388,3.758834 0.9539869,1.109041 2.2611539,2.384887 4.9515039,4.832858 0.417067,0.379493 0.766263,0.702865 0.775991,0.718605 0.02247,0.03636 0.06189,0.03674 0.0841,8.12e-4 z"
     style="opacity:0.98;fill:#ffffff;stroke-width:0.027907;fill-opacity:1;stroke:#ffffff;stroke-opacity:1" />
  <path
     id="path839"
     d="M 11.744911,21.068579 C 10.610214,20.071641 7.7572393,17.435267 6.8790698,16.572157 5.0593197,14.783614 4.2967311,13.914029 3.4935522,12.711628 2.4870147,11.204788 2.0382989,9.9183569 2.0382989,8.5395349 2.0382989,7.5211072 2.2705502,6.619056 2.7514396,5.7697356 3.4791496,4.4844942 4.7677342,3.522697 6.2149942,3.1845449 6.754925,3.0583902 7.0892048,3.0264677 7.6604651,3.046508 8.364955,3.071222 8.9207118,3.1806779 9.5382324,3.4163326 10.355844,3.7283451 11.011305,4.1523392 11.672519,4.7969266 l 0.328332,0.3200765 0.313528,-0.3070572 c 0.522577,-0.5117921 0.995375,-0.8516728 1.604045,-1.1531019 0.814798,-0.4035086 1.523357,-0.5815303 2.435064,-0.6117974 0.586598,-0.019474 0.979147,0.022596 1.522461,0.1631655 2.827764,0.7316141 4.530394,3.4669163 3.988792,6.4080585 -0.197056,1.0701004 -0.70296,2.1762104 -1.543369,3.3744274 -0.508106,0.724433 -0.981588,1.284138 -1.967647,2.325962 -1.144504,1.20923 -2.069306,2.089895 -4.790934,4.562284 -0.759768,0.69019 -1.420837,1.291841 -1.469043,1.337002 l -0.08765,0.08211 z m 1.450069,-3.465495 c 2.489468,-2.282983 3.558123,-3.328761 4.485152,-4.389131 1.257989,-1.438936 1.923051,-2.552289 2.221786,-3.7194026 0.07488,-0.2925326 0.08485,-0.3816804 0.09439,-0.8433876 0.01644,-0.7963088 -0.05448,-1.1670137 -0.333689,-1.7441861 -0.458067,-0.9468979 -1.215927,-1.5594074 -2.264758,-1.8303992 -0.224147,-0.057914 -0.31313,-0.064435 -0.89088,-0.065283 -0.584239,-8.581e-4 -0.664408,0.00491 -0.893024,0.064269 -1.157009,0.3004058 -2.152772,1.0805597 -2.583097,2.0237879 l -0.09597,0.2103625 -0.281537,9.572e-4 c -0.154845,5.274e-4 -0.564974,0.00921 -0.911398,0.019288 L 11.112087,7.3482896 11.008496,7.1415868 C 10.496223,6.1194078 9.5512833,5.3752464 8.3860465,5.0763489 8.1611213,5.0186529 8.0692895,5.0117949 7.5069767,5.0107002 6.8470418,5.0094154 6.7752843,5.0183809 6.3488372,5.155401 5.1999985,5.5245297 4.3984183,6.3849636 4.0823269,7.5883231 c -0.064774,0.2465941 -0.070377,0.3165438 -0.071717,0.8953978 -0.00162,0.7005637 0.022066,0.8702459 0.193954,1.3893773 0.3845953,1.1615418 1.179524,2.3479118 2.5933955,3.8704458 0.4551692,0.490151 1.6976922,1.717029 2.4671565,2.436091 1.3145891,1.228479 2.6944771,2.486165 2.7298641,2.488109 0.02026,0.0011 0.560263,-0.477984 1.2,-1.06466 z"
     style="opacity:0.98;fill:#ffffff;fill-opacity:1;stroke:#ffffff;stroke-width:0.027907;stroke-opacity:1" />
</svg>
