<?xml version="1.0" encoding="UTF-8" standalone="no"?>
<svg
   xmlns:dc="http://purl.org/dc/elements/1.1/"
   xmlns:cc="http://creativecommons.org/ns#"
   xmlns:rdf="http://www.w3.org/1999/02/22-rdf-syntax-ns#"
   xmlns:svg="http://www.w3.org/2000/svg"
   xmlns="http://www.w3.org/2000/svg"
   xmlns:sodipodi="http://sodipodi.sourceforge.net/DTD/sodipodi-0.dtd"
   xmlns:inkscape="http://www.inkscape.org/namespaces/inkscape"
   inkscape:version="1.0 (4035a4fb49, 2020-05-01)"
   sodipodi:docname="search.svg"
   id="svg6"
   version="1.1"
   width="24"
   viewBox="0 0 24 24"
   height="24">
  <metadata
     id="metadata12">
    <rdf:RDF>
      <cc:Work
         rdf:about="">
        <dc:format>image/svg+xml</dc:format>
        <dc:type
           rdf:resource="http://purl.org/dc/dcmitype/StillImage" />
      </cc:Work>
    </rdf:RDF>
  </metadata>
  <defs
     id="defs10" />
  <sodipodi:namedview
     inkscape:current-layer="svg6"
     inkscape:window-maximized="1"
     inkscape:window-y="-8"
     inkscape:window-x="-8"
     inkscape:cy="12"
     inkscape:cx="12"
     inkscape:zoom="35.833333"
     showgrid="false"
     id="namedview8"
     inkscape:window-height="1027"
     inkscape:window-width="1920"
     inkscape:pageshadow="2"
     inkscape:pageopacity="0"
     guidetolerance="10"
     gridtolerance="10"
     objecttolerance="10"
     borderopacity="1"
     bordercolor="#666666"
     pagecolor="#ffffff" />
  <path
     id="path2"
     fill="none"
     d="M0 0h24v24H0V0z" />
  <path
     id="path4"
     d="M15.5 14h-.79l-.28-.27C15.41 12.59 16 11.11 16 9.5 16 5.91 13.09 3 9.5 3S3 5.91 3 9.5 5.91 16 9.5 16c1.61 0 3.09-.59 4.23-1.57l.27.28v.79l5 4.99L20.49 19l-4.99-5zm-6 0C7.01 14 5 11.99 5 9.5S7.01 5 9.5 5 14 7.01 14 9.5 11.99 14 9.5 14z" />
  <path
     id="path837"
     d="m 16.499942,17.965058 -2.49064,-2.490756 v -0.391688 -0.391689 l -0.133516,-0.131509 c -0.07343,-0.07233 -0.142184,-0.131509 -0.152776,-0.131509 -0.01059,0 -0.116905,0.07855 -0.236251,0.174552 -0.836817,0.673151 -1.956607,1.151594 -3.09141,1.32084 -0.4635018,0.06913 -1.329121,0.06938 -1.7860467,5.22e-4 C 7.1710593,15.707079 5.9336166,15.087342 4.9255814,14.078937 3.915315,13.0683 3.3020407,11.849713 3.0787756,10.409302 3.0034731,9.9234832 3.0104873,8.9818934 3.0930158,8.4976744 3.2873924,7.3572109 3.7325433,6.3455196 4.4306665,5.4576053 4.6267014,5.2082764 5.1993181,4.636269 5.4576053,4.431759 6.3524174,3.7232533 7.4321682,3.2560153 8.5813953,3.0800091 9.043668,3.0092112 9.9902774,3.0088891 10.423256,3.0793824 12.10359,3.352958 13.547272,4.1807832 14.5621,5.4526482 c 0.716598,0.898099 1.183991,1.9816956 1.361573,3.1566541 0.06803,0.4501094 0.06895,1.3228329 0.0019,1.7720927 -0.1663,1.11379 -0.587808,2.12875 -1.243059,2.99319 -0.116996,0.154348 -0.225054,0.297258 -0.24013,0.317579 -0.02014,0.02714 0.0092,0.07412 0.110579,0.177043 l 0.137989,0.140095 h 0.391805 0.391805 l 2.497486,2.497603 2.497486,2.497603 -0.72525,0.725653 c -0.398887,0.399109 -0.731646,0.725653 -0.739463,0.725653 -0.0078,0 -1.135001,-1.12084 -2.504852,-2.490756 z m -6.104593,-4.039457 c 1.105852,-0.233959 2.042305,-0.828269 2.721196,-1.726979 0.387875,-0.513466 0.666803,-1.136887 0.813055,-1.817227 0.05408,-0.251576 0.06299,-0.375916 0.06299,-0.8790694 0,-0.6550008 -0.03856,-0.909751 -0.220261,-1.4550285 C 13.334235,6.7325657 12.26562,5.6643148 10.946485,5.2224136 10.421031,5.04639 10.180766,5.0112605 9.5023256,5.0112605 c -0.5300096,0 -0.6527369,0.00846 -0.8976101,0.061853 C 6.7934581,5.4680688 5.4590843,6.7957906 5.0788563,8.5813953 5.0038535,8.9336191 4.973732,9.6969748 5.0204932,10.060465 c 0.2638313,2.05085 1.8460276,3.637463 3.9097394,3.920652 0.3141041,0.0431 1.1484004,0.01149 1.4651164,-0.05552 z"
     style="opacity:0.98;fill:#fffffe;stroke-width:0.027907;fill-opacity:1;stroke:#ffffff;stroke-opacity:0.99598396" />
  <path
     id="path847"
     d="m 16.499942,17.937151 -2.49064,-2.490756 v -0.391806 -0.391805 l -0.119661,-0.117439 c -0.06581,-0.06459 -0.138022,-0.117321 -0.160465,-0.117178 -0.02244,1.39e-4 -0.188293,0.110985 -0.368557,0.246315 -0.822453,0.617444 -1.809936,1.036406 -2.882748,1.223074 -0.21228,0.03694 -0.442555,0.04856 -0.9755454,0.04924 -0.7805813,9.94e-4 -1.04712,-0.03279 -1.71756,-0.217679 C 5.0025699,14.961846 3.024028,12.372284 3.0370431,9.5151848 3.0437203,8.049406 3.498805,6.7129072 4.389765,5.5424935 4.6296806,5.2273274 5.2812977,4.5849963 5.6070187,4.3425865 6.5577929,3.6349967 7.6962826,3.1842044 8.8186047,3.0709388 9.2915015,3.0232137 9.56641,3.0164395 9.8910301,3.0445127 c 0.2224819,0.01924 0.3102709,0.01782 0.3245289,-0.00525 0.01137,-0.018401 0.02387,-0.020339 0.0299,-0.00463 0.0057,0.014844 0.17989,0.060729 0.387099,0.1019651 0.472419,0.094015 0.859354,0.2049663 1.231307,0.3530692 2.071733,0.8249162 3.538215,2.5899077 3.987115,4.7987098 0.125085,0.6154786 0.143958,1.5991443 0.04229,2.2042622 -0.1774,1.055894 -0.579884,1.996951 -1.22976,2.875334 -0.129584,0.175147 -0.235606,0.334867 -0.235606,0.354934 0,0.02007 0.05183,0.09272 0.115182,0.161442 l 0.115182,0.124958 h 0.394179 0.394179 l 2.497484,2.497601 2.497484,2.497601 -0.711291,0.711702 c -0.39121,0.391435 -0.717689,0.711701 -0.725508,0.711701 -0.0078,0 -1.135005,-1.12084 -2.504856,-2.490756 z M 9.9071562,13.984885 c 1.116e-4,-0.0096 0.097425,-0.01937 0.2162788,-0.02173 0.500772,-0.0099 1.306739,-0.309348 1.892006,-0.702891 0.641302,-0.431222 1.191689,-1.051691 1.526376,-1.720732 0.137257,-0.274379 0.28116,-0.672805 0.372938,-1.032558 0.07486,-0.293451 0.07832,-0.335873 0.07841,-0.962791 C 13.993278,8.7890506 13.972037,8.6303693 13.800772,8.1069767 13.330586,6.6700778 12.214657,5.5818387 10.772093,5.1534485 10.343924,5.0262975 10.232403,5.0140245 9.4883721,5.0121746 8.7941168,5.0104486 8.7692604,5.0123421 8.4701855,5.0897182 7.6248516,5.3084231 6.940358,5.6829484 6.3583923,6.2451999 5.7433821,6.8393763 5.3440103,7.5182788 5.1208874,8.348866 5.0277981,8.6953956 5.0102617,8.8907553 5.0098323,9.5860465 c -2.886e-4,0.4671745 0.010111,0.6341615 0.051271,0.8232555 0.1276093,0.586253 0.4132479,1.240374 0.7518014,1.721648 0.2601533,0.369824 0.7532649,0.848568 1.1378093,1.104656 0.5351375,0.356377 1.0642965,0.577922 1.6828809,0.704579 0.2539465,0.052 0.398386,0.06346 0.7919863,0.06287 0.2647674,-3.99e-4 0.481476,-0.0086 0.481575,-0.01817 z"
     style="opacity:0.98;fill:#fffffe;fill-opacity:1;stroke:#ffffff;stroke-width:0.027907;stroke-opacity:0.995984" />
</svg>
