<?xml version="1.0" encoding="UTF-8" standalone="no"?>
<svg
   xmlns:dc="http://purl.org/dc/elements/1.1/"
   xmlns:cc="http://creativecommons.org/ns#"
   xmlns:rdf="http://www.w3.org/1999/02/22-rdf-syntax-ns#"
   xmlns:svg="http://www.w3.org/2000/svg"
   xmlns="http://www.w3.org/2000/svg"
   xmlns:sodipodi="http://sodipodi.sourceforge.net/DTD/sodipodi-0.dtd"
   xmlns:inkscape="http://www.inkscape.org/namespaces/inkscape"
   inkscape:version="1.0 (4035a4fb49, 2020-05-01)"
   sodipodi:docname="twitter.svg"
   id="svg6"
   preserveAspectRatio="xMidYMid"
   version="1.1"
   viewBox="0 0 256 209"
   height="209px"
   width="256px">
  <metadata
     id="metadata12">
    <rdf:RDF>
      <cc:Work
         rdf:about="">
        <dc:format>image/svg+xml</dc:format>
        <dc:type
           rdf:resource="http://purl.org/dc/dcmitype/StillImage" />
      </cc:Work>
    </rdf:RDF>
  </metadata>
  <defs
     id="defs10" />
  <sodipodi:namedview
     inkscape:current-layer="svg6"
     inkscape:window-maximized="1"
     inkscape:window-y="-8"
     inkscape:window-x="-8"
     inkscape:cy="141.5859"
     inkscape:cx="73.509503"
     inkscape:zoom="4.1148325"
     showgrid="false"
     id="namedview8"
     inkscape:window-height="1027"
     inkscape:window-width="1920"
     inkscape:pageshadow="2"
     inkscape:pageopacity="0"
     guidetolerance="10"
     gridtolerance="10"
     objecttolerance="10"
     borderopacity="1"
     bordercolor="#666666"
     pagecolor="#ffffff"
     inkscape:document-rotation="0" />
  <g
     id="g4">
    <path
       style="stroke:none;stroke-opacity:1;stroke-width:5;stroke-miterlimit:4;stroke-dasharray:none"
       id="path2"
       fill="#55acee"
       d="M256,25.4500259 C246.580841,29.6272672 236.458451,32.4504868 225.834156,33.7202333 C236.678503,27.2198053 245.00583,16.9269929 248.927437,4.66307685 C238.779765,10.6812633 227.539325,15.0523376 215.57599,17.408298 C205.994835,7.2006971 192.34506,0.822 177.239197,0.822 C148.232605,0.822 124.716076,24.3375931 124.716076,53.3423116 C124.716076,57.4586875 125.181462,61.4673784 126.076652,65.3112644 C82.4258385,63.1210453 43.7257252,42.211429 17.821398,10.4359288 C13.3005011,18.1929938 10.710443,27.2151234 10.710443,36.8402889 C10.710443,55.061526 19.9835254,71.1374907 34.0762135,80.5557137 C25.4660961,80.2832239 17.3681846,77.9207088 10.2862577,73.9869292 C10.2825122,74.2060448 10.2825122,74.4260967 10.2825122,74.647085 C10.2825122,100.094453 28.3867003,121.322443 52.413563,126.14673 C48.0059695,127.347184 43.3661509,127.988612 38.5755734,127.988612 C35.1914554,127.988612 31.9009766,127.659938 28.694773,127.046602 C35.3777973,147.913145 54.7742053,163.097665 77.7569918,163.52185 C59.7820257,177.607983 37.1354036,186.004604 12.5289147,186.004604 C8.28987161,186.004604 4.10888474,185.75646 0,185.271409 C23.2431033,200.173139 50.8507261,208.867532 80.5109185,208.867532 C177.116529,208.867532 229.943977,128.836982 229.943977,59.4326002 C229.943977,57.1552968 229.893412,54.8901664 229.792282,52.6381454 C240.053257,45.2331635 248.958338,35.9825545 256,25.4500259" />
  </g>
  <path
     id="path837"
     d="m 73.562791,208.59505 c -25.435084,-1.37054 -48.328244,-8.31706 -69.7973623,-21.17878 -1.6981129,-1.01731 -3.06067759,-1.87645 -3.02792151,-1.9092 0.0327561,-0.0328 1.14872011,0.0642 2.47992011,0.21557 3.815287,0.4337 15.5881437,0.35377 20.0395497,-0.13605 19.22963,-2.11601 37.220883,-9.02571 51.763953,-19.88042 l 3.037791,-2.26736 -2.753488,-0.1749 c -6.861312,-0.43585 -13.63237,-2.26438 -19.819657,-5.35231 -10.245326,-5.11321 -18.289347,-13.07297 -23.40032,-23.1552 -1.600675,-3.1576 -3.16949,-7.07643 -2.929118,-7.3168 0.0822,-0.0822 1.112417,-4.9e-4 2.289386,0.18135 2.683227,0.41478 11.887278,0.42663 14.412616,0.0186 2.679674,-0.43301 6.561627,-1.32059 6.561627,-1.50026 0,-0.0858 -0.683502,-0.29676 -1.518895,-0.46886 -3.977843,-0.81948 -9.518509,-2.99183 -13.79157,-5.40734 -15.024998,-8.49342 -24.788736,-23.576455 -26.47423,-40.897419 -0.255945,-2.630222 -0.337789,-5.000525 -0.172661,-5.000525 0.04712,0 1.26371,0.555683 2.703542,1.234848 3.377195,1.593017 8.357308,3.25159 11.972114,3.987183 2.883616,0.586799 8.287929,1.230737 8.825421,1.051573 0.15989,-0.0533 -0.633868,-0.768651 -1.763904,-1.589676 C 30.024365,77.468642 27.224295,74.961116 24.923147,72.532828 13.526583,60.506603 8.6296293,43.278077 11.855952,26.559657 12.733553,22.012032 14.733483,16.439679 17.007354,12.206439 l 0.818814,-1.524376 2.55659,2.982515 c 25.522528,29.774541 62.484732,48.502589 101.609402,51.483556 2.10903,0.160689 3.89856,0.228198 3.97674,0.150018 0.0782,-0.07818 -0.03,-1.104847 -0.24034,-2.281485 -3.17492,-17.758274 2.49169,-35.217157 15.45179,-47.607088 10.18528,-9.7371972 23.78227,-14.87887369 37.97605,-14.36057 13.09564,0.4782042 25.59753,5.8104799 34.56077,14.740779 l 1.75265,1.746198 1.40666,-0.280638 c 9.22461,-1.840372 20.22992,-5.915624 29.17207,-10.8023816 1.37004,-0.74871 2.49098,-1.252119 2.49098,-1.1186873 0,0.3266604 -1.20901,3.3397354 -2.28225,5.6877829 -3.69899,8.092709 -10.62928,16.052634 -18.61558,21.381322 -1.25715,0.838805 -1.87445,1.375842 -1.57965,1.374275 0.77028,-0.0041 6.33167,-0.900909 8.98969,-1.449648 5.41032,-1.11694 11.29672,-2.885987 16.73276,-5.028723 1.85157,-0.729835 3.41173,-1.281746 3.467,-1.226465 0.13609,0.136091 -2.39604,3.673974 -4.65042,6.497528 -5.45104,6.827264 -11.76136,13.015723 -18.52526,18.167488 l -2.24685,1.711328 -0.0963,7.98094 c -0.12534,10.388729 -0.84978,17.606738 -2.70791,26.980566 -6.83845,34.498347 -25.14784,65.917577 -51.15849,87.788827 -22.02507,18.51995 -48.88478,29.69169 -78.608712,32.69567 -7.222955,0.72997 -17.50173,1.03358 -23.694767,0.69988 z"
     style="opacity:0.98;fill:#707070;stroke-width:0.243023" />
  <path
     style="opacity:0.98;fill:#55acee;stroke:#ffffff;stroke-width:1;stroke-miterlimit:4;stroke-dasharray:none;fill-opacity:1"
     d="M 69.996482,208.26967 C 52.42184,206.8092 36.343851,202.86573 21.434301,196.35878 15.681662,193.84816 5.2882714,188.39945 2.1139524,186.23013 l -0.8505814,-0.58128 1.9441861,0.19273 c 1.0693023,0.106 5.5530814,0.17964 9.9639539,0.16365 6.628903,-0.024 8.698911,-0.11781 11.935735,-0.54065 9.64281,-1.2597 18.030585,-3.39622 26.583451,-6.77129 8.95609,-3.53418 16.039175,-7.46679 23.922062,-13.2818 l 2.681871,-1.97835 -2.062139,-0.18616 c -3.992105,-0.36039 -7.587361,-0.93066 -10.336946,-1.63961 -12.715623,-3.27859 -24.052707,-11.40906 -31.002292,-22.23353 -1.933571,-3.01167 -5.000695,-9.27279 -5.454801,-11.13523 l -0.167073,-0.68522 2.400066,0.19918 c 1.320036,0.10954 4.915357,0.19162 7.989601,0.18239 4.714418,-0.0142 6.008069,-0.0996 8.262791,-0.546 3.332434,-0.65971 4.49593,-0.98194 4.49593,-1.24513 0,-0.11299 -0.792864,-0.39736 -1.761919,-0.63195 -4.648425,-1.12529 -11.118404,-3.84418 -15.227893,-6.39925 -5.080882,-3.15902 -10.377486,-7.9045 -13.827628,-12.38882 C 15.080373,98.246912 11.182469,87.871202 10.694175,77.68774 l -0.149483,-3.11749 0.827363,0.35773 c 0.45505,0.196754 1.483525,0.656311 2.285502,1.021242 2.165356,0.985321 6.481135,2.496383 8.996816,3.150011 4.253456,1.105141 11.295626,1.954043 11.295626,1.361635 0,-0.122568 -0.956904,-0.965762 -2.126453,-1.873765 -2.667744,-2.071156 -7.424792,-6.68601 -9.362303,-9.082452 -4.642308,-5.741916 -8.430029,-13.575496 -10.129031,-20.948369 -1.682873,-7.302886 -1.646857,-16.758724 0.09099,-23.889422 0.822042,-3.372983 2.327222,-7.502651 3.97657,-10.910264 l 1.39561,-2.883381 2.298412,2.643915 c 6.090539,7.006088 11.961094,12.757963 18.473646,18.100188 22.79834,18.701393 50.466788,30.260444 79.64533,33.273437 2.56996,0.265376 5.38599,0.4825 6.25785,0.4825 1.86069,0 1.80381,0.155854 1.19741,-3.280814 -0.60273,-3.415925 -0.73014,-11.944308 -0.23235,-15.553488 1.5514,-11.248351 6.35641,-21.17111 14.21836,-29.362144 8.54134,-8.8988615 19.79852,-14.4280603 32.03222,-15.7332957 3.9105,-0.4172182 11.07808,-0.1771919 14.63932,0.4902384 5.30369,0.9939909 9.84029,2.5026997 14.45989,4.8088305 4.76769,2.3800619 8.24817,4.8403978 12.17589,8.6070818 l 2.45496,2.354308 2.16248,-0.479949 c 8.85109,-1.964444 17.3912,-5.05178 26.19358,-9.4692422 2.39041,-1.1996293 4.39744,-2.1299114 4.46007,-2.0672936 0.15571,0.1557184 -2.23435,5.7320218 -3.29124,7.6787908 -1.14627,2.111451 -3.3536,5.427629 -5.0535,7.592138 -2.11267,2.690081 -6.9691,7.385692 -9.81794,9.49283 -1.40346,1.038062 -2.93451,2.206248 -3.40233,2.595969 l -0.85058,0.708583 0.7833,0.01222 c 1.3232,0.02063 9.02331,-1.380061 12.59929,-2.291891 3.17298,-0.809068 10.31449,-3.138587 14.01828,-4.572675 0.90223,-0.349336 1.64041,-0.547657 1.64041,-0.440715 0,0.322113 -3.55742,5.064845 -6.03555,8.046568 -4.40388,5.298792 -11.69016,12.229052 -17.4444,16.592039 -1.10471,0.837613 -1.52591,1.324761 -1.64041,1.897268 -0.0847,0.423657 -0.15512,3.189887 -0.15641,6.147176 -0.005,11.434507 -0.95123,20.363023 -3.29951,31.133646 -7.83137,35.919466 -28.28486,68.378106 -56.36035,89.441006 -7.55477,5.66777 -13.9872,9.60958 -22.60116,13.85005 -16.29424,8.0213 -33.01665,12.61962 -52.614537,14.46792 -3.555414,0.33531 -21.442686,0.50273 -24.709332,0.23126 z"
     id="path832" />
</svg>
