<?xml version="1.0" encoding="UTF-8" standalone="no"?>
<svg
   xmlns:dc="http://purl.org/dc/elements/1.1/"
   xmlns:cc="http://creativecommons.org/ns#"
   xmlns:rdf="http://www.w3.org/1999/02/22-rdf-syntax-ns#"
   xmlns:svg="http://www.w3.org/2000/svg"
   xmlns="http://www.w3.org/2000/svg"
   xmlns:sodipodi="http://sodipodi.sourceforge.net/DTD/sodipodi-0.dtd"
   xmlns:inkscape="http://www.inkscape.org/namespaces/inkscape"
   inkscape:version="1.0 (4035a4fb49, 2020-05-01)"
   sodipodi:docname="search.svg"
   id="svg6"
   version="1.1"
   width="24"
   viewBox="0 0 24 24"
   height="24">
  <metadata
     id="metadata12">
    <rdf:RDF>
      <cc:Work
         rdf:about="">
        <dc:format>image/svg+xml</dc:format>
        <dc:type
           rdf:resource="http://purl.org/dc/dcmitype/StillImage" />
      </cc:Work>
    </rdf:RDF>
  </metadata>
  <defs
     id="defs10" />
  <sodipodi:namedview
     inkscape:current-layer="svg6"
     inkscape:window-maximized="1"
     inkscape:window-y="-8"
     inkscape:window-x="-8"
     inkscape:cy="12"
     inkscape:cx="12"
     inkscape:zoom="35.833333"
     showgrid="false"
     id="namedview8"
     inkscape:window-height="1027"
     inkscape:window-width="1920"
     inkscape:pageshadow="2"
     inkscape:pageopacity="0"
     guidetolerance="10"
     gridtolerance="10"
     objecttolerance="10"
     borderopacity="1"
     bordercolor="#666666"
     pagecolor="#ffffff" />
  <path
     id="path2"
     fill="none"
     d="M0 0h24v24H0V0z" />
  <path
     id="path4"
     d="M15.5 14h-.79l-.28-.27C15.41 12.59 16 11.11 16 9.5 16 5.91 13.09 3 9.5 3S3 5.91 3 9.5 5.91 16 9.5 16c1.61 0 3.09-.59 4.23-1.57l.27.28v.79l5 4.99L20.49 19l-4.99-5zm-6 0C7.01 14 5 11.99 5 9.5S7.01 5 9.5 5 14 7.01 14 9.5 11.99 14 9.5 14z" />
  <path
     id="path837"
     d="m 16.499942,17.965058 -2.49064,-2.490756 v -0.391688 -0.391689 l -0.133516,-0.131509 c -0.07343,-0.07233 -0.142184,-0.131509 -0.152776,-0.131509 -0.01059,0 -0.116905,0.07855 -0.236251,0.174552 -0.836817,0.673151 -1.956607,1.151594 -3.09141,1.32084 -0.4635018,0.06913 -1.329121,0.06938 -1.7860467,5.22e-4 C 7.1710593,15.707079 5.9336166,15.087342 4.9255814,14.078937 3.915315,13.0683 3.3020407,11.849713 3.0787756,10.409302 3.0034731,9.9234832 3.0104873,8.9818934 3.0930158,8.4976744 3.2873924,7.3572109 3.7325433,6.3455196 4.4306665,5.4576053 4.6267014,5.2082764 5.1993181,4.636269 5.4576053,4.431759 6.3524174,3.7232533 7.4321682,3.2560153 8.5813953,3.0800091 9.043668,3.0092112 9.9902774,3.0088891 10.423256,3.0793824 12.10359,3.352958 13.547272,4.1807832 14.5621,5.4526482 c 0.716598,0.898099 1.183991,1.9816956 1.361573,3.1566541 0.06803,0.4501094 0.06895,1.3228329 0.0019,1.7720927 -0.1663,1.11379 -0.587808,2.12875 -1.243059,2.99319 -0.116996,0.154348 -0.225054,0.297258 -0.24013,0.317579 -0.02014,0.02714 0.0092,0.07412 0.110579,0.177043 l 0.137989,0.140095 h 0.391805 0.391805 l 2.497486,2.497603 2.497486,2.497603 -0.72525,0.725653 c -0.398887,0.399109 -0.731646,0.725653 -0.739463,0.725653 -0.0078,0 -1.135001,-1.12084 -2.504852,-2.490756 z m -6.104593,-4.039457 c 1.105852,-0.233959 2.042305,-0.828269 2.721196,-1.726979 0.387875,-0.513466 0.666803,-1.136887 0.813055,-1.817227 0.05408,-0.251576 0.06299,-0.375916 0.06299,-0.8790694 0,-0.6550008 -0.03856,-0.909751 -0.220261,-1.4550285 C 13.334235,6.7325657 12.26562,5.6643148 10.946485,5.2224136 10.421031,5.04639 10.180766,5.0112605 9.5023256,5.0112605 c -0.5300096,0 -0.6527369,0.00846 -0.8976101,0.061853 C 6.7934581,5.4680688 5.4590843,6.7957906 5.0788563,8.5813953 5.0038535,8.9336191 4.973732,9.6969748 5.0204932,10.060465 c 0.2638313,2.05085 1.8460276,3.637463 3.9097394,3.920652 0.3141041,0.0431 1.1484004,0.01149 1.4651164,-0.05552 z"
     style="opacity:0.98;fill:#f2f2f2;stroke:#ffffff;stroke-width:0.05;fill-opacity:1;stroke-opacity:1;stroke-miterlimit:4;stroke-dasharray:none" />
  <path
     id="path847"
     d="M 16.513895,17.923197 14.037209,15.446395 V 15.052598 14.6588 L 13.89887,14.5294 c -0.07609,-0.07117 -0.154575,-0.129288 -0.174419,-0.129151 -0.01984,1.4e-4 -0.117707,0.06445 -0.217474,0.142918 -0.833824,0.655803 -1.842976,1.109009 -2.927005,1.314505 -0.283611,0.05376 -0.418408,0.06147 -1.0776464,0.06165 -0.8173769,2.24e-4 -0.9671774,-0.0167 -1.600459,-0.180762 C 6.4334542,15.35815 5.199774,14.515423 4.2747095,13.260843 3.7110334,12.496382 3.3363033,11.604176 3.1345795,10.546274 3.0613941,10.162467 3.0625424,8.8436193 3.1364115,8.4420731 3.3283522,7.3986996 3.7454548,6.434076 4.3612993,5.6093023 4.6125421,5.2728238 5.2643955,4.6221448 5.6094494,4.3634009 6.4246783,3.7520892 7.3602971,3.3437322 8.3967723,3.1468558 c 0.2841424,-0.053972 0.4188946,-0.06167 1.0915998,-0.062354 0.8177199,-8.32e-4 0.9308349,0.010672 1.5069769,0.1532609 1.172083,0.2900779 2.151758,0.8298698 3.010321,1.6586584 1.043774,1.0075767 1.743344,2.4493541 1.904392,3.9248512 0.04224,0.3869863 0.01656,1.3820487 -0.04422,1.7136117 -0.197793,1.078963 -0.582238,1.964319 -1.239608,2.854746 C 14.501805,13.558172 14.4,13.708678 14.4,13.724087 c 0,0.01541 0.05767,0.09216 0.128168,0.170569 l 0.128167,0.142553 h 0.395147 0.395147 l 2.483528,2.483646 2.483528,2.483645 -0.697331,0.69775 C 19.332822,20.086013 19.012624,20.4 19.004802,20.4 c -0.0078,0 -1.12873,-1.114561 -2.490907,-2.476803 z m -6.17436,-3.955746 c 0.138139,-0.02435 0.400015,-0.09397 0.581946,-0.154703 1.56338,-0.521914 2.691689,-1.796956 3.048816,-3.445306 0.06736,-0.310913 0.06943,-1.3411335 0.0034,-1.7023257 -0.105777,-0.5787882 -0.413402,-1.3004417 -0.7673,-1.8 C 12.966746,6.5267964 12.480062,6.0397167 12.139535,5.7973633 11.645091,5.4454679 10.889334,5.1220232 10.325581,5.0210382 9.9955621,4.9619219 8.922802,4.9690865 8.6232558,5.0324075 7.0169347,5.3719675 5.7356272,6.4877076 5.2065962,8.0075746 5.0422901,8.4796136 4.9943925,8.7647163 4.9765739,9.3767442 c -0.018541,0.6368368 0.029041,1.0005438 0.1986098,1.5181448 0.5547928,1.693476 1.9529784,2.852956 3.7690023,3.12554 0.1786231,0.02681 1.152482,-0.01016 1.395349,-0.05298 z"
     style="opacity:0.98;fill:#ffffff;fill-opacity:1;stroke:#ffffff;stroke-width:0.05;stroke-miterlimit:4;stroke-dasharray:none;stroke-opacity:1" />
</svg>
