<?xml version="1.0" encoding="UTF-8" standalone="no"?>
<svg
   xmlns:dc="http://purl.org/dc/elements/1.1/"
   xmlns:cc="http://creativecommons.org/ns#"
   xmlns:rdf="http://www.w3.org/1999/02/22-rdf-syntax-ns#"
   xmlns:svg="http://www.w3.org/2000/svg"
   xmlns="http://www.w3.org/2000/svg"
   xmlns:sodipodi="http://sodipodi.sourceforge.net/DTD/sodipodi-0.dtd"
   xmlns:inkscape="http://www.inkscape.org/namespaces/inkscape"
   inkscape:version="1.0 (4035a4fb49, 2020-05-01)"
   sodipodi:docname="shopping_cart.svg"
   id="svg6"
   version="1.1"
   width="24"
   viewBox="0 0 24 24"
   height="24">
  <metadata
     id="metadata12">
    <rdf:RDF>
      <cc:Work
         rdf:about="">
        <dc:format>image/svg+xml</dc:format>
        <dc:type
           rdf:resource="http://purl.org/dc/dcmitype/StillImage" />
      </cc:Work>
    </rdf:RDF>
  </metadata>
  <defs
     id="defs10" />
  <sodipodi:namedview
     inkscape:current-layer="svg6"
     inkscape:window-maximized="1"
     inkscape:window-y="-8"
     inkscape:window-x="-8"
     inkscape:cy="12"
     inkscape:cx="12"
     inkscape:zoom="35.833333"
     showgrid="false"
     id="namedview8"
     inkscape:window-height="1027"
     inkscape:window-width="1920"
     inkscape:pageshadow="2"
     inkscape:pageopacity="0"
     guidetolerance="10"
     gridtolerance="10"
     objecttolerance="10"
     borderopacity="1"
     bordercolor="#666666"
     pagecolor="#ffffff" />
  <path
     id="path2"
     fill="none"
     d="M0 0h24v24H0V0z" />
  <path
     id="path4"
     d="M17 18c-1.1 0-1.99.9-1.99 2s.89 2 1.99 2 2-.9 2-2-.9-2-2-2zM7 18c-1.1 0-1.99.9-1.99 2S5.9 22 7 22s2-.9 2-2-.9-2-2-2zm0-3l1.1-2h7.45c.75 0 1.41-.41 1.75-1.03L21.7 4H5.21l-.94-2H1v2h2l3.6 7.59L3.62 17H19v-2H7z" />
  <path
     id="path837"
     d="m 3.655814,16.982744 c 0,-0.0069 0.6662271,-1.221933 1.480505,-2.7 l 1.480505,-2.687395 -0.064226,-0.1389 C 6.5172737,11.380055 5.7082097,9.6721476 4.754678,7.6611006 L 3.020984,4.0046512 2.0128175,3.9973263 1.0046512,3.9900015 V 2.9996519 2.0093023 h 1.6267292 1.6267292 l 0.4705766,1.0046512 0.4705764,1.0046512 h 8.2282754 c 4.525552,0 8.228276,0.00592 8.228276,0.013162 0,0.01658 -4.233074,7.6892283 -4.388453,7.9542803 -0.198332,0.338323 -0.501275,0.620824 -0.8515,0.794042 -0.399341,0.19751 -0.03374,0.181164 -4.398462,0.196655 L 8.0859617,12.990698 7.5329484,13.995349 6.9799348,15 l 5.9984042,0.007 5.998405,0.007 v 0.990634 0.990634 h -7.660465 c -4.2132557,0 -7.660465,-0.0057 -7.660465,-0.01261 z"
     style="opacity:0.98;fill:#ffffff;stroke:#ffffff;stroke-width:0.1;stroke-miterlimit:4;stroke-dasharray:none" />
  <path
     id="path839"
     d="m 16.628531,21.950438 c -0.840809,-0.176178 -1.468618,-0.855675 -1.586578,-1.717203 -0.130292,-0.9516 0.522296,-1.906367 1.470592,-2.151545 0.24398,-0.06308 0.663371,-0.07628 0.87968,-0.02769 0.405094,0.091 0.764576,0.297373 1.049561,0.602532 1.01026,1.081777 0.530608,2.809064 -0.902251,3.249118 -0.251057,0.0771 -0.660669,0.09724 -0.911004,0.04479 z"
     style="opacity:0.98;fill:#ffffff;stroke:#ffffff;stroke-width:0.1;stroke-miterlimit:4;stroke-dasharray:none" />
  <path
     id="path841"
     d="M 6.6910712,21.963727 C 6.2671374,21.886405 5.9463984,21.714744 5.6215371,21.391307 5.3437761,21.114764 5.2174259,20.90739 5.1025636,20.539535 c -0.054826,-0.175585 -0.064922,-0.265499 -0.062669,-0.55814 0.00228,-0.296768 0.013633,-0.382161 0.07603,-0.572093 0.2244781,-0.683294 0.7908508,-1.197827 1.4918504,-1.355301 0.2161464,-0.04856 0.635703,-0.03539 0.879296,0.02759 0.6530049,0.168836 1.1782466,0.665325 1.4046017,1.327711 0.066422,0.194371 0.07656,0.26839 0.078356,0.572093 0.00172,0.291501 -0.00868,0.383239 -0.063291,0.55814 -0.1133275,0.36294 -0.2425878,0.574827 -0.519806,0.852082 -0.3860268,0.386079 -0.7802837,0.561864 -1.3125142,0.585204 -0.1381395,0.0061 -0.3106458,1.68e-4 -0.3833474,-0.01309 z"
     style="opacity:0.98;fill:#ffffff;stroke:#ffffff;stroke-width:0.4;stroke-miterlimit:4;stroke-dasharray:none" />
</svg>
