<?xml version="1.0" encoding="UTF-8" standalone="no"?>
<svg
   xmlns:dc="http://purl.org/dc/elements/1.1/"
   xmlns:cc="http://creativecommons.org/ns#"
   xmlns:rdf="http://www.w3.org/1999/02/22-rdf-syntax-ns#"
   xmlns:svg="http://www.w3.org/2000/svg"
   xmlns="http://www.w3.org/2000/svg"
   xmlns:sodipodi="http://sodipodi.sourceforge.net/DTD/sodipodi-0.dtd"
   xmlns:inkscape="http://www.inkscape.org/namespaces/inkscape"
   inkscape:version="1.0 (4035a4fb49, 2020-05-01)"
   sodipodi:docname="arrow_forward.svg"
   id="svg6"
   version="1.1"
   width="24"
   viewBox="0 0 24 24"
   height="24">
  <metadata
     id="metadata12">
    <rdf:RDF>
      <cc:Work
         rdf:about="">
        <dc:format>image/svg+xml</dc:format>
        <dc:type
           rdf:resource="http://purl.org/dc/dcmitype/StillImage" />
      </cc:Work>
    </rdf:RDF>
  </metadata>
  <defs
     id="defs10" />
  <sodipodi:namedview
     inkscape:current-layer="svg6"
     inkscape:window-maximized="1"
     inkscape:window-y="-8"
     inkscape:window-x="-8"
     inkscape:cy="12"
     inkscape:cx="12"
     inkscape:zoom="35.833333"
     showgrid="false"
     id="namedview8"
     inkscape:window-height="1027"
     inkscape:window-width="1920"
     inkscape:pageshadow="2"
     inkscape:pageopacity="0"
     guidetolerance="10"
     gridtolerance="10"
     objecttolerance="10"
     borderopacity="1"
     bordercolor="#666666"
     pagecolor="#ffffff" />
  <path
     id="path2"
     fill="none"
     d="M0 0h24v24H0V0z" />
  <path
     id="path4"
     d="M12 4l-1.41 1.41L16.17 11H4v2h12.17l-5.58 5.59L12 20l8-8-8-8z" />
  <path
     id="path837"
     d="m 11.302245,19.269687 -0.683374,-0.683802 2.783588,-2.783692 c 1.530973,-1.531031 2.783588,-2.793088 2.783588,-2.804571 0,-0.01148 -2.737675,-0.02088 -6.083721,-0.02088 H 4.0186047 V 12 11.023256 h 6.0837213 c 3.346046,0 6.083721,-0.0094 6.083721,-0.02088 0,-0.01148 -1.252647,-1.2735722 -2.78366,-2.8046425 l -2.78366,-2.7837639 0.690666,-0.6906654 0.690665,-0.6906654 3.983668,3.9836673 3.983667,3.9836669 -3.976683,3.976757 c -2.187176,2.187216 -3.983075,3.976756 -3.990887,3.976756 -0.0078,0 -0.321722,-0.30771 -0.697578,-0.683801 z"
     style="opacity:0.98;fill:#00ffff;stroke:#ffffff;stroke-width:0.027907" />
  <path
     id="path857"
     d="m 11.343276,19.255509 c -0.352523,-0.353524 -0.64095,-0.653426 -0.64095,-0.666447 0,-0.01302 1.236976,-1.269866 2.748837,-2.792987 1.51186,-1.523122 2.75237,-2.778608 2.756689,-2.78997 0.01824,-0.048 -1.000316,-0.05705 -6.4334334,-0.05715 l -5.727907,-1.14e-4 V 12 11.051163 H 9.749076 c 5.407975,0 6.476974,-0.0095 6.45877,-0.05723 -0.0043,-0.01132 -1.244823,-1.2664991 -2.756683,-2.7892848 -1.511861,-1.5227858 -2.752002,-2.7768638 -2.755869,-2.7868399 -0.0039,-0.00998 0.291249,-0.3161904 0.655814,-0.6804761 l 0.662845,-0.6623377 3.941861,3.9423881 c 2.168023,2.1683134 3.94186,3.9619754 3.94186,3.9859164 0,0.0362 -7.835778,7.865373 -7.894348,7.887699 -0.01051,0.004 -0.307527,-0.281967 -0.66005,-0.635492 z"
     style="opacity:0.98;fill:#303f9f;fill-opacity:1;stroke:#303f9f;stroke-width:0.027907;stroke-opacity:1" />
  <path
     id="path859"
     d="m 11.364884,19.248609 c -0.341384,-0.341636 -0.620698,-0.637598 -0.620698,-0.657693 0,-0.03552 0.760971,-0.812622 3.475366,-3.549056 1.434341,-1.445986 1.9759,-2.000481 1.988823,-2.036324 0.01047,-0.02903 -0.506543,-0.06572 -0.764714,-0.05426 -0.105874,0.0047 -2.713545,0.0061 -5.7948238,0.0031 l -5.6023256,-0.0055 V 12 11.051163 l 5.5604651,-0.0019 c 6.0936073,-0.0021 6.5669923,-0.0046 6.5968053,-0.0344 0.02769,-0.02769 -0.367782,-0.431271 -4.523794,-4.6166118 l -0.976294,-0.9831841 0.655982,-0.6576745 0.655982,-0.6576745 3.927055,3.9338723 c 2.15988,2.1636296 3.927054,3.9496056 3.927054,3.9688346 0,0.03565 -7.828985,7.867382 -7.864626,7.867382 -0.01076,0 -0.298874,-0.279521 -0.640257,-0.621158 z"
     style="opacity:0.98;fill:#303f9f;fill-opacity:1;stroke:#303f9f;stroke-width:0.027907;stroke-opacity:1" />
  <path
     id="path861"
     d="m 11.371257,19.256247 c -0.337056,-0.337437 -0.6171,-0.626334 -0.62232,-0.641993 -0.01839,-0.05518 0.151569,-0.232143 2.506377,-2.609603 2.858235,-2.88573 2.944901,-2.975899 2.88988,-3.00669 -0.07262,-0.04064 -0.410474,-0.04302 -6.5521707,-0.04623 l -5.5465117,-0.0029 v -0.945959 -0.945959 l 6.0404664,-0.0099 c 4.543667,-0.0074 6.048511,-0.0179 6.072929,-0.04232 0.03628,-0.03628 -0.397801,-0.482924 -3.58243,-3.6861356 -1.026219,-1.0322065 -1.861666,-1.8889501 -1.856548,-1.9038745 0.01162,-0.033891 1.275607,-1.3124093 1.297492,-1.3124093 0.01543,0 7.064864,7.0749034 7.597874,7.6253184 l 0.262806,0.271388 -0.137225,0.149314 c -0.290736,0.316348 -7.704365,7.721421 -7.730342,7.721421 -0.0151,0 -0.303221,-0.276084 -0.640277,-0.61352 z"
     style="opacity:0.98;fill:#303f9f;fill-opacity:1;stroke:#303f9f;stroke-width:0.027907;stroke-opacity:1" />
  <path
     id="path863"
     d="m 11.602991,19.509278 c -0.205308,-0.198269 -0.48422,-0.481339 -0.619804,-0.629044 -0.201352,-0.219354 -0.241993,-0.278157 -0.221828,-0.320967 0.0351,-0.07453 0.321538,-0.369268 2.659522,-2.736655 2.73478,-2.769172 2.750859,-2.785749 2.726095,-2.810561 -0.0343,-0.03437 -2.77369,-0.05587 -7.6004644,-0.05967 l -4.5,-0.0035 V 12 11.051163 l 4.1651163,-0.0038 c 4.7288961,-0.0043 7.9039851,-0.02805 7.9353421,-0.05946 0.02872,-0.02877 0.09553,0.03949 -4.405328,-4.5015338 -0.56395,-0.5689833 -1.025363,-1.0505434 -1.025363,-1.0701337 0,-0.01959 0.292575,-0.3309264 0.650166,-0.6918583 l 0.650166,-0.6562396 3.887884,3.9031175 c 2.138336,2.1467149 3.906458,3.9309429 3.92916,3.9649509 0.0373,0.05588 0.03583,0.06931 -0.01531,0.139535 -0.0936,0.128531 -7.774329,7.79398 -7.809511,7.79398 -0.0179,0 -0.200533,-0.16222 -0.405842,-0.360489 z"
     style="opacity:0.98;fill:#303f9f;fill-opacity:1;stroke:#303f9f;stroke-width:0.027907;stroke-opacity:1" />
  <path
     id="path865"
     d="m 11.351163,19.259903 c -0.405645,-0.407718 -0.606977,-0.629584 -0.606977,-0.668883 0,-0.06152 0.550394,-0.631035 2.971488,-3.074741 1.84836,-1.865623 2.414559,-2.44649 2.414559,-2.477115 0,-0.01506 -0.04709,-0.03471 -0.104652,-0.04368 -0.05756,-0.009 -1.756046,-0.01842 -3.774418,-0.02101 -2.018372,-0.0026 -4.6901165,-0.01129 -5.9372095,-0.01932 l -2.2674419,-0.01461 v -0.941247 -0.941246 l 5.4906977,-0.01804 c 5.7028267,-0.01874 6.5553847,-0.02563 6.5829477,-0.05319 0.03587,-0.03587 -0.168779,-0.24799 -2.778532,-2.8800369 C 12.565359,7.323886 11.648241,6.3981851 11.303584,6.0496701 L 10.676935,5.4160064 11.346354,4.7433395 12.015772,4.0706726 15.94277,8.0065898 c 2.788224,2.7945572 3.926997,3.9533802 3.926997,3.9961382 0,0.04283 -1.129121,1.187165 -3.910949,3.96363 -2.151022,2.146875 -3.931138,3.903458 -3.955814,3.903517 -0.02468,5.5e-5 -0.318004,-0.274429 -0.651841,-0.609972 z"
     style="opacity:0.98;fill:#303f9f;fill-opacity:1;stroke:#303f9f;stroke-width:0.027907;stroke-opacity:1" />
  <path
     id="path867"
     d="m 11.351334,19.260921 c -0.405436,-0.40657 -0.607148,-0.628343 -0.607148,-0.667532 0,-0.06413 0.646675,-0.733164 3.62093,-3.74615 0.970814,-0.983456 1.765117,-1.79838 1.765117,-1.810941 0,-0.04684 -1.124609,-0.05955 -5.271916,-0.05959 -2.3420744,-1.8e-5 -4.8328519,-0.0083 -5.5350612,-0.0185 L 4.0465116,12.939738 V 11.997469 11.0552 l 1.6116279,-0.01008 c 0.8863954,-0.0055 3.2190698,-0.01271 5.1837205,-0.01592 3.221347,-0.0053 5.255435,-0.02488 5.285419,-0.05094 0.02259,-0.01964 -0.588832,-0.647876 -2.982425,-3.064448 -1.351866,-1.3648445 -2.454471,-2.4916415 -2.450234,-2.5039932 0.01114,-0.032483 1.313141,-1.3354012 1.334456,-1.3354012 0.0098,0 0.467955,0.4552326 1.018042,1.0116279 0.550088,0.5563954 2.31022,2.3264908 3.911405,3.933545 2.146736,2.1546055 2.911244,2.9385225 2.911244,2.9851475 0,0.04683 -1.01363,1.075307 -3.906891,3.96413 -2.20637,2.202986 -3.92811,3.900898 -3.955643,3.900898 -0.02681,0 -0.321968,-0.27398 -0.655899,-0.608846 z"
     style="opacity:0.98;fill:#303f9f;fill-opacity:1;stroke:#303f9f;stroke-width:0.027907;stroke-opacity:1" />
  <path
     id="path869"
     d="m 11.656812,19.569767 c -0.170019,-0.165 -0.451542,-0.44773 -0.625606,-0.628291 -0.281094,-0.291584 -0.313069,-0.334664 -0.285973,-0.385293 0.03912,-0.0731 0.667814,-0.719847 2.914354,-2.998043 2.028603,-2.057189 2.425091,-2.463304 2.436941,-2.49612 0.0045,-0.01242 -0.01435,-0.03251 -0.04186,-0.04465 -0.02751,-0.01213 -2.737459,-0.03066 -6.02211,-0.04118 -3.284651,-0.01051 -5.9752324,-0.02097 -5.9790696,-0.02324 -0.00384,-0.0023 -0.00698,-0.429869 -0.00698,-0.950226 V 11.05662 L 4.6674387,11.04429 C 5.0089503,11.03749 7.1218573,11.0301 9.3627875,11.02784 13.740157,11.02344 16.067753,11.0008 16.091441,10.96247 16.111581,10.92988 15.913542,10.725179 13.396206,8.1765244 12.190852,6.9561723 11.085877,5.8350541 10.940708,5.6851514 L 10.676764,5.412601 10.968544,5.1132772 c 0.812342,-0.8333422 1.019124,-1.0388586 1.045255,-1.0388586 0.02899,0 2.816283,2.7863492 6.064605,6.0625534 1.306766,1.317982 1.791363,1.823773 1.791363,1.869706 0,0.04647 -1.023064,1.084753 -3.904941,3.963028 -2.147718,2.145034 -3.926079,3.900061 -3.951914,3.900061 -0.02584,0 -0.18608,-0.135 -0.3561,-0.3 z"
     style="opacity:0.98;fill:#303f9f;fill-opacity:1;stroke:#303f9f;stroke-width:0.027907;stroke-opacity:1" />
  <path
     id="path871"
     d="m 11.701841,19.62297 c -0.166012,-0.1528 -0.45598,-0.4426 -0.644372,-0.643999 -0.314354,-0.33606 -0.339833,-0.371223 -0.309732,-0.427466 0.04717,-0.08814 1.222503,-1.29283 4.706516,-4.824081 0.311966,-0.316196 0.585562,-0.601101 0.60799,-0.633122 0.03914,-0.05588 0.03601,-0.0588 -0.07817,-0.07267 -0.168809,-0.0205 -4.839872,-0.0453 -8.6768872,-0.04605 L 4.0515726,12.97494 4.0405383,12.815377 c -0.00607,-0.08776 -0.014177,-0.519286 -0.018018,-0.958948 l -0.00698,-0.799384 0.3713011,-0.01637 c 0.2042156,-0.009 2.8452546,-0.02297 5.8689756,-0.03104 5.190067,-0.01385 5.804947,-0.01924 5.836881,-0.05118 0.0181,-0.0181 -0.778701,-0.835975 -3.26929,-3.355755 -1.174268,-1.1880317 -2.135033,-2.1725638 -2.135033,-2.1878492 0,-0.038987 1.283946,-1.3404452 1.322409,-1.3404452 0.03141,0 4.641988,4.6077003 6.765618,6.7613904 1.045216,1.060011 1.120043,1.142381 1.090121,1.2 -0.03666,0.07059 -5.848772,5.900779 -7.062353,7.084314 l -0.800485,0.780665 z"
     style="opacity:0.98;fill:#303f9f;fill-opacity:1;stroke:#303f9f;stroke-width:0.027907;stroke-opacity:1" />
  <path
     id="path873"
     d="m 11.389497,19.318605 c -0.319309,-0.318489 -0.602884,-0.613651 -0.630167,-0.655918 -0.04937,-0.07649 -0.04915,-0.0774 0.04869,-0.195348 0.112226,-0.1353 1.233175,-1.283278 3.494697,-3.578967 1.702597,-1.728319 1.789368,-1.81954 1.75935,-1.849575 -0.02495,-0.02497 -1.06101,-0.0332 -7.1876454,-0.05711 l -4.8418605,-0.0189 -0.00734,-0.95405 -0.00734,-0.954049 0.1189689,-0.01479 c 0.065433,-0.0081 2.5929224,-0.02164 5.6166434,-0.03001 5.0916776,-0.0141 6.3209306,-0.02672 6.3209306,-0.06491 0,-0.03148 -0.89115,-0.9486781 -2.621833,-2.6984704 -2.332172,-2.3579228 -2.764214,-2.800928 -2.764214,-2.8343591 0,-0.044261 1.283513,-1.3377339 1.327434,-1.3377339 0.03602,0 7.249483,7.2262524 7.640877,7.6544264 l 0.24738,0.270627 -0.196056,0.216543 c -0.326084,0.360157 -7.670078,7.681659 -7.705258,7.681659 -0.01798,0 -0.293942,-0.260581 -0.613252,-0.579069 z"
     style="opacity:0.98;fill:#303f9f;fill-opacity:1;stroke:#303f9f;stroke-width:0.027907;stroke-opacity:1" />
  <path
     id="path875"
     d="m 11.339984,19.272617 c -0.343038,-0.343782 -0.623705,-0.645135 -0.623705,-0.669675 0,-0.06322 0.552502,-0.63865 3.109301,-3.238353 1.236861,-1.257616 2.248839,-2.295364 2.248839,-2.306106 0,-0.01074 -0.367326,-0.02694 -0.816279,-0.03599 -0.798909,-0.0161 -7.1834201,-0.04565 -9.8794319,-0.04572 l -1.3608267,-3.5e-5 0.00734,-0.969767 0.00734,-0.969768 2.3860466,-0.0171 c 1.3123255,-0.0094 3.786279,-0.02136 5.497674,-0.02658 1.711395,-0.0052 3.350233,-0.01636 3.641861,-0.02477 l 0.530232,-0.01528 -0.292492,-0.306976 C 15.470276,10.304784 14.477657,9.2928756 12.962566,7.7581395 10.881753,5.6503467 10.688372,5.4509637 10.688372,5.4133629 c 0,-0.044161 1.281141,-1.3389443 1.324837,-1.3389443 0.02805,0 6.326103,6.2950794 7.362536,7.3590544 0.287061,0.29469 0.521929,0.550728 0.521929,0.568974 0,0.06341 -7.836529,7.895227 -7.89998,7.895227 -0.0187,0 -0.314673,-0.281275 -0.65771,-0.625057 z"
     style="opacity:0.98;fill:#303f9f;fill-opacity:1;stroke:#303f9f;stroke-width:0.027907;stroke-opacity:1" />
  <path
     id="path877"
     d="m 11.338679,19.273765 c -0.34232,-0.34315 -0.6224,-0.645042 -0.6224,-0.670872 0,-0.0655 0.132735,-0.205015 2.244295,-2.358996 3.316134,-3.382755 3.110223,-3.168448 3.076609,-3.202063 -0.01409,-0.01409 -7.8920415,-0.06093 -10.7278807,-0.06379 l -1.2906976,-0.0013 v -0.973333 -0.973333 l 3.1465116,-0.01687 c 1.7305814,-0.0093 4.4197727,-0.02373 5.9759797,-0.03211 1.556208,-0.0084 2.848,-0.02561 2.87065,-0.03828 0.04951,-0.02771 -0.186735,-0.273699 -3.18849,-3.3199795 -1.166512,-1.1838144 -2.125333,-2.1731581 -2.130714,-2.1985413 -0.01018,-0.048039 1.265447,-1.3498796 1.322704,-1.3498796 0.03613,0 7.632665,7.6066054 7.781879,7.7921914 l 0.105909,0.131726 -0.05448,0.06926 c -0.251126,0.319254 -7.784225,7.830073 -7.8533,7.830073 -0.01879,0 -0.314252,-0.280759 -0.656572,-0.623909 z"
     style="opacity:0.98;fill:#303f9f;fill-opacity:1;stroke:#303f9f;stroke-width:0.027907;stroke-opacity:1" />
  <path
     id="path879"
     d="m 11.337209,19.273917 c -0.341511,-0.343184 -0.62093,-0.644494 -0.62093,-0.669578 0,-0.02509 0.06449,-0.117951 0.143314,-0.206369 0.154124,-0.172887 1.46926,-1.522131 3.597686,-3.690993 1.306318,-1.331136 1.607489,-1.644224 1.586075,-1.648837 C 15.964314,13.04111 15.4161,13.03515 12.586047,13.02055 10.767209,13.01115 8.0954651,12.99594 6.6488372,12.98672 L 4.0186047,12.96996 v -0.972718 -0.972718 l 1.1093023,-0.008 c 0.6101163,-0.0044 2.3902325,-0.01198 3.9558139,-0.01684 3.7171001,-0.01154 6.8987191,-0.04258 6.9236901,-0.06755 0.03125,-0.03125 -0.04009,-0.105343 -3.002467,-3.1181705 -2.313888,-2.3532979 -2.316572,-2.3560807 -2.316572,-2.4020321 0,-0.049479 1.273208,-1.3375028 1.322118,-1.3375028 0.04242,0 7.810442,7.7753424 7.857259,7.8646624 0.02734,0.05216 0.02615,0.07644 -0.0061,0.125581 -0.135014,0.205572 -7.79503,7.832912 -7.866677,7.833119 -0.02025,5.6e-5 -0.316233,-0.280681 -0.657745,-0.623864 z"
     style="opacity:0.98;fill:#303f9f;fill-opacity:1;stroke:#303f9f;stroke-width:0.027907;stroke-opacity:1" />
  <path
     id="path881"
     d="m 11.335843,19.274169 c -0.34076,-0.342927 -0.619564,-0.643559 -0.619564,-0.66807 0,-0.02451 0.05148,-0.10498 0.114399,-0.17882 0.124453,-0.146054 1.242555,-1.296448 3.317514,-3.413326 1.83494,-1.87201 1.882987,-1.922309 1.859074,-1.946222 -0.02411,-0.02411 -3.28187,-0.05338 -7.4816846,-0.06722 C 6.96,12.995355 5.3054651,12.987531 4.8488372,12.983127 l -0.8302325,-0.008 v -0.972612 -0.972612 l 1.4302325,-0.01668 c 0.7866279,-0.0092 3.1883721,-0.02331 5.3372098,-0.03142 4.044927,-0.01527 5.204651,-0.03238 5.204651,-0.0768 0,-0.03671 -0.298576,-0.347215 -1.898894,-1.9747634 -2.730083,-2.7765373 -3.403432,-3.4723025 -3.403432,-3.5167324 0,-0.059343 1.259093,-1.3390816 1.317478,-1.3390816 0.04376,0 6.84275,6.7794224 7.548379,7.5266594 0.298279,0.315868 0.345121,0.377669 0.327856,0.432558 -0.01108,0.03522 -1.458394,1.501945 -3.216258,3.259387 -3.802651,3.80174 -4.617017,4.604651 -4.67034,4.604651 -0.02204,0 -0.318884,-0.280577 -0.659644,-0.623505 z"
     style="opacity:0.98;fill:#303f9f;fill-opacity:1;stroke:#303f9f;stroke-width:0.027907;stroke-opacity:1" />
  <path
     id="path883"
     d="m 11.356554,19.299416 c -0.329128,-0.329042 -0.609936,-0.629523 -0.624018,-0.667737 -0.02145,-0.05821 -0.01077,-0.08678 0.06589,-0.176161 0.117979,-0.137559 1.397957,-1.456219 3.042636,-3.134588 0.714435,-0.72907 1.499791,-1.53279 1.745233,-1.786046 l 0.44626,-0.460465 -0.502325,-0.01522 c -0.27628,-0.0084 -1.35024,-0.01795 -2.386578,-0.02129 -1.036339,-0.0033 -1.914324,-0.01187 -1.951077,-0.01894 -0.03675,-0.0071 -1.5434916,-0.01567 -3.3483061,-0.01908 -1.8048147,-0.0034 -3.4039231,-0.01088 -3.5535742,-0.01659 l -0.272093,-0.01038 V 12.00035 11.027781 l 0.5093023,-0.01146 c 0.2801163,-0.0063 1.4197674,-0.01406 2.5325581,-0.01725 1.1127907,-0.0032 3.5427909,-0.01868 5.3999999,-0.03442 1.857209,-0.01575 3.404378,-0.02803 3.438152,-0.0273 0.167042,0.0036 0.195818,0.03504 -2.196867,-2.3978131 -2.429983,-2.4707724 -3.013378,-3.0763353 -3.013378,-3.1278803 0,-0.026827 0.295108,-0.3480132 0.655795,-0.7137466 l 0.655794,-0.6649698 0.704494,0.6974844 c 1.239943,1.2276069 4.827243,4.8166875 6.029482,6.0324754 0.830416,0.839774 1.163737,1.194603 1.163737,1.238827 0,0.10308 -7.801291,7.895949 -7.904482,7.895949 -0.02102,0 -0.307511,-0.269216 -0.636638,-0.598258 z"
     style="opacity:0.98;fill:#303f9f;fill-opacity:1;stroke:#303f9f;stroke-width:0.027907;stroke-opacity:1" />
  <path
     id="path885"
     d="m 11.345403,19.294719 c -0.3309,-0.331625 -0.609218,-0.633162 -0.618485,-0.670081 -0.01271,-0.05066 0.0072,-0.09615 0.08112,-0.185417 0.107637,-0.129974 0.833794,-0.878838 2.726066,-2.811314 2.305305,-2.354284 2.456599,-2.510658 2.456599,-2.539085 0,-0.0182 -0.192366,-0.02856 -0.53721,-0.02893 -0.295465,-3.16e-4 -0.939069,-0.0064 -1.430232,-0.01347 -1.663052,-0.02402 -4.7886521,-0.04206 -7.3596799,-0.04249 -1.4078238,-2.34e-4 -2.5788703,-0.0078 -2.6023255,-0.01679 -0.037127,-0.01425 -0.042646,-0.142115 -0.042646,-0.987999 V 11.027506 L 4.2488372,11.0163 c 0.1266279,-0.0062 0.9334884,-0.01352 1.7930233,-0.01635 3.3175713,-0.01093 9.6621345,-0.06064 9.7883725,-0.0767 0.07291,-0.0093 0.132558,-0.0238 0.132558,-0.03228 0,-0.03727 -0.378615,-0.429033 -2.582669,-2.6723683 -2.553147,-2.5986496 -2.721849,-2.7763175 -2.690983,-2.8339916 0.03742,-0.069923 1.223995,-1.2786403 1.289774,-1.3138445 0.04678,-0.025037 0.407249,0.3246547 2.928574,2.8410377 3.536159,3.5292287 4.990187,5.0123757 4.990187,5.0901227 0,0.05949 -1.609709,1.68862 -5.223919,5.28695 -2.355853,2.345501 -2.626488,2.608795 -2.681541,2.608795 -0.02485,0 -0.315911,-0.271329 -0.646811,-0.602955 z"
     style="opacity:0.98;fill:#303f9f;fill-opacity:1;stroke:#303f9f;stroke-width:0.027907;stroke-opacity:1" />
  <path
     id="path887"
     d="M 11.614986,19.572157 C 11.426251,19.39391 11.14046,19.104352 10.979893,18.928695 l -0.291939,-0.319376 0.04905,-0.08312 c 0.05325,-0.09025 0.65024,-0.711248 2.491128,-2.59131 0.653762,-0.667675 1.543743,-1.578032 1.977736,-2.023016 l 0.789077,-0.809062 -0.09282,-0.01792 c -0.129733,-0.02505 -2.723978,-0.04909 -7.6498423,-0.07086 -2.3551575,-0.01041 -4.2148384,-0.02937 -4.2232941,-0.04305 -0.00831,-0.01345 -0.017025,-0.454041 -0.019367,-0.979101 l -0.00426,-0.954654 0.1670874,-0.01909 c 0.091898,-0.0105 2.6774985,-0.03302 5.7457788,-0.05004 3.0682802,-0.01702 5.6772342,-0.03855 5.7976752,-0.04784 0.12044,-0.0093 0.218983,-0.02824 0.218983,-0.04211 0,-0.04678 -0.179236,-0.232465 -2.903862,-3.0083616 -1.670886,-1.7023281 -2.370557,-2.42837 -2.370557,-2.4599034 0,-0.034555 1.314273,-1.3633524 1.348451,-1.3633524 0.03671,0 6.048202,6.0001774 7.110278,7.0968944 0.487578,0.503481 0.77848,0.824557 0.77848,0.85923 0,0.03542 -0.394049,0.454519 -1.094018,1.16357 -2.837357,2.874172 -6.733345,6.73172 -6.797821,6.730752 -0.02623,-3.93e-4 -0.202115,-0.146554 -0.390849,-0.324801 z"
     style="opacity:0.98;fill:#303f9f;fill-opacity:1;stroke:#303f9f;stroke-width:0.027907;stroke-opacity:1" />
  <path
     id="path889"
     d="m 11.554324,19.515864 c -0.217963,-0.209996 -0.502253,-0.499127 -0.631756,-0.642514 -0.271825,-0.300969 -0.271115,-0.276473 -0.01602,-0.55242 0.08513,-0.09209 1.254476,-1.29474 2.598539,-2.672549 1.344063,-1.377809 2.447358,-2.515724 2.451767,-2.5287 0.0188,-0.05532 -0.56431,-0.06258 -8.9798494,-0.111773 l -2.9439258,-0.01721 -0.017889,-0.08372 c -0.00984,-0.04605 -0.019375,-0.487818 -0.021191,-0.981713 l -0.0033,-0.897992 0.1465116,-0.0151 c 0.080581,-0.0083 2.4697674,-0.02802 5.3093023,-0.04382 5.2660843,-0.0293 6.4883723,-0.04574 6.4883723,-0.08727 0,-0.03998 -0.929248,-0.9982794 -3.921263,-4.0438727 -0.87785,-0.89357 -1.353156,-1.3951054 -1.353156,-1.42783 0,-0.037856 1.313033,-1.3628677 1.350547,-1.3628677 0.03626,0 6.464702,6.4188084 7.289365,7.2784414 0.349871,0.364707 0.597297,0.644597 0.597297,0.675665 0,0.128841 -7.768331,7.897056 -7.897173,7.897056 -0.02744,0 -0.228215,-0.171814 -0.446177,-0.38181 z"
     style="opacity:0.98;fill:#303f9f;fill-opacity:1;stroke:#303f9f;stroke-width:0.027907;stroke-opacity:1" />
  <path
     id="path891"
     d="m 11.480225,19.444186 c -0.255915,-0.249419 -0.538872,-0.538691 -0.628793,-0.642828 -0.160077,-0.185385 -0.162644,-0.19098 -0.122893,-0.267851 0.04513,-0.08727 0.438129,-0.499599 2.024621,-2.124205 0.592055,-0.606279 1.530197,-1.566976 2.084759,-2.134883 0.554562,-0.567907 1.034326,-1.065681 1.06614,-1.106165 l 0.05785,-0.07361 -0.704208,-0.01667 c -0.785636,-0.01859 -3.03453,-0.03646 -7.9321156,-0.06301 -2.3731386,-0.01286 -3.2987506,-0.02655 -3.3135262,-0.04897 -0.011277,-0.01712 -0.020695,-0.460237 -0.02093,-0.984715 l -4.273e-4,-0.953596 0.076744,-0.01455 c 0.07227,-0.0137 1.6167185,-0.02674 7.0813951,-0.05981 2.886944,-0.01747 4.629924,-0.0421 4.722036,-0.06674 0.08916,-0.02384 0.339204,0.237846 -4.095898,-4.286603 -0.745567,-0.7605865 -1.11451,-1.1552932 -1.11451,-1.1923365 0,-0.017081 0.300105,-0.3326177 0.6669,-0.7011926 0.65839,-0.6615846 0.667738,-0.66958 0.732558,-0.6265601 0.09684,0.064269 6.84751,6.8190712 7.381442,7.3859572 0.25097,0.26646 0.456309,0.507306 0.456309,0.535212 0,0.06876 -1.536478,1.639871 -4.204332,4.299108 -2.709041,2.700291 -3.631084,3.597486 -3.697117,3.597486 -0.02789,0 -0.260085,-0.204069 -0.516,-0.453488 z"
     style="opacity:0.98;fill:#303f9f;fill-opacity:1;stroke:#303f9f;stroke-width:0.027907;stroke-opacity:1" />
  <path
     id="path893"
     d="m 11.451723,19.416279 c -0.269773,-0.264767 -0.553638,-0.55419 -0.630811,-0.64316 -0.123264,-0.142108 -0.136747,-0.169595 -0.110955,-0.226202 0.03689,-0.08097 0.292834,-0.347819 2.853243,-2.974824 2.494752,-2.55964 2.39117,-2.450088 2.336429,-2.471094 -0.05345,-0.02051 -3.421159,-0.05645 -6.3135825,-0.06738 -1.2125581,-0.0046 -2.9644186,-0.01611 -3.8930232,-0.02563 L 4.0046512,12.990698 V 12 11.009302 l 1.2558139,-0.0172 c 0.6906977,-0.0095 2.8506977,-0.02638 4.7999999,-0.03759 3.842444,-0.0221 5.805837,-0.04872 5.836253,-0.07914 0.02524,-0.02524 -0.03863,-0.09217 -2.039671,-2.1379317 -2.312289,-2.3639595 -3.05046,-3.1255938 -3.133201,-3.2327921 l -0.07001,-0.090698 0.07027,-0.090698 C 10.871574,5.132904 11.966107,4.046508 12.010412,4.046508 c 0.05133,0 6.928167,6.862705 7.518162,7.502715 0.203004,0.220214 0.369099,0.423792 0.369099,0.452396 0,0.07165 -0.454977,0.539129 -3.403,3.496518 -2.947806,2.957171 -4.42298,4.399533 -4.499615,4.399533 -0.03085,0 -0.256977,-0.200351 -0.543336,-0.481395 z"
     style="opacity:0.98;fill:#303f9f;fill-opacity:1;stroke:#303f9f;stroke-width:0.027907;stroke-opacity:1" />
  <path
     id="path895"
     d="m 11.61682,19.583721 c -0.454028,-0.433991 -0.928448,-0.935803 -0.928448,-0.982054 0,-0.08825 0.138536,-0.234905 2.637711,-2.792365 2.480357,-2.538202 2.612106,-2.677737 2.545161,-2.695561 -0.108649,-0.02893 -2.135395,-0.05263 -5.852639,-0.06845 -1.9876748,-0.0085 -3.6955817,-0.0205 -3.7953492,-0.02676 -0.099767,-0.0063 -0.642907,-0.01194 -1.2069767,-0.01263 l -1.0255814,-0.0013 V 12 10.995349 l 0.7744186,-0.0017 c 0.4259302,-9.24e-4 0.8309302,-0.0063 0.9,-0.01187 0.06907,-0.0056 1.626279,-0.01744 3.4604651,-0.0263 4.2967436,-0.02075 6.7145136,-0.0514 6.7486676,-0.08556 0.03072,-0.03072 -0.0099,-0.07389 -1.682781,-1.7862157 -0.599794,-0.6139549 -1.575107,-1.612327 -2.167363,-2.218606 -1.131975,-1.158777 -1.36364,-1.4055428 -1.36364,-1.4525306 0,-0.08029 1.278439,-1.3660741 1.35827,-1.3660741 0.0504,0 7.180798,7.1238894 7.594954,7.5880224 0.156192,0.17504 0.283985,0.340671 0.283985,0.36807 0,0.0807 -1.004805,1.10709 -4.287383,4.379473 -3.116221,3.106544 -3.537414,3.515597 -3.619925,3.515597 -0.0248,0 -0.192899,-0.141279 -0.373546,-0.313953 z"
     style="opacity:0.98;fill:#303f9f;fill-opacity:1;stroke:#303f9f;stroke-width:0.027907;stroke-opacity:1" />
  <path
     id="path897"
     d="m 11.634542,19.607693 c -0.368457,-0.335536 -0.94617,-0.948485 -0.94617,-1.00388 0,-0.09636 -0.08697,-0.0043 2.903025,-3.073621 0.852245,-0.874861 1.724474,-1.77275 1.938288,-1.995308 l 0.388751,-0.404651 -0.152241,-0.01796 c -0.08373,-0.0099 -1.948055,-0.03152 -4.142939,-0.04809 C 9.4283721,13.047616 6.8131395,13.025933 5.8116279,13.016 L 3.9906977,12.99794 v -0.997702 -0.997702 l 1.2627907,-0.01743 c 0.6945349,-0.0096 2.3553488,-0.02381 3.6906976,-0.0316 4.931284,-0.02878 6.934884,-0.05732 6.934884,-0.09878 0,-0.02609 -0.56663,-0.621606 -1.379731,-1.4500728 C 11.44454,6.2921238 10.660465,5.4758957 10.660465,5.408355 c 0,-0.072059 1.279301,-1.3621649 1.350573,-1.3619804 0.05834,1.511e-4 7.309182,7.2360634 7.672793,7.6569894 0.117614,0.136153 0.213843,0.270737 0.213843,0.299077 0,0.08172 -0.850239,0.955064 -3.839766,3.944097 -2.628556,2.628123 -3.91472,3.88944 -4.027731,3.949922 -0.04051,0.02168 -0.112114,-0.03058 -0.395635,-0.288767 z"
     style="opacity:0.98;fill:#303f9f;fill-opacity:1;stroke:#303f9f;stroke-width:0.027907;stroke-opacity:1" />
  <path
     id="path899"
     d="m 11.703827,19.678421 c -0.311935,-0.277012 -0.932775,-0.920264 -0.988256,-1.023931 -0.03037,-0.05675 -0.03017,-0.08052 0.0012,-0.139121 0.03841,-0.07177 0.66377,-0.729613 1.630666,-1.715369 1.79377,-1.828758 3.531639,-3.627751 3.531639,-3.655853 0,-0.04473 -1.632527,-0.06716 -7.3674421,-0.101225 -1.6806977,-0.01 -3.0934884,-0.0213 -3.1395349,-0.02515 -0.046046,-0.0038 -0.3756977,-0.0084 -0.7325581,-0.01006 l -0.6488372,-0.0031 V 12 10.995349 l 0.4744186,-0.0035 c 0.2609302,-0.0019 0.4838372,-0.0058 0.4953488,-0.0086 0.011512,-0.0028 1.3709302,-0.01387 3.0209302,-0.02455 5.0664507,-0.03277 7.7082437,-0.06645 7.8331247,-0.09985 0.06321,-0.0169 0.0288,-0.05909 -0.469671,-0.57575 C 14.837038,9.7567429 13.059594,7.935098 11.914506,6.7674419 11.043522,5.8792933 10.660465,5.4638376 10.660465,5.4073371 c 0,-0.072195 1.279502,-1.3617179 1.350628,-1.3612063 0.05945,4.275e-4 7.395738,7.3221122 7.701369,7.6860352 0.101867,0.121295 0.185212,0.243594 0.185212,0.271774 0,0.08811 -0.72793,0.836467 -3.823646,3.930944 -2.840057,2.83892 -3.915288,3.892771 -4.039664,3.959335 -0.04694,0.02512 -0.0934,-0.0052 -0.330537,-0.215798 z"
     style="opacity:0.98;fill:#303f9f;fill-opacity:1;stroke:#303f9f;stroke-width:0.027907;stroke-opacity:1" />
  <path
     id="path901"
     d="m 11.745225,19.72099 c -0.336083,-0.294352 -1.026542,-1.017974 -1.046251,-1.096502 -0.0097,-0.0387 5.39e-4,-0.09306 0.02439,-0.129343 0.05314,-0.08082 0.55748,-0.605697 2.393076,-2.490494 2.296525,-2.35808 2.734719,-2.814668 2.734719,-2.84951 0,-0.04885 -1.515509,-0.07054 -7.5906979,-0.108654 -1.2355814,-0.0078 -2.7017442,-0.02188 -3.2581395,-0.03141 l -1.0116279,-0.01731 v -0.997931 -0.997932 l 0.6627907,-0.017 c 0.3645349,-0.0093 1.7427907,-0.02344 3.0627907,-0.03132 4.4812329,-0.02674 7.7190889,-0.06516 7.9848539,-0.09476 l 0.163983,-0.01826 -0.208631,-0.222606 C 15.414776,10.360055 14.938143,9.8702397 11.692353,6.544186 10.904637,5.736991 10.660465,5.4682498 10.660465,5.4084661 c 0,-0.07545 1.276718,-1.3625496 1.351216,-1.3622033 0.06068,2.82e-4 7.499945,7.4260052 7.755853,7.7417372 l 0.156148,0.19265 -0.04789,0.08292 c -0.163042,0.282311 -7.75584,7.862012 -7.875597,7.862012 -0.01176,0 -0.126495,-0.09207 -0.254973,-0.204591 z"
     style="opacity:0.98;fill:#303f9f;fill-opacity:1;stroke:#303f9f;stroke-width:0.027907;stroke-opacity:1" />
  <path
     id="path903"
     d="m 11.803104,19.776512 c -0.274438,-0.227472 -1.083551,-1.070032 -1.103365,-1.148976 -0.01105,-0.04404 -2.79e-4,-0.09613 0.02923,-0.141148 0.0624,-0.09523 0.945564,-1.01078 4.103363,-4.25383 0.643079,-0.66044 1.02429,-1.064322 1.014095,-1.074404 -0.04843,-0.04789 -1.526568,-0.06792 -8.5068891,-0.115283 -1.4351163,-0.0097 -2.6281396,-0.02136 -2.6511628,-0.02583 -0.023023,-0.0045 -0.1894186,-0.0091 -0.3697674,-0.01026 l -0.327907,-0.0021 V 12 10.995349 l 0.1883721,-0.0021 c 0.1036046,-0.0012 0.2072093,-0.0058 0.2302325,-0.01037 0.023023,-0.0045 1.2034884,-0.01618 2.6232558,-0.02589 6.7483629,-0.04615 8.7906979,-0.07696 8.7906979,-0.132591 0,-0.03411 -0.32469,-0.371826 -2.666268,-2.7731992 -2.322649,-2.3819622 -2.496523,-2.5661534 -2.496523,-2.6446623 0,-0.075444 1.27652,-1.3602395 1.351334,-1.3600936 0.0642,1.253e-4 7.621606,7.5489711 7.801937,7.7931011 l 0.118511,0.160438 -0.07409,0.09713 c -0.157887,0.207 -2.045234,2.121027 -4.554817,4.619202 -2.398846,2.387943 -3.243296,3.209302 -3.299525,3.209302 -0.01148,0 -0.101799,-0.06708 -0.200716,-0.149069 z"
     style="opacity:0.98;fill:#303f9f;fill-opacity:1;stroke:#303f9f;stroke-width:0.027907;stroke-opacity:1" />
  <path
     id="path905"
     d="m 11.813077,19.78998 c -0.08905,-0.07458 -0.378542,-0.356697 -0.64331,-0.626924 -0.403323,-0.411641 -0.481395,-0.504668 -0.481395,-0.573608 0,-0.09933 -0.03006,-0.0672 2.483363,-2.654564 2.204274,-2.269128 2.651521,-2.735264 2.651521,-2.763506 0,-0.05315 -1.333224,-0.07655 -5.637209,-0.09893 -1.7420935,-0.0091 -3.1835637,-0.02151 -3.2032674,-0.02767 -0.019704,-0.0062 -0.6036574,-0.0136 -1.2976745,-0.01654 -0.6940171,-0.0029 -1.3591749,-0.01044 -1.4781284,-0.01667 l -0.216279,-0.01133 v -0.999694 -0.999693 l 0.3139535,-0.01616 c 0.2990135,-0.01539 1.3315182,-0.02553 6.1465118,-0.06037 2.767945,-0.02003 5.322939,-0.06401 5.351038,-0.09211 0.02641,-0.02641 -0.325154,-0.3949 -2.842038,-2.9789091 -2.140776,-2.1978702 -2.299698,-2.3663464 -2.299698,-2.4379596 0,-0.106067 1.25348,-1.3688367 1.358766,-1.3688367 0.05673,0 7.723217,7.6659904 7.834957,7.8344494 0.07525,0.113444 0.07653,0.120996 0.03209,0.188827 -0.09699,0.14803 -1.731509,1.805746 -4.512795,4.576848 -2.689296,2.679449 -3.305844,3.278945 -3.372207,3.278945 -0.01445,0 -0.09914,-0.06102 -0.188195,-0.135601 z"
     style="opacity:0.98;fill:#303f9f;fill-opacity:1;stroke:#303f9f;stroke-width:0.027907;stroke-opacity:1" />
  <path
     id="path907"
     d="m 11.813077,19.78998 c -0.08905,-0.07458 -0.378542,-0.356697 -0.64331,-0.626924 -0.403323,-0.411641 -0.481395,-0.504668 -0.481395,-0.573608 0,-0.09933 -0.03006,-0.0672 2.483363,-2.654564 2.204274,-2.269128 2.651521,-2.735264 2.651521,-2.763506 0,-0.05315 -1.333224,-0.07655 -5.637209,-0.09893 -1.7420935,-0.0091 -3.1835637,-0.02151 -3.2032674,-0.02767 -0.019704,-0.0062 -0.6036574,-0.0136 -1.2976745,-0.01654 -0.6940171,-0.0029 -1.3591749,-0.01044 -1.4781284,-0.01667 l -0.216279,-0.01133 v -0.999694 -0.999693 l 0.3139535,-0.01616 c 0.2990135,-0.01539 1.3315182,-0.02553 6.1465118,-0.06037 2.767945,-0.02003 5.322939,-0.06401 5.351038,-0.09211 0.02641,-0.02641 -0.325154,-0.3949 -2.842038,-2.9789091 -2.140776,-2.1978702 -2.299698,-2.3663464 -2.299698,-2.4379596 0,-0.106067 1.25348,-1.3688367 1.358766,-1.3688367 0.05673,0 7.723217,7.6659904 7.834957,7.8344494 0.07525,0.113444 0.07653,0.120996 0.03209,0.188827 -0.09699,0.14803 -1.731509,1.805746 -4.512795,4.576848 -2.689296,2.679449 -3.305844,3.278945 -3.372207,3.278945 -0.01445,0 -0.09914,-0.06102 -0.188195,-0.135601 z"
     style="opacity:0.98;fill:#303f9f;fill-opacity:1;stroke:#303f9f;stroke-width:0.027907;stroke-opacity:1" />
  <path
     id="path909"
     d="m 11.773803,19.762977 c -0.09815,-0.08943 -0.208,-0.186759 -0.244112,-0.216279 -0.03611,-0.02952 -0.240181,-0.240106 -0.453488,-0.467966 -0.312677,-0.33401 -0.387831,-0.429853 -0.387831,-0.494599 0,-0.100719 -0.07936,-0.01575 2.5655,-2.746924 1.159372,-1.197209 2.20786,-2.280492 2.329975,-2.407296 0.154089,-0.160006 0.213121,-0.239456 0.192925,-0.259653 -0.03718,-0.03718 -2.27617,-0.0696 -7.5860743,-0.109848 -2.2255814,-0.01687 -4.0797268,-0.03702 -4.1203231,-0.04479 -0.09885,-0.01891 -0.1021559,-0.05393 -0.1067241,-1.130699 l -0.00374,-0.882517 0.078186,-0.01541 c 0.043002,-0.0085 0.4298142,-0.01682 0.8595816,-0.01853 0.4297675,-0.0017 0.8190698,-0.008 0.8651163,-0.01408 0.046047,-0.006 1.3960465,-0.01831 3,-0.02729 3.1483466,-0.01763 6.5558536,-0.06461 6.8582916,-0.09456 l 0.187679,-0.01858 -0.263241,-0.279069 C 15.400737,10.381395 14.65941,9.6153488 13.898127,8.8325581 10.791464,5.6381267 10.660465,5.49986 10.660465,5.4152683 c 0,-0.09969 1.128433,-1.2661153 1.304343,-1.3482582 0.05484,-0.025609 0.08215,-0.010909 0.223256,0.1202012 0.243332,0.2260854 4.641833,4.6088747 6.13474,6.1128257 1.436285,1.44691 1.602777,1.623505 1.602777,1.700039 0,0.08237 -0.893848,1.000954 -3.825518,3.931376 -3.010801,3.009519 -4.020898,3.994129 -4.097515,3.994129 -0.02766,0 -0.130594,-0.07317 -0.228745,-0.162604 z"
     style="opacity:0.98;fill:#303f9f;fill-opacity:1;stroke:#303f9f;stroke-width:0.027907;stroke-opacity:1" />
  <path
     id="path911"
     d="m 11.688704,19.693283 c -0.266272,-0.237175 -0.893903,-0.889944 -0.976102,-1.015196 -0.02505,-0.03816 -0.03906,-0.09417 -0.03114,-0.124461 0.02151,-0.08225 0.200655,-0.272057 2.405783,-2.548975 1.114867,-1.151163 2.182445,-2.255962 2.372395,-2.455109 l 0.345365,-0.362086 -0.0886,-0.01812 c -0.15318,-0.03133 -1.502977,-0.05378 -4.86059,-0.08086 -6.1410892,-0.04952 -6.8090333,-0.05964 -6.8532378,-0.103843 -0.032921,-0.03292 -0.039785,-0.207674 -0.039785,-1.012889 0,-0.535208 0.010248,-0.979438 0.022774,-0.987179 0.012526,-0.0077 1.4849676,-0.02734 3.272093,-0.04354 6.8031868,-0.0617 8.5097838,-0.09041 8.5097838,-0.14319 0,-0.02858 -0.399799,-0.446663 -2.079451,-2.1745792 C 11.688745,6.5665622 10.906575,5.7540551 10.762351,5.5841422 L 10.6344,5.4334007 10.68232,5.3475577 c 0.02635,-0.047214 0.319047,-0.3592636 0.650429,-0.6934446 0.434307,-0.4379756 0.620289,-0.6076017 0.66619,-0.6076017 0.07334,0 1.637766,1.5393513 5.228594,5.1447977 2.314977,2.3244019 2.698052,2.7233259 2.698052,2.8096809 0,0.08805 -0.804993,0.91608 -3.838012,3.947847 -3.073898,3.072631 -4.00316,3.976744 -4.087357,3.976744 -0.02789,0 -0.16807,-0.104534 -0.311508,-0.232298 z"
     style="opacity:0.98;fill:#303f9f;fill-opacity:1;stroke:#303f9f;stroke-width:0.027907;stroke-opacity:1" />
  <path
     id="path913"
     d="m 11.688704,19.693283 c -0.266272,-0.237175 -0.893903,-0.889944 -0.976102,-1.015196 -0.02505,-0.03816 -0.03906,-0.09417 -0.03114,-0.124461 0.02151,-0.08225 0.200655,-0.272057 2.405783,-2.548975 1.114867,-1.151163 2.182445,-2.255962 2.372395,-2.455109 l 0.345365,-0.362086 -0.0886,-0.01812 c -0.15318,-0.03133 -1.502977,-0.05378 -4.86059,-0.08086 -6.1410892,-0.04952 -6.8090333,-0.05964 -6.8532378,-0.103843 -0.032921,-0.03292 -0.039785,-0.207674 -0.039785,-1.012889 0,-0.535208 0.010248,-0.979438 0.022774,-0.987179 0.012526,-0.0077 1.4849676,-0.02734 3.272093,-0.04354 6.8031868,-0.0617 8.5097838,-0.09041 8.5097838,-0.14319 0,-0.02858 -0.399799,-0.446663 -2.079451,-2.1745792 C 11.688745,6.5665622 10.906575,5.7540551 10.762351,5.5841422 L 10.6344,5.4334007 10.68232,5.3475577 c 0.02635,-0.047214 0.319047,-0.3592636 0.650429,-0.6934446 0.434307,-0.4379756 0.620289,-0.6076017 0.66619,-0.6076017 0.07334,0 1.637766,1.5393513 5.228594,5.1447977 2.314977,2.3244019 2.698052,2.7233259 2.698052,2.8096809 0,0.08805 -0.804993,0.91608 -3.838012,3.947847 -3.073898,3.072631 -4.00316,3.976744 -4.087357,3.976744 -0.02789,0 -0.16807,-0.104534 -0.311508,-0.232298 z"
     style="opacity:0.98;fill:#303f9f;fill-opacity:1;stroke:#303f9f;stroke-width:0.027907;stroke-opacity:1" />
  <path
     id="path915"
     d="m 11.775197,19.776773 c -0.234072,-0.193674 -1.021176,-1.007038 -1.074714,-1.11057 -0.07475,-0.144556 -0.283368,0.08656 2.805524,-3.108063 2.264382,-2.341889 2.275391,-2.353486 2.254286,-2.374591 -0.02635,-0.02635 -1.892756,-0.06225 -4.123084,-0.0793 -5.1032988,-0.03902 -7.5666725,-0.07251 -7.6255811,-0.103648 -0.045106,-0.02384 -0.048837,-0.101308 -0.048837,-1.013886 0,-0.545872 0.011096,-0.994927 0.024793,-1.003392 0.022948,-0.01418 2.5820465,-0.0461 6.8542761,-0.08549 2.192277,-0.02021 4.74962,-0.06672 4.834032,-0.0879 0.035,-0.0088 0.06364,-0.02296 0.06364,-0.03151 0,-0.0222 -0.120666,-0.147998 -2.415164,-2.5179499 -2.337017,-2.4138697 -2.691813,-2.7879894 -2.691813,-2.8384226 0,-0.1009836 1.26639,-1.3755309 1.366727,-1.3755309 0.0404,0 0.42908,0.362413 1.222988,1.1403247 1.465022,1.4355031 6.306389,6.2976107 6.533514,6.5615027 0.09339,0.108504 0.169794,0.221349 0.169794,0.250767 0,0.09842 -0.577596,0.69325 -3.849599,3.964446 -3.287185,3.286374 -3.981495,3.962029 -4.071423,3.962029 -0.02723,0 -0.130445,-0.06696 -0.229362,-0.148808 z"
     style="opacity:0.98;fill:#303f9f;fill-opacity:1;stroke:#303f9f;stroke-width:0.027907;stroke-opacity:1" />
  <path
     id="path917"
     d="m 11.78517,19.788814 c -0.166687,-0.140799 -0.839163,-0.8176 -1.021858,-1.028429 -0.05657,-0.06528 -0.102847,-0.141376 -0.102847,-0.16911 0,-0.09333 0.09056,-0.189887 3.040788,-3.242399 0.867799,-0.897885 1.686999,-1.74556 1.820444,-1.883721 0.133446,-0.138161 0.233018,-0.260885 0.221273,-0.27272 -0.03289,-0.03314 -2.399329,-0.07221 -6.2545979,-0.103274 -3.7586911,-0.03028 -5.2904165,-0.05088 -5.4348837,-0.07309 l -0.090698,-0.01395 v -1.00174 c 0,-0.608845 0.010492,-1.008223 0.02675,-1.018272 0.026173,-0.01618 2.7867521,-0.05167 6.4616216,-0.08307 1.013023,-0.0087 2.118139,-0.02182 2.455814,-0.02924 0.337674,-0.0074 1.059591,-0.02135 1.60426,-0.03095 0.544669,-0.0096 1.046995,-0.02588 1.116279,-0.03618 l 0.125972,-0.01873 -0.279069,-0.291677 C 15.32093,10.331833 14.284017,9.2585877 13.170167,8.1072659 10.922298,5.7837743 10.632558,5.47742 10.632558,5.4241468 c 0,-0.1032593 1.26207,-1.3776352 1.364332,-1.3776352 0.04109,0 0.331663,0.2640008 0.917665,0.8337447 1.169219,1.1367776 6.684347,6.6724947 6.865332,6.8909597 0.08013,0.09673 0.145694,0.199394 0.145694,0.228148 0,0.09997 -0.559055,0.675721 -3.876866,3.992626 -3.35376,3.352844 -3.951528,3.933591 -4.048877,3.933591 -0.02902,0 -0.125616,-0.06155 -0.214668,-0.136767 z"
     style="opacity:0.98;fill:#303f9f;fill-opacity:1;stroke:#303f9f;stroke-width:0.027907;stroke-opacity:1" />
  <path
     id="path919"
     d="m 11.814134,19.81792 c -0.23257,-0.185386 -1.122466,-1.111349 -1.141696,-1.187969 -0.03125,-0.124513 -0.163529,0.02034 2.499324,-2.736928 2.65066,-2.744643 2.580334,-2.669821 2.533868,-2.695825 -0.04933,-0.02761 -2.681592,-0.07375 -5.435863,-0.09529 -3.0394625,-0.02377 -6.2531786,-0.0673 -6.2819577,-0.08509 -0.034723,-0.02146 -0.032725,-2.013413 0.00204,-2.0349 0.027374,-0.01692 1.9559994,-0.04395 7.0613137,-0.09899 2.812364,-0.03032 4.625715,-0.06679 4.652498,-0.09357 0.03004,-0.03004 0.03978,-0.01975 -2.364143,-2.5009899 -2.401611,-2.4788617 -2.70696,-2.8018787 -2.70696,-2.8635894 0,-0.1181032 1.251008,-1.3782711 1.368253,-1.3782711 0.03274,0 0.306234,0.2421808 0.689519,0.6105831 0.986491,0.9481836 7.072126,7.0630193 7.163545,7.1979173 0.0665,0.09812 0.07669,0.133178 0.05563,0.191374 -0.0428,0.118281 -0.69126,0.780458 -4.05834,4.144209 -3.276034,3.272794 -3.752223,3.734986 -3.84809,3.734986 -0.02963,0 -0.114654,-0.04845 -0.188939,-0.107661 z"
     style="opacity:0.98;fill:#303f9f;fill-opacity:1;stroke:#303f9f;stroke-width:0.027907;stroke-opacity:1" />
  <path
     id="path921"
     d="m 11.814134,19.81792 c -0.23257,-0.185386 -1.122466,-1.111349 -1.141696,-1.187969 -0.03125,-0.124513 -0.163529,0.02034 2.499324,-2.736928 2.65066,-2.744643 2.580334,-2.669821 2.533868,-2.695825 -0.04933,-0.02761 -2.681592,-0.07375 -5.435863,-0.09529 -3.0394625,-0.02377 -6.2531786,-0.0673 -6.2819577,-0.08509 -0.034723,-0.02146 -0.032725,-2.013413 0.00204,-2.0349 0.027374,-0.01692 1.9559994,-0.04395 7.0613137,-0.09899 2.812364,-0.03032 4.625715,-0.06679 4.652498,-0.09357 0.03004,-0.03004 0.03978,-0.01975 -2.364143,-2.5009899 -2.401611,-2.4788617 -2.70696,-2.8018787 -2.70696,-2.8635894 0,-0.1181032 1.251008,-1.3782711 1.368253,-1.3782711 0.03274,0 0.306234,0.2421808 0.689519,0.6105831 0.986491,0.9481836 7.072126,7.0630193 7.163545,7.1979173 0.0665,0.09812 0.07669,0.133178 0.05563,0.191374 -0.0428,0.118281 -0.69126,0.780458 -4.05834,4.144209 -3.276034,3.272794 -3.752223,3.734986 -3.84809,3.734986 -0.02963,0 -0.114654,-0.04845 -0.188939,-0.107661 z"
     style="opacity:0.98;fill:#303f9f;fill-opacity:1;stroke:#303f9f;stroke-width:0.027907;stroke-opacity:1" />
  <path
     id="path923"
     d="m 11.814134,19.81792 c -0.23257,-0.185386 -1.122466,-1.111349 -1.141696,-1.187969 -0.03125,-0.124513 -0.163529,0.02034 2.499324,-2.736928 2.65066,-2.744643 2.580334,-2.669821 2.533868,-2.695825 -0.04933,-0.02761 -2.681592,-0.07375 -5.435863,-0.09529 -3.0394625,-0.02377 -6.2531786,-0.0673 -6.2819577,-0.08509 -0.034723,-0.02146 -0.032725,-2.013413 0.00204,-2.0349 0.027374,-0.01692 1.9559994,-0.04395 7.0613137,-0.09899 2.812364,-0.03032 4.625715,-0.06679 4.652498,-0.09357 0.03004,-0.03004 0.03978,-0.01975 -2.364143,-2.5009899 -2.401611,-2.4788617 -2.70696,-2.8018787 -2.70696,-2.8635894 0,-0.1181032 1.251008,-1.3782711 1.368253,-1.3782711 0.03274,0 0.306234,0.2421808 0.689519,0.6105831 0.986491,0.9481836 7.072126,7.0630193 7.163545,7.1979173 0.0665,0.09812 0.07669,0.133178 0.05563,0.191374 -0.0428,0.118281 -0.69126,0.780458 -4.05834,4.144209 -3.276034,3.272794 -3.752223,3.734986 -3.84809,3.734986 -0.02963,0 -0.114654,-0.04845 -0.188939,-0.107661 z"
     style="opacity:0.98;fill:#303f9f;fill-opacity:1;stroke:#303f9f;stroke-width:0.027907;stroke-opacity:1" />
</svg>
