<?xml version="1.0" encoding="UTF-8" standalone="no"?>
<svg
   xmlns:dc="http://purl.org/dc/elements/1.1/"
   xmlns:cc="http://creativecommons.org/ns#"
   xmlns:rdf="http://www.w3.org/1999/02/22-rdf-syntax-ns#"
   xmlns:svg="http://www.w3.org/2000/svg"
   xmlns="http://www.w3.org/2000/svg"
   xmlns:sodipodi="http://sodipodi.sourceforge.net/DTD/sodipodi-0.dtd"
   xmlns:inkscape="http://www.inkscape.org/namespaces/inkscape"
   inkscape:version="1.0 (4035a4fb49, 2020-05-01)"
   sodipodi:docname="dribbble.svg"
   id="svg4"
   version="1.1"
   viewBox="0 0 24 24"
   height="24"
   width="24">
  <metadata
     id="metadata10">
    <rdf:RDF>
      <cc:Work
         rdf:about="">
        <dc:format>image/svg+xml</dc:format>
        <dc:type
           rdf:resource="http://purl.org/dc/dcmitype/StillImage" />
      </cc:Work>
    </rdf:RDF>
  </metadata>
  <defs
     id="defs8" />
  <sodipodi:namedview
     inkscape:current-layer="svg4"
     inkscape:window-maximized="1"
     inkscape:window-y="-8"
     inkscape:window-x="-8"
     inkscape:cy="12.194955"
     inkscape:cx="9.6173374"
     inkscape:zoom="32"
     showgrid="false"
     id="namedview6"
     inkscape:window-height="1027"
     inkscape:window-width="1920"
     inkscape:pageshadow="2"
     inkscape:pageopacity="0"
     guidetolerance="10"
     gridtolerance="10"
     objecttolerance="10"
     borderopacity="1"
     bordercolor="#666666"
     pagecolor="#ffffff"
     inkscape:document-rotation="0" />
  <path
     id="path2"
     d="M12 0c-6.628 0-12 5.373-12 12s5.372 12 12 12 12-5.373 12-12-5.372-12-12-12zm9.885 11.441c-2.575-.422-4.943-.445-7.103-.073-.244-.563-.497-1.125-.767-1.68 2.31-1 4.165-2.358 5.548-4.082 1.35 1.594 2.197 3.619 2.322 5.835zm-3.842-7.282c-1.205 1.554-2.868 2.783-4.986 3.68-1.016-1.861-2.178-3.676-3.488-5.438.779-.197 1.591-.314 2.431-.314 2.275 0 4.368.779 6.043 2.072zm-10.516-.993c1.331 1.742 2.511 3.538 3.537 5.381-2.43.715-5.331 1.082-8.684 1.105.692-2.835 2.601-5.193 5.147-6.486zm-5.44 8.834l.013-.256c3.849-.005 7.169-.448 9.95-1.322.233.475.456.952.67 1.432-3.38 1.057-6.165 3.222-8.337 6.48-1.432-1.719-2.296-3.927-2.296-6.334zm3.829 7.81c1.969-3.088 4.482-5.098 7.598-6.027.928 2.42 1.609 4.91 2.043 7.46-3.349 1.291-6.953.666-9.641-1.433zm11.586.43c-.438-2.353-1.08-4.653-1.92-6.897 1.876-.265 3.94-.196 6.199.196-.437 2.786-2.028 5.192-4.279 6.701z" />
  <path
     id="path835"
     d="M 11.693023,23.980033 C 7.8715546,23.893359 4.24787,21.915374 2.0982813,18.742751 0.91470793,16.995891 0.24649434,15.114558 0.05610567,12.993074 0.01176463,12.498986 0.01920458,11.406395 0.07060629,10.863591 0.20646824,9.4288831 0.59613047,8.043991 1.2236337,6.7656352 1.5133563,6.1754096 1.6482684,5.9408559 2.0251803,5.372093 3.6826141,2.8710134 6.2283667,1.0783791 9.1394182,0.3624833 10.08933,0.12887759 10.952596,0.02675704 11.986047,0.02573958 c 1.881824,-0.0018527 3.605792,0.39163169 5.248318,1.19789412 0.587441,0.2883556 0.822476,0.42354 1.393542,0.8015199 2.63387,1.7433175 4.501435,4.5120582 5.118779,7.5887999 0.26433,1.3173795 0.301505,2.8726425 0.100392,4.1999995 -0.355416,2.34576 -1.388752,4.488025 -3.044387,6.311481 -0.752025,0.828254 -1.883588,1.729439 -2.884605,2.297322 -1.886121,1.070007 -4.032705,1.607002 -6.225063,1.557277 z m 1.269768,-2.102908 c 0.38883,-0.03812 0.914727,-0.126949 1.320005,-0.222953 0.379818,-0.08997 1.289297,-0.380877 1.289297,-0.412392 0,-0.04504 -0.232538,-1.250448 -0.323898,-1.678989 -0.35446,-1.66266 -0.905712,-3.567858 -1.509957,-5.218605 -0.115176,-0.314651 -0.211745,-0.574743 -0.214597,-0.577982 -0.0029,-0.0032 -0.18684,0.05489 -0.40886,0.129165 -2.521641,0.843654 -4.6137954,2.389137 -6.3876505,4.718584 -0.3071704,0.40338 -0.8108514,1.141787 -0.8108514,1.188725 0,0.03923 0.3127141,0.271029 0.7395349,0.54817 1.3793818,0.895651 2.9925234,1.432143 4.674419,1.554599 0.386156,0.02811 1.201143,0.01398 1.632558,-0.02832 z m 5.247405,-2.139355 c 0.168093,-0.134611 0.480074,-0.414282 0.693293,-0.621491 1.307932,-1.27107 2.228488,-2.846188 2.682972,-4.590698 0.120835,-0.463821 0.216481,-0.966931 0.188631,-0.992233 -0.05183,-0.04709 -1.509633,-0.237246 -2.337883,-0.304958 -0.608929,-0.04978 -1.881056,-0.06636 -2.455814,-0.03201 -0.608627,0.03638 -1.357342,0.112598 -1.388912,0.141396 -0.01181,0.01077 -0.0013,0.07523 0.02346,0.143231 0.80514,2.215592 1.453627,4.519862 1.797979,6.388761 0.03252,0.176512 0.06459,0.337438 0.07126,0.357613 0.01483,0.04486 0.287777,-0.139464 0.725016,-0.48961 z M 4.5800051,18.076744 c 2.0217056,-2.951781 4.6918443,-5.038297 7.7967389,-6.092578 0.168837,-0.05733 0.317809,-0.113795 0.331048,-0.12548 0.02293,-0.02024 -0.26801,-0.681336 -0.531062,-1.206743 -0.09594,-0.19163 -0.133548,-0.242555 -0.17081,-0.231305 -1.668834,0.503872 -3.2631562,0.82853 -5.1408037,1.046843 -1.3194039,0.153406 -2.9502876,0.252587 -4.1628951,0.253162 l -0.6047555,2.87e-4 -0.018612,0.174419 c -0.021944,0.205647 0.026864,1.021784 0.087201,1.458139 0.2066311,1.494331 0.750879,2.916229 1.6022581,4.186047 0.2266861,0.338098 0.577903,0.795349 0.6109127,0.795349 0.013187,0 0.1035377,-0.116163 0.2007796,-0.25814 z M 21.890492,11.295349 C 21.82019,10.551906 21.734197,10.036499 21.586683,9.4744186 21.227136,8.1044263 20.58183,6.8325212 19.685995,5.7281411 L 19.56734,5.5818639 19.336107,5.8537225 c -0.891441,1.0480605 -2.052547,2.022833 -3.321715,2.7886474 -0.405542,0.244704 -1.471365,0.7997291 -1.816718,0.9460523 -0.103604,0.043896 -0.188372,0.088922 -0.188372,0.1000566 0,0.011135 0.09986,0.2337561 0.221921,0.4947142 0.122057,0.260958 0.293585,0.638916 0.381174,0.839906 0.152551,0.350057 0.162296,0.3648 0.231568,0.350306 0.188909,-0.03953 0.873489,-0.128326 1.300221,-0.168656 1.118571,-0.105716 2.596929,-0.105427 3.753488,7.34e-4 0.452905,0.04157 1.456205,0.163685 1.702326,0.207193 0.06907,0.01221 0.165804,0.02377 0.214964,0.02569 l 0.08938,0.0035 z M 3.9627907,9.627221 C 6.5242245,9.5129238 8.6287125,9.2161727 10.590564,8.6926479 10.849151,8.6236434 11.065884,8.5620229 11.072193,8.5557137 11.086717,8.54119 10.519852,7.5558388 10.16616,6.980806 9.5362647,5.9567185 8.910312,5.0222311 8.19132,4.0325581 7.6412459,3.2753961 7.5508147,3.1558853 7.5270145,3.1546348 7.4806384,3.1521985 6.7812424,3.5606043 6.4615183,3.7768217 5.9338775,4.1336453 5.4643317,4.5231762 4.9945719,4.9937869 3.9527972,6.0374487 3.1767642,7.2483871 2.6911219,8.5881391 2.5725764,8.9151734 2.372093,9.5699844 2.372093,9.6301387 c 0,0.033877 0.7989536,0.032412 1.5906977,-0.00292 z M 13.773801,7.5235811 c 1.349611,-0.6589119 2.324942,-1.3247305 3.274266,-2.235209 0.276496,-0.2651821 0.760474,-0.796406 0.93689,-1.0283481 l 0.0817,-0.1074176 -0.06821,-0.053762 C 17.821839,3.9596534 17.032708,3.449477 16.75814,3.296981 14.815482,2.2180266 12.463733,1.8308756 10.288275,2.2318951 9.9700976,2.2905472 9.5965144,2.3726094 9.5657953,2.3905967 c -0.011138,0.00652 0.069774,0.1337475 0.1798052,0.2827236 1.0405485,1.4088475 2.2087675,3.221899 3.0484475,4.7311257 0.235038,0.4224524 0.248902,0.4408822 0.31886,0.4238729 0.04023,-0.00978 0.337628,-0.1469124 0.660893,-0.3047378 z"
     style="opacity:0.98;fill:#707070;stroke-width:0.027907" />
  <path
     style="opacity:0.98;fill:#ececec;stroke:#ffffff;stroke-width:0.00139535"
     d="M 11.176744,23.944467 C 7.7098317,23.676975 4.5404332,21.962447 2.478029,19.238783 1.0100405,17.300119 0.17298418,15.019391 0.05653774,12.640944 0.02711246,12.039926 0.06007502,11.001843 0.12429829,10.506977 0.52489831,7.4201885 2.114015,4.5868607 4.5238269,2.6628034 6.0615228,1.4350665 7.8592548,0.60686783 9.7813953,0.24068992 c 1.3118657,-0.2499174 2.8331827,-0.26485237 4.1999997,-0.041232 1.339615,0.21916997 2.712179,0.70244173 3.867255,1.36163798 2.901746,1.6560125 4.990781,4.3971039 5.774795,7.5772987 0.226303,0.9179524 0.326823,1.7999124 0.327739,2.8755584 10e-4,1.222299 -0.133957,2.204486 -0.458366,3.334884 -0.526485,1.834534 -1.632865,3.702237 -3.008964,5.079497 -1.959404,1.961057 -4.390824,3.137165 -7.158273,3.462546 -0.539272,0.0634 -1.659514,0.09134 -2.148837,0.05359 z m 1.53986,-2.034912 c 0.309089,-5.64e-4 1.319217,-0.169652 1.78107,-0.298135 0.447871,-0.124594 0.87907,-0.269821 0.87907,-0.296069 0,-0.01409 0.0115,-0.01851 0.02557,-0.0098 0.05157,0.03187 0.169784,-0.03769 0.169784,-0.09991 0,-0.111962 -0.119428,-0.707818 -0.143769,-0.717304 -0.01321,-0.0051 -0.01693,-0.02083 -0.0083,-0.03485 0.02182,-0.0353 -0.18234,-1.041957 -0.213662,-1.053524 -0.01394,-0.0051 -0.018,-0.02124 -0.009,-0.03576 0.0213,-0.03446 -0.130099,-0.694416 -0.159302,-0.694416 -0.0123,0 -0.01607,-0.01637 -0.0084,-0.03638 0.02817,-0.0734 -0.429509,-1.739273 -0.783547,-2.851989 -0.196048,-0.616163 -0.674588,-1.964851 -0.711323,-2.004747 -0.02556,-0.02776 -0.334797,0.06448 -0.334797,0.09986 0,0.01345 -0.01155,0.01732 -0.02566,0.0086 -0.03374,-0.02085 -0.654852,0.198293 -0.667227,0.235419 -0.0053,0.01576 -0.02059,0.02184 -0.03408,0.0135 -0.02999,-0.01853 -0.44617,0.156449 -0.933498,0.392487 -2.0460534,0.991009 -3.8840572,2.648512 -5.3681003,4.840928 -0.1402596,0.207209 -0.2550485,0.398429 -0.2550868,0.424932 -1.953e-4,0.143195 1.2085346,0.907022 1.9913261,1.258359 0.4032508,0.18099 0.8722234,0.35892 0.959748,0.364133 0.034524,0.0021 0.06278,0.0145 0.062791,0.02765 1.09e-5,0.01315 0.018857,0.01669 0.04188,0.0079 0.023023,-0.0088 0.041861,-0.0053 0.041861,0.0078 0,0.03206 0.6334713,0.20613 0.669384,0.183934 0.01556,-0.0096 0.02829,-0.0056 0.02829,0.0089 0,0.0475 1.151071,0.247358 1.260232,0.218812 0.02827,-0.0074 0.0514,-9.44e-4 0.0514,0.01433 0,0.01639 0.06864,0.0239 0.167492,0.01832 0.09212,-0.0052 0.16747,0.0012 0.167442,0.01421 -2.8e-5,0.01301 0.279368,0.01678 0.62088,0.0084 0.341511,-0.0084 0.673402,-0.01539 0.737534,-0.0155 z m 5.076907,-1.834798 c 1.354941,-0.969923 2.559352,-2.438084 3.235057,-3.943494 0.202518,-0.451192 0.438314,-1.088242 0.420237,-1.135351 -0.008,-0.02078 -0.0038,-0.03777 0.0094,-0.03777 0.03,0 0.199882,-0.607947 0.206609,-0.73938 0.0027,-0.05367 0.01268,-0.09764 0.02207,-0.0977 0.02183,-1.67e-4 0.122241,-0.581739 0.103647,-0.600333 -0.0187,-0.0187 -0.855552,-0.149561 -1.083512,-0.169434 -0.09977,-0.0087 -0.382326,-0.04043 -0.627907,-0.07052 -0.245582,-0.03009 -0.493498,-0.05083 -0.550925,-0.04609 -0.05743,0.0047 -0.108459,-0.0035 -0.113405,-0.01836 -0.01897,-0.05691 -3.111875,-0.0294 -3.205572,0.02851 -0.01304,0.0081 -0.105573,0.0194 -0.205626,0.02519 -0.294671,0.01707 -0.431449,0.04423 -0.431449,0.08569 0,0.02075 0.05142,0.185723 0.114264,0.366599 0.596932,1.718034 1.081625,3.323785 1.352289,4.480028 0.02785,0.118953 0.0605,0.216279 0.07256,0.216279 0.01206,0 0.0153,0.01728 0.0072,0.0384 -0.0081,0.02112 0.0043,0.112169 0.02759,0.202326 0.03536,0.136923 0.323782,1.528726 0.323782,1.562413 0,0.04815 0.139824,-0.01533 0.323744,-0.146991 z M 4.7155942,17.911256 c 0.6406981,-0.892575 1.126476,-1.477574 1.8005221,-2.168282 1.6900655,-1.731844 3.6116207,-2.958354 5.8691867,-3.746244 0.403173,-0.140707 0.387457,-0.07868 0.153896,-0.607359 -0.234296,-0.530343 -0.447096,-0.942974 -0.495979,-0.961732 -0.024,-0.0092 -0.291563,0.05251 -0.594589,0.137152 -2.5779601,0.720087 -5.1445421,1.061314 -8.6020522,1.143644 -0.5126429,0.01221 -0.7457774,0.02752 -0.7600378,0.04993 -0.027148,0.04267 -0.023146,0.66699 0.0062,0.967211 0.012753,0.130466 0.029898,0.325117 0.038102,0.432559 0.030291,0.396725 0.2449302,1.43936 0.300667,1.460523 0.013559,0.0051 0.017688,0.02063 0.00918,0.0344 -0.03554,0.0575 0.3898653,1.261876 0.4762184,1.348229 0.021217,0.02122 0.031921,0.04523 0.023786,0.05337 -0.024993,0.02499 0.3945073,0.827599 0.6244058,1.194637 0.1195309,0.190834 0.3301202,0.496294 0.4679765,0.6788 0.1378563,0.182506 0.2632058,0.348962 0.2785546,0.369903 0.015349,0.02094 0.046436,0.03455 0.069083,0.03025 0.022647,-0.0043 0.1733442,-0.191949 0.3348838,-0.416995 z M 21.906977,11.370759 c 0,-0.113077 -0.0843,-0.831544 -0.102991,-0.877736 -0.0093,-0.02302 -0.01433,-0.06892 -0.01114,-0.101986 0.0032,-0.03307 -0.0077,-0.06847 -0.02421,-0.07867 -0.01651,-0.0102 -0.02267,-0.03042 -0.01371,-0.04493 0.02952,-0.04777 -0.172064,-0.9465068 -0.2123,-0.9465068 -0.01353,0 -0.01823,-0.016585 -0.01045,-0.036855 0.02029,-0.052875 -0.21693,-0.7470757 -0.411768,-1.2050055 C 20.888546,7.5341235 20.604379,7.0112464 20.255916,6.488372 19.956117,6.0385188 19.609539,5.5813953 19.568271,5.5813953 c -0.01226,0 -0.150176,0.1487777 -0.306483,0.3306167 -0.714708,0.8314535 -1.703055,1.6933915 -2.721234,2.3731901 -0.528959,0.3531659 -0.942582,0.5867316 -1.791717,1.0117529 -0.39907,0.1997484 -0.729285,0.3791925 -0.733812,0.3987651 -0.0045,0.019572 0.06929,0.2038334 0.164027,0.4094679 0.09474,0.205635 0.259265,0.568533 0.365605,0.80644 0.106341,0.237907 0.203942,0.443227 0.216892,0.456268 0.01295,0.01304 0.210039,-0.0025 0.437975,-0.03448 1.439873,-0.202156 3.022402,-0.247336 4.491127,-0.128216 0.478547,0.03881 1.831707,0.19694 1.895396,0.221492 0.01535,0.0059 0.09384,0.01175 0.174418,0.01296 0.138984,0.0021 0.146512,-0.0014 0.146512,-0.0689 z M 4.9395348,9.5880312 c 0.8902876,-0.064016 1.014528,-0.074742 1.0604651,-0.091553 0.023023,-0.00843 0.093954,-0.012826 0.1576234,-0.00978 0.06367,0.00305 0.1230212,-0.0062 0.1318923,-0.020558 0.00887,-0.014354 0.044685,-0.020696 0.079586,-0.014093 0.131937,0.02496 2.1200903,-0.2564406 2.1379335,-0.3025995 0.00515,-0.013318 0.020051,-0.017607 0.033118,-0.00953 0.03205,0.019808 0.4179865,-0.045165 0.4179865,-0.070369 0,-0.010971 0.031395,-0.013946 0.069767,-0.00661 0.039752,0.0076 0.069768,3.07e-4 0.069768,-0.016948 0,-0.016656 0.016828,-0.023827 0.037395,-0.015935 0.068713,0.026367 1.8625134,-0.4044474 1.9252594,-0.4623867 0.0297,-0.02743 -0.05143,-0.185872 -0.417197,-0.8146923 C 9.855867,6.3995171 8.9152722,4.9794267 7.8785514,3.5790697 7.6901668,3.3246077 7.5446612,3.1534883 7.516673,3.1534883 c -0.1292997,0 -1.1885677,0.6721404 -1.6980684,1.0774803 C 5.4289864,4.5409344 4.5737533,5.3940156 4.2673961,5.778274 3.4547388,6.797576 2.9471226,7.7443161 2.5427873,8.9947917 2.464306,9.2375084 2.3918988,9.4873448 2.3818824,9.5499834 L 2.3636709,9.6638721 3.351603,9.647523 C 3.8949655,9.6385311 4.6095348,9.61176 4.9395348,9.5880312 Z M 13.738793,7.5546175 c 1.434711,-0.6965556 2.505848,-1.4385265 3.451905,-2.3911158 0.314139,-0.3163086 0.893023,-0.970776 0.893023,-1.0096236 0,-0.024064 -0.720815,-0.5099046 -1.102642,-0.743198 C 16.494501,3.1133843 15.730055,2.7664705 15.111628,2.562303 14.536517,2.3724358 13.593267,2.1664571 13.130233,2.129623 13.038143,2.122293 12.856047,2.105785 12.725581,2.092929 12.146681,2.035885 11.240782,2.070642 10.545293,2.176582 10.206145,2.228243 9.5747721,2.3601116 9.5505357,2.3843479 c -0.013992,0.013992 0.063648,0.1289232 0.5101523,0.7551869 0.926309,1.2992322 1.856799,2.7528553 2.581309,4.0325582 0.39701,0.7012367 0.380682,0.67872 0.478044,0.6592476 0.04562,-0.00912 0.324061,-0.1336498 0.618752,-0.2767231 z"
     id="path831" />
  <path
     style="opacity:0.98;fill:#ffffff;stroke:#ffffff;stroke-width:0.00139535"
     d="M 11.065116,23.926606 C 9.7493548,23.784025 8.7260135,23.541301 7.6465116,23.115753 4.3420713,21.813119 1.8354261,19.185865 0.67906656,15.813063 0.42385588,15.068679 0.24168583,14.269 0.13452354,13.422662 0.08193792,13.007356 0.07282202,12.80013 0.07316811,12.027907 0.07370699,10.825517 0.14666451,10.172473 0.3904718,9.187719 1.2435104,5.742238 3.5176208,2.8917507 6.6768111,1.3080969 7.8938933,0.69799231 9.335333,0.2705164 10.664771,0.12542065 c 0.571146,-0.06233528 1.593914,-0.08346092 2.130578,-0.04400786 2.389834,0.17568958 4.470424,0.94631301 6.334884,2.34635851 0.986487,0.740765 1.913189,1.6906091 2.631825,2.6975486 0.965684,1.3530974 1.706922,3.0974791 1.987096,4.6763021 0.158776,0.894729 0.221939,1.939855 0.172029,2.846499 -0.04865,0.883816 -0.12624,1.425231 -0.31504,2.198391 -0.816591,3.344038 -3.157963,6.280388 -6.23765,7.822731 -1.26622,0.634138 -2.602062,1.033004 -4.042912,1.207164 -0.349366,0.04223 -1.996467,0.07881 -2.260465,0.0502 z m 1.859834,-2.020578 c 0.683869,-0.06828 1.537031,-0.248914 2.107243,-0.446148 0.181829,-0.06289 0.361993,-0.121572 0.400365,-0.130396 0.03837,-0.0088 0.08546,-0.02845 0.104651,-0.04362 0.04923,-0.03892 0.04159,-0.21691 -0.02185,-0.509117 -0.02999,-0.138139 -0.07377,-0.356223 -0.09728,-0.484631 -0.02351,-0.128408 -0.07473,-0.379571 -0.113814,-0.558139 -0.03908,-0.17857 -0.09515,-0.443974 -0.124581,-0.589788 -0.02944,-0.145814 -0.07155,-0.327907 -0.09358,-0.404651 -0.02203,-0.07674 -0.08046,-0.30907 -0.129832,-0.516279 -0.238184,-0.999578 -0.840492,-2.949054 -1.257456,-4.069982 l -0.148873,-0.400214 -0.103567,0.01656 c -0.05696,0.0091 -0.138839,0.0308 -0.18195,0.0482 -0.04311,0.01741 -0.210243,0.07834 -0.371406,0.135404 -0.54411,0.192671 -0.738177,0.270736 -1.158139,0.465872 -1.798358,0.83561 -3.4074963,2.140131 -4.8127256,3.901656 -0.4955805,0.621234 -1.0056508,1.36714 -1.0058077,1.470851 -1.116e-4,0.07164 0.1449804,0.195783 0.5301609,0.453615 0.429965,0.287809 1.10323,0.664326 1.5011559,0.839506 0.9502409,0.418326 2.0433134,0.711063 3.0058205,0.804991 0.476789,0.04653 1.577589,0.05563 1.971462,0.01631 z m 4.750354,-1.742146 c 0.510712,-0.307535 1.399273,-1.124187 1.962975,-1.804116 0.446925,-0.539075 0.87198,-1.174221 1.180962,-1.764675 0.174952,-0.334328 0.484955,-1.061859 0.578596,-1.357882 0.178402,-0.563969 0.23471,-0.758921 0.270024,-0.934883 0.02156,-0.107442 0.05907,-0.29378 0.08335,-0.414083 0.05515,-0.27331 0.05579,-0.370827 0.0025,-0.391263 -0.08051,-0.0309 -0.98334,-0.153995 -1.549085,-0.211216 -0.314651,-0.03182 -0.67321,-0.07042 -0.796798,-0.08577 -0.464718,-0.05771 -2.725867,-0.02221 -3.445063,0.05408 -0.363686,0.03858 -0.390736,0.04695 -0.39049,0.120872 1.11e-4,0.03424 0.09491,0.338538 0.210653,0.676213 0.520816,1.519421 1.209664,3.849874 1.323948,4.47907 0.01254,0.06907 0.06705,0.33279 0.121113,0.586046 0.05407,0.253256 0.125218,0.598605 0.158115,0.767442 0.0704,0.361309 0.07471,0.376744 0.105334,0.376744 0.0129,0 0.09563,-0.04346 0.18384,-0.09658 z M 4.5694314,18.129556 c 0.08844,-0.112931 0.288835,-0.379791 0.4453205,-0.593024 1.8677523,-2.545057 4.3739094,-4.447295 7.1834531,-5.452428 0.502945,-0.179932 0.536887,-0.200529 0.512607,-0.311076 -0.03654,-0.166349 -0.517156,-1.17918 -0.619504,-1.305508 l -0.05458,-0.06736 -0.33232,0.08548 c -0.182775,0.04701 -0.602319,0.154634 -0.932319,0.239158 -2.144309,0.549228 -4.4438202,0.851322 -7.1691548,0.941834 -0.5004533,0.01662 -1.0480546,0.03878 -1.2168918,0.04924 l -0.3069767,0.01902 -0.00901,0.376744 c -0.015854,0.662598 0.092036,1.583994 0.2601654,2.221844 0.039988,0.151707 0.090062,0.3449 0.1112746,0.429319 0.1406952,0.559905 0.4889486,1.387736 0.8863677,2.106976 0.3072617,0.556077 0.9461805,1.462273 1.0322662,1.464092 0.027802,5.89e-4 0.1171279,-0.0866 0.2093024,-0.204303 z M 21.906977,11.293575 c 0,-0.291898 -0.152061,-1.271055 -0.261405,-1.6832483 C 21.490555,9.025956 21.45683,8.916039 21.319989,8.5491731 21.028104,7.7666425 20.710634,7.1453838 20.252634,6.4604651 19.953091,6.0125112 19.621185,5.5813953 19.575859,5.5813953 c -0.02022,0 -0.13429,0.1098837 -0.253486,0.244186 -0.359906,0.4055213 -1.147139,1.1759303 -1.516174,1.4837713 -0.979529,0.817104 -1.624654,1.2319069 -3.108634,1.9987948 -0.687523,0.3552966 -0.693005,0.3588388 -0.677246,0.4376319 0.0087,0.04369 0.17485,0.4306227 0.369137,0.8598517 0.33999,0.751118 0.356174,0.780416 0.431128,0.780416 0.04283,0 0.270258,-0.02438 0.50539,-0.05417 0.996875,-0.126307 1.688634,-0.169088 2.73412,-0.169088 0.44032,0 0.993093,0.01275 1.228384,0.02833 0.429819,0.02846 1.841657,0.176628 2.10222,0.220619 0.07674,0.01296 0.224302,0.02503 0.327907,0.02684 l 0.188372,0.0033 z M 3.9627906,9.6407757 C 5.198427,9.6086252 6.786965,9.458299 7.9813953,9.2604879 8.2653488,9.2134618 8.5730232,9.1637076 8.6651162,9.149923 8.7572093,9.1361383 8.8702325,9.1132869 8.916279,9.0991423 8.9623256,9.0849976 9.1444186,9.046575 9.3209302,9.0137587 9.696946,8.9438511 10.3214,8.7975536 10.765116,8.6754134 c 0.228231,-0.062824 0.313954,-0.098261 0.313954,-0.1297862 0,-0.082631 -0.485725,-0.9332874 -1.05518,-1.8479528 C 9.4446203,5.7672454 8.4577797,4.3210102 7.8625816,3.5302325 7.6339149,3.2264268 7.5624806,3.1534883 7.4936076,3.1534883 7.3765632,3.1534883 6.5766973,3.6489795 5.972093,4.096018 5.5032318,4.4426893 4.4290118,5.5250025 4.0546501,6.0279069 3.4381916,6.8560359 3.0470751,7.569327 2.6985796,8.5010146 2.5763315,8.8278396 2.3968107,9.4042169 2.3577686,9.5952371 l -0.01899,0.092911 0.5120059,-0.015881 c 0.2816031,-0.00873 0.7820059,-0.022906 1.1120061,-0.031491 z M 13.821918,7.5252521 C 14.825906,7.0302586 15.562459,6.5742837 16.270434,6.0094599 16.872432,5.5291847 18.099003,4.2724822 18.077154,4.1583566 18.067619,4.1085479 17.62382,3.7935956 17.134325,3.4892544 15.941628,2.7477027 14.469255,2.2519576 13.031212,2.1077448 12.541833,2.0586678 11.60271,2.0520234 11.134884,2.0943279 10.50855,2.1509659 9.5778042,2.3247377 9.5528793,2.3896908 c -0.00776,0.020209 0.2047616,0.3478896 0.4722597,0.7281781 1.039935,1.4784252 1.820439,2.6972239 2.590474,4.0451677 0.378707,0.6629255 0.398968,0.6890439 0.519349,0.6695088 0.05221,-0.00847 0.361336,-0.1467539 0.686956,-0.3072933 z"
     id="path833" />
  <path
     style="opacity:0.98;fill:#ffffff;stroke:#ffffff;stroke-width:0.2;stroke-opacity:1;stroke-miterlimit:4;stroke-dasharray:none"
     d="m 10.911628,23.897771 c -0.03837,-0.006 -0.247759,-0.03576 -0.465304,-0.06614 C 8.1591647,23.512234 6.0683291,22.583362 4.2837209,21.093838 3.9239101,20.793521 3.2593609,20.132236 2.9414307,19.75814 1.3244086,17.855451 0.32117476,15.484597 0.1131946,13.074419 0.05264649,12.372757 0.08885367,10.953535 0.18403491,10.297674 0.35842973,9.0959804 0.75784979,7.8351332 1.3269619,6.6898029 3.0913205,3.1390562 6.5006966,0.70030946 10.449186,0.16462278 c 0.617988,-0.08384164 2.032906,-0.10538155 2.667093,-0.0406023 2.43499,0.24872299 4.465582,1.07717612 6.35964,2.59464312 0.699884,0.5607284 1.540636,1.436441 2.111812,2.1996276 1.063678,1.421251 1.831622,3.1686103 2.14341,4.8770576 0.14016,0.7680092 0.169545,1.1433992 0.170394,2.1767442 8.37e-4,1.020502 -0.02232,1.360538 -0.14035,2.061176 -0.613624,3.642402 -3.074179,6.956693 -6.405993,8.628675 -1.387833,0.696448 -3.057804,1.152917 -4.490076,1.227315 -0.474506,0.02465 -1.812976,0.03048 -1.953488,0.0085 z M 13.13578,21.89216 c 0.776388,-0.100719 1.643365,-0.308471 2.289801,-0.5487 l 0.146512,-0.05445 v -0.149726 c 0,-0.279917 -0.418303,-2.240952 -0.714278,-3.348589 -0.277141,-1.03715 -0.829237,-2.786764 -1.167787,-3.700757 l -0.130353,-0.35192 -0.119846,0.02239 c -0.138505,0.02588 -0.939683,0.314333 -1.328201,0.478207 -2.015972,0.850324 -3.8665874,2.333597 -5.3892816,4.319523 -0.5265076,0.68668 -0.8140438,1.136561 -0.8005817,1.252594 0.02158,0.186001 1.3828666,1.024387 2.2196283,1.367018 0.9258405,0.379106 1.968456,0.644845 2.853956,0.727409 0.444719,0.04147 1.783249,0.03334 2.140431,-0.013 z m 4.660066,-1.796921 c 0.344554,-0.231407 0.762697,-0.589251 1.206526,-1.032538 1.144628,-1.143232 1.94037,-2.424932 2.435693,-3.923166 0.244972,-0.740982 0.417434,-1.592089 0.333163,-1.644172 -0.04969,-0.03071 -0.892193,-0.147468 -1.747972,-0.242242 l -0.781395,-0.08654 -1.395349,0.01441 c -1.273226,0.01315 -1.954313,0.04419 -2.176745,0.0992 -0.06238,0.01543 -0.08589,0.03905 -0.09225,0.09266 -0.0047,0.03958 0.135845,0.509781 0.312297,1.044899 0.698899,2.119526 1.042438,3.346567 1.348669,4.817127 0.182682,0.877261 0.220639,1.025581 0.262456,1.025581 0.02689,0 0.159593,-0.07435 0.294902,-0.165226 z M 4.4967527,18.230174 c 0.05167,-0.05759 0.2778985,-0.349567 0.5027305,-0.648837 0.6275498,-0.835321 0.9548573,-1.213821 1.6544763,-1.913243 0.8686563,-0.868411 1.4979087,-1.386441 2.4332456,-2.003164 0.9840529,-0.648844 1.8579649,-1.093011 3.0025819,-1.526065 0.547394,-0.207101 0.635794,-0.253713 0.635794,-0.335236 0,-0.109989 -0.513051,-1.206117 -0.635043,-1.356763 l -0.04868,-0.06011 -1.032558,0.260435 c -2.6773881,0.6753 -4.3971156,0.894995 -8.0790695,1.032102 -0.2225582,0.0083 -0.5082558,0.02253 -0.6348838,0.03165 l -0.2302325,0.01659 2.989e-4,0.492048 c 4.867e-4,0.801697 0.081717,1.425078 0.2968495,2.278094 0.2723596,1.079927 0.7170662,2.060862 1.3916794,3.069768 0.3276804,0.490057 0.5490321,0.767442 0.6124147,0.767442 0.020047,0 0.078724,-0.04712 0.130394,-0.10471 z M 21.898934,11.127907 C 21.879031,10.745445 21.742981,9.9292018 21.626032,9.4906122 21.309505,8.3035543 20.842462,7.2877434 20.161282,6.3047994 19.890605,5.9142119 19.626924,5.5813953 19.588151,5.5813953 c -0.01638,0 -0.358439,0.329887 -0.760129,0.7330819 -1.373483,1.3786262 -2.112215,1.9155163 -4.009417,2.913935 -0.391396,0.2059752 -0.736199,0.3987644 -0.76623,0.4284206 -0.04965,0.049034 -0.05123,0.063444 -0.01742,0.1590089 0.05604,0.1584104 0.551173,1.2571873 0.638404,1.4167163 l 0.0763,0.139535 0.194942,-0.0017 c 0.107217,-9.4e-4 0.427266,-0.02885 0.71122,-0.06203 0.83429,-0.09747 1.318144,-0.121435 2.442073,-0.12095 1.101355,4.75e-4 1.770071,0.04489 2.943974,0.19552 0.222558,0.02856 0.510122,0.0535 0.63903,0.05543 l 0.23438,0.0035 z M 3.7674418,9.6550431 C 6.1604986,9.5801422 8.2148525,9.3149908 10.258349,8.8172749 10.950152,8.6487787 11.07907,8.6043242 11.07907,8.5342674 11.07907,8.2372512 8.2506376,3.8765835 7.6658988,3.2720929 7.5941659,3.1979368 7.5262858,3.1534883 7.4847706,3.1534883 c -0.088612,0 -0.3456748,0.1442489 -0.8847707,0.4964833 C 6.025503,4.0253363 5.7609323,4.2330792 5.331406,4.646081 4.5139163,5.4321203 4.120772,5.8826201 3.6993128,6.516279 3.2226052,7.2330027 2.8643726,7.9644837 2.5841088,8.7934317 2.4452101,9.2042581 2.3145352,9.6726748 2.3335269,9.6916666 c 0.00666,0.00666 0.1279449,0.00753 0.2695231,0.00194 0.1415783,-0.00559 0.6655546,-0.022947 1.1643918,-0.03856 z M 13.540484,7.6723336 c 1.213563,-0.5543171 2.337651,-1.2722199 3.137503,-2.0037781 0.629638,-0.5758778 1.405734,-1.4018322 1.405734,-1.4960431 0,-0.051211 -0.166252,-0.1830522 -0.572093,-0.4536779 C 16.260761,2.8847223 14.960696,2.3818951 13.438088,2.1433078 13.148149,2.0978754 12.893367,2.0836259 12.181395,2.0730233 11.207392,2.0585186 10.793376,2.0919221 10.029073,2.246676 9.6515076,2.3231243 9.544186,2.35694 9.544186,2.3994577 c 0,0.027643 0.181262,0.2987418 1.091923,1.6331004 0.703581,1.0309328 1.26615,1.9261289 1.934602,3.078466 0.369881,0.6376348 0.437818,0.7308363 0.532719,0.7308363 0.03625,0 0.232925,-0.076287 0.437054,-0.1695268 z"
     id="path836" />
</svg>
