<?xml version="1.0" encoding="UTF-8" standalone="no"?>
<svg
   xmlns:dc="http://purl.org/dc/elements/1.1/"
   xmlns:cc="http://creativecommons.org/ns#"
   xmlns:rdf="http://www.w3.org/1999/02/22-rdf-syntax-ns#"
   xmlns:svg="http://www.w3.org/2000/svg"
   xmlns="http://www.w3.org/2000/svg"
   xmlns:sodipodi="http://sodipodi.sourceforge.net/DTD/sodipodi-0.dtd"
   xmlns:inkscape="http://www.inkscape.org/namespaces/inkscape"
   width="24"
   height="24"
   viewBox="0 0 24 24"
   version="1.1"
   id="svg4"
   sodipodi:docname="vk.svg"
   inkscape:version="1.0 (4035a4fb49, 2020-05-01)">
  <metadata
     id="metadata10">
    <rdf:RDF>
      <cc:Work
         rdf:about="">
        <dc:format>image/svg+xml</dc:format>
        <dc:type
           rdf:resource="http://purl.org/dc/dcmitype/StillImage" />
      </cc:Work>
    </rdf:RDF>
  </metadata>
  <defs
     id="defs8" />
  <sodipodi:namedview
     inkscape:document-rotation="0"
     pagecolor="#ffffff"
     bordercolor="#666666"
     borderopacity="1"
     objecttolerance="10"
     gridtolerance="10"
     guidetolerance="10"
     inkscape:pageopacity="0"
     inkscape:pageshadow="2"
     inkscape:window-width="1920"
     inkscape:window-height="1027"
     id="namedview6"
     showgrid="false"
     inkscape:zoom="35.833333"
     inkscape:cx="12"
     inkscape:cy="12"
     inkscape:window-x="-8"
     inkscape:window-y="-8"
     inkscape:window-maximized="1"
     inkscape:current-layer="svg4" />
  <path
     class="st0"
     d="M13.162 18.994c.609 0 .858-.406.851-.915-.031-1.917.714-2.949 2.059-1.604 1.488 1.488 1.796 2.519 3.603 2.519h3.2c.808 0 1.126-.26 1.126-.668 0-.863-1.421-2.386-2.625-3.504-1.686-1.565-1.765-1.602-.313-3.486 1.801-2.339 4.157-5.336 2.073-5.336h-3.981c-.772 0-.828.435-1.103 1.083-.995 2.347-2.886 5.387-3.604 4.922-.751-.485-.407-2.406-.35-5.261.015-.754.011-1.271-1.141-1.539-.629-.145-1.241-.205-1.809-.205-2.273 0-3.841.953-2.95 1.119 1.571.293 1.42 3.692 1.054 5.16-.638 2.556-3.036-2.024-4.035-4.305-.241-.548-.315-.974-1.175-.974h-3.255c-.492 0-.787.16-.787.516 0 .602 2.96 6.72 5.786 9.77 2.756 2.975 5.48 2.708 7.376 2.708z"
     id="path2" />
  <path
     style="opacity:0.98;fill:#707070;stroke-width:0.027907"
     d="M 11.093023,18.946718 C 9.4880838,18.811781 8.1338408,18.275563 6.8651163,17.272661 6.4701661,16.96046 5.6423447,16.124274 5.2368173,15.627907 3.9507491,14.053757 2.6698643,12.049308 1.3659882,9.5704697 0.83521641,8.5614036 0.30465151,7.4224411 0.11224863,6.8790698 -0.08214923,6.3300644 0.06803817,6.0863519 0.63770816,6.0263947 0.9640325,5.9920494 3.8818203,5.9939505 4.2139535,6.0287249 c 0.3125232,0.032721 0.5137875,0.1182401 0.6426061,0.273049 0.09311,0.1118953 0.1516002,0.228948 0.4209486,0.8424121 0.2467311,0.561952 0.8608367,1.7952109 1.1603475,2.3302326 0.5773965,1.0314144 1.0201075,1.6712694 1.4581189,2.1074344 0.3428721,0.341427 0.5235424,0.452845 0.7393683,0.455965 0.3458936,0.005 0.5347471,-0.274377 0.6854844,-1.014057 C 9.5970536,9.6682951 9.5614027,8.1176972 9.2323072,7.1736745 9.0289401,6.5903083 8.7295401,6.2636103 8.2697634,6.1233698 8.0587674,6.059012 7.9534884,6.0007703 7.9534884,5.9484022 c 0,-0.030644 0.089819,-0.1523791 0.1526299,-0.2068657 0.1993753,-0.172951 0.7361476,-0.3923542 1.2780877,-0.5224126 0.5411983,-0.1298805 0.881586,-0.1715958 1.533466,-0.1879298 0.676622,-0.016954 1.115486,0.013944 1.683264,0.1185089 1.032497,0.1901501 1.383308,0.4453455 1.466717,1.0669528 0.0328,0.2444491 0.01425,0.9484738 -0.07531,2.8585778 -0.09013,1.9222264 0.0077,2.6157004 0.410777,2.9131144 0.371286,0.273927 1.002725,-0.254961 1.885223,-1.579046 0.672737,-1.0093624 1.352992,-2.2960573 1.849651,-3.4985943 0.186381,-0.4512755 0.221148,-0.5166345 0.348427,-0.6550136 0.12579,-0.1367598 0.270039,-0.1994538 0.52686,-0.228986 0.297686,-0.034231 3.982729,-0.034231 4.280415,0 0.965905,0.1110705 0.847142,0.9520129 -0.394289,2.7918966 -0.418966,0.6209355 -0.686351,0.985721 -1.564848,2.1348833 -1.12437,1.470788 -1.274654,1.715751 -1.292621,2.106977 -0.01977,0.430418 0.149985,0.670911 1.12005,1.586809 0.699324,0.660274 1.343515,1.308664 1.653575,1.664354 1.37047,1.572154 1.530675,2.472807 0.469152,2.637508 -0.132032,0.02049 -0.841262,0.02739 -2.175196,0.02117 l -1.979286,-0.0092 -0.267292,-0.07306 c -0.429733,-0.117465 -0.782404,-0.318244 -1.13312,-0.645094 -0.102189,-0.09523 -0.430627,-0.449434 -0.729863,-0.787108 -0.964136,-1.087985 -1.346048,-1.429895 -1.730805,-1.549512 -0.214947,-0.06683 -0.342898,-0.06941 -0.515982,-0.01044 -0.447073,0.152333 -0.743869,0.919932 -0.743869,1.92386 0,0.366063 -0.03694,0.591615 -0.125315,0.7652 -0.07637,0.150004 -0.151183,0.222656 -0.321196,0.311927 -0.125022,0.06565 -0.130183,0.06596 -1.15814,0.06963 -0.567907,0.002 -1.158139,-0.0069 -1.311628,-0.01977 z"
     id="path835" />
  <path
     id="path831"
     d="m 18.92998,18.889923 c -0.440652,-0.130388 -0.675893,-0.246207 -0.98386,-0.484396 -0.184566,-0.142748 -0.378522,-0.343437 -1.052701,-1.089248 -1.100924,-1.217896 -1.445827,-1.475546 -1.951315,-1.457673 -0.174868,0.0062 -0.220229,0.01903 -0.323547,0.09165 -0.06609,0.04645 -0.167524,0.146763 -0.225405,0.222916 -0.113784,0.1497 -0.284797,0.553808 -0.260814,0.616307 0.0081,0.02114 0.0037,0.03843 -0.0098,0.03843 -0.03002,0 -0.09665,0.377773 -0.07329,0.415565 0.0092,0.0149 0.0058,0.03385 -0.0076,0.04212 -0.01338,0.0083 -0.03332,0.223443 -0.04432,0.478167 -0.0301,0.697334 -0.107063,0.910981 -0.391466,1.086741 l -0.136541,0.08438 -1.257945,-2.51e-4 C 11.137234,18.934429 10.906538,18.927031 10.6325,18.884071 8.9789389,18.624757 7.6547556,17.993564 6.4723476,16.901037 5.5466874,16.045742 4.6802254,14.97716 3.641067,13.409302 2.4866998,11.66762 1.1825557,9.3127016 0.43420256,7.6186046 0.03529922,6.7155805 -0.02566973,6.4296305 0.14037327,6.2405179 0.31630851,6.0401388 0.27585782,6.0440022 2.3023255,6.0340302 c 1.8972776,-0.00934 2.0458354,-0.00217 2.3097597,0.1113635 0.2083831,0.089644 0.2974951,0.2216795 0.5956256,0.8825252 0.1500257,0.3325515 0.4752176,1.0064997 0.722649,1.4976625 0.8227066,1.6331116 1.3967637,2.5190106 2.0268795,3.1279306 0.3159712,0.305343 0.4619919,0.388117 0.6849003,0.388248 0.1957593,1.11e-4 0.2728284,-0.0423 0.4162024,-0.229062 C 9.3669974,11.410641 9.5935166,9.6547825 9.4896056,8.4697674 9.3680299,7.0833063 8.9890119,6.3262021 8.316279,6.1260008 8.1280244,6.0699774 7.9813953,5.9904211 7.9813953,5.9443036 c 0,-0.066743 0.2156473,-0.26025 0.3865222,-0.3468389 C 8.620006,5.4697218 8.92842,5.3585353 9.3024248,5.260565 9.9785277,5.0834603 10.13027,5.067369 11.134884,5.0662439 c 0.821213,-9.197e-4 0.941282,0.00498 1.269767,0.062443 1.002075,0.1752811 1.410405,0.3828926 1.579723,0.8031954 0.06545,0.1624783 0.06671,0.1819691 0.06308,0.9750946 -0.002,0.4451163 -0.02402,1.2441154 -0.04884,1.7755535 -0.08925,1.9108216 -0.04807,2.6414066 0.171758,3.0468706 0.08473,0.15629 0.273044,0.33714 0.328779,0.315752 0.02122,-0.0081 0.04625,-0.0024 0.05561,0.01274 0.02302,0.03725 0.19571,0.0035 0.333601,-0.06526 0.592341,-0.295222 1.590873,-1.675689 2.528006,-3.4949584 0.24258,-0.4709249 0.430366,-0.8776627 0.833821,-1.8060257 C 18.390951,6.3677736 18.52963,6.1997625 18.731507,6.10854 L 18.87907,6.04186 h 2.274418 2.274419 l 0.139187,0.064154 c 0.181268,0.083549 0.253674,0.1542693 0.310624,0.3033916 0.09582,0.2509124 0.0071,0.6322641 -0.281863,1.2110568 -0.365928,0.7330367 -0.882347,1.488334 -2.2601,3.3055506 -0.917848,1.210616 -1.278754,1.746612 -1.229605,1.826138 0.0083,0.01346 5.6e-5,0.0295 -0.01837,0.03565 -0.0217,0.0072 -0.03752,0.102428 -0.0449,0.270288 -0.0111,0.252355 -0.0087,0.264697 0.09199,0.472612 0.09854,0.203473 0.157499,0.267177 1.256622,1.357676 1.207412,1.197939 1.362215,1.360719 1.721658,1.810379 0.59032,0.738483 0.903783,1.374831 0.842867,1.71107 -0.04418,0.243854 -0.180674,0.378796 -0.498569,0.492892 -0.05764,0.02069 -0.766547,0.03541 -2.183278,0.04536 l -2.097927,0.01472 z"
     style="opacity:0.98;fill:#ffffff;stroke:#ffffff;stroke-width:0.1;stroke-miterlimit:4;stroke-dasharray:none" />
</svg>
