<?xml version="1.0" encoding="UTF-8" standalone="no"?>
<svg
   xmlns:dc="http://purl.org/dc/elements/1.1/"
   xmlns:cc="http://creativecommons.org/ns#"
   xmlns:rdf="http://www.w3.org/1999/02/22-rdf-syntax-ns#"
   xmlns:svg="http://www.w3.org/2000/svg"
   xmlns="http://www.w3.org/2000/svg"
   xmlns:sodipodi="http://sodipodi.sourceforge.net/DTD/sodipodi-0.dtd"
   xmlns:inkscape="http://www.inkscape.org/namespaces/inkscape"
   inkscape:version="1.0 (4035a4fb49, 2020-05-01)"
   sodipodi:docname="dribbble.svg"
   id="svg4"
   version="1.1"
   viewBox="0 0 24 24"
   height="24"
   width="24">
  <metadata
     id="metadata10">
    <rdf:RDF>
      <cc:Work
         rdf:about="">
        <dc:format>image/svg+xml</dc:format>
        <dc:type
           rdf:resource="http://purl.org/dc/dcmitype/StillImage" />
      </cc:Work>
    </rdf:RDF>
  </metadata>
  <defs
     id="defs8" />
  <sodipodi:namedview
     inkscape:current-layer="svg4"
     inkscape:window-maximized="1"
     inkscape:window-y="-8"
     inkscape:window-x="-8"
     inkscape:cy="12"
     inkscape:cx="12"
     inkscape:zoom="35.833333"
     showgrid="false"
     id="namedview6"
     inkscape:window-height="1027"
     inkscape:window-width="1920"
     inkscape:pageshadow="2"
     inkscape:pageopacity="0"
     guidetolerance="10"
     gridtolerance="10"
     objecttolerance="10"
     borderopacity="1"
     bordercolor="#666666"
     pagecolor="#ffffff" />
  <path
     id="path2"
     d="M12 0c-6.628 0-12 5.373-12 12s5.372 12 12 12 12-5.373 12-12-5.372-12-12-12zm9.885 11.441c-2.575-.422-4.943-.445-7.103-.073-.244-.563-.497-1.125-.767-1.68 2.31-1 4.165-2.358 5.548-4.082 1.35 1.594 2.197 3.619 2.322 5.835zm-3.842-7.282c-1.205 1.554-2.868 2.783-4.986 3.68-1.016-1.861-2.178-3.676-3.488-5.438.779-.197 1.591-.314 2.431-.314 2.275 0 4.368.779 6.043 2.072zm-10.516-.993c1.331 1.742 2.511 3.538 3.537 5.381-2.43.715-5.331 1.082-8.684 1.105.692-2.835 2.601-5.193 5.147-6.486zm-5.44 8.834l.013-.256c3.849-.005 7.169-.448 9.95-1.322.233.475.456.952.67 1.432-3.38 1.057-6.165 3.222-8.337 6.48-1.432-1.719-2.296-3.927-2.296-6.334zm3.829 7.81c1.969-3.088 4.482-5.098 7.598-6.027.928 2.42 1.609 4.91 2.043 7.46-3.349 1.291-6.953.666-9.641-1.433zm11.586.43c-.438-2.353-1.08-4.653-1.92-6.897 1.876-.265 3.94-.196 6.199.196-.437 2.786-2.028 5.192-4.279 6.701z" />
  <path
     id="path835"
     d="M 11.693023,23.980033 C 7.8715546,23.893359 4.24787,21.915374 2.0982813,18.742751 0.91470793,16.995891 0.24649434,15.114558 0.05610567,12.993074 0.01176463,12.498986 0.01920458,11.406395 0.07060629,10.863591 0.20646824,9.4288831 0.59613047,8.043991 1.2236337,6.7656352 1.5133563,6.1754096 1.6482684,5.9408559 2.0251803,5.372093 3.6826141,2.8710134 6.2283667,1.0783791 9.1394182,0.3624833 10.08933,0.12887759 10.952596,0.02675704 11.986047,0.02573958 c 1.881824,-0.0018527 3.605792,0.39163169 5.248318,1.19789412 0.587441,0.2883556 0.822476,0.42354 1.393542,0.8015199 2.63387,1.7433175 4.501435,4.5120582 5.118779,7.5887999 0.26433,1.3173795 0.301505,2.8726425 0.100392,4.1999995 -0.355416,2.34576 -1.388752,4.488025 -3.044387,6.311481 -0.752025,0.828254 -1.883588,1.729439 -2.884605,2.297322 -1.886121,1.070007 -4.032705,1.607002 -6.225063,1.557277 z m 1.269768,-2.102908 c 0.38883,-0.03812 0.914727,-0.126949 1.320005,-0.222953 0.379818,-0.08997 1.289297,-0.380877 1.289297,-0.412392 0,-0.04504 -0.232538,-1.250448 -0.323898,-1.678989 -0.35446,-1.66266 -0.905712,-3.567858 -1.509957,-5.218605 -0.115176,-0.314651 -0.211745,-0.574743 -0.214597,-0.577982 -0.0029,-0.0032 -0.18684,0.05489 -0.40886,0.129165 -2.521641,0.843654 -4.6137954,2.389137 -6.3876505,4.718584 -0.3071704,0.40338 -0.8108514,1.141787 -0.8108514,1.188725 0,0.03923 0.3127141,0.271029 0.7395349,0.54817 1.3793818,0.895651 2.9925234,1.432143 4.674419,1.554599 0.386156,0.02811 1.201143,0.01398 1.632558,-0.02832 z m 5.247405,-2.139355 c 0.168093,-0.134611 0.480074,-0.414282 0.693293,-0.621491 1.307932,-1.27107 2.228488,-2.846188 2.682972,-4.590698 0.120835,-0.463821 0.216481,-0.966931 0.188631,-0.992233 -0.05183,-0.04709 -1.509633,-0.237246 -2.337883,-0.304958 -0.608929,-0.04978 -1.881056,-0.06636 -2.455814,-0.03201 -0.608627,0.03638 -1.357342,0.112598 -1.388912,0.141396 -0.01181,0.01077 -0.0013,0.07523 0.02346,0.143231 0.80514,2.215592 1.453627,4.519862 1.797979,6.388761 0.03252,0.176512 0.06459,0.337438 0.07126,0.357613 0.01483,0.04486 0.287777,-0.139464 0.725016,-0.48961 z M 4.5800051,18.076744 c 2.0217056,-2.951781 4.6918443,-5.038297 7.7967389,-6.092578 0.168837,-0.05733 0.317809,-0.113795 0.331048,-0.12548 0.02293,-0.02024 -0.26801,-0.681336 -0.531062,-1.206743 -0.09594,-0.19163 -0.133548,-0.242555 -0.17081,-0.231305 -1.668834,0.503872 -3.2631562,0.82853 -5.1408037,1.046843 -1.3194039,0.153406 -2.9502876,0.252587 -4.1628951,0.253162 l -0.6047555,2.87e-4 -0.018612,0.174419 c -0.021944,0.205647 0.026864,1.021784 0.087201,1.458139 0.2066311,1.494331 0.750879,2.916229 1.6022581,4.186047 0.2266861,0.338098 0.577903,0.795349 0.6109127,0.795349 0.013187,0 0.1035377,-0.116163 0.2007796,-0.25814 z M 21.890492,11.295349 C 21.82019,10.551906 21.734197,10.036499 21.586683,9.4744186 21.227136,8.1044263 20.58183,6.8325212 19.685995,5.7281411 L 19.56734,5.5818639 19.336107,5.8537225 c -0.891441,1.0480605 -2.052547,2.022833 -3.321715,2.7886474 -0.405542,0.244704 -1.471365,0.7997291 -1.816718,0.9460523 -0.103604,0.043896 -0.188372,0.088922 -0.188372,0.1000566 0,0.011135 0.09986,0.2337561 0.221921,0.4947142 0.122057,0.260958 0.293585,0.638916 0.381174,0.839906 0.152551,0.350057 0.162296,0.3648 0.231568,0.350306 0.188909,-0.03953 0.873489,-0.128326 1.300221,-0.168656 1.118571,-0.105716 2.596929,-0.105427 3.753488,7.34e-4 0.452905,0.04157 1.456205,0.163685 1.702326,0.207193 0.06907,0.01221 0.165804,0.02377 0.214964,0.02569 l 0.08938,0.0035 z M 3.9627907,9.627221 C 6.5242245,9.5129238 8.6287125,9.2161727 10.590564,8.6926479 10.849151,8.6236434 11.065884,8.5620229 11.072193,8.5557137 11.086717,8.54119 10.519852,7.5558388 10.16616,6.980806 9.5362647,5.9567185 8.910312,5.0222311 8.19132,4.0325581 7.6412459,3.2753961 7.5508147,3.1558853 7.5270145,3.1546348 7.4806384,3.1521985 6.7812424,3.5606043 6.4615183,3.7768217 5.9338775,4.1336453 5.4643317,4.5231762 4.9945719,4.9937869 3.9527972,6.0374487 3.1767642,7.2483871 2.6911219,8.5881391 2.5725764,8.9151734 2.372093,9.5699844 2.372093,9.6301387 c 0,0.033877 0.7989536,0.032412 1.5906977,-0.00292 z M 13.773801,7.5235811 c 1.349611,-0.6589119 2.324942,-1.3247305 3.274266,-2.235209 0.276496,-0.2651821 0.760474,-0.796406 0.93689,-1.0283481 l 0.0817,-0.1074176 -0.06821,-0.053762 C 17.821839,3.9596534 17.032708,3.449477 16.75814,3.296981 14.815482,2.2180266 12.463733,1.8308756 10.288275,2.2318951 9.9700976,2.2905472 9.5965144,2.3726094 9.5657953,2.3905967 c -0.011138,0.00652 0.069774,0.1337475 0.1798052,0.2827236 1.0405485,1.4088475 2.2087675,3.221899 3.0484475,4.7311257 0.235038,0.4224524 0.248902,0.4408822 0.31886,0.4238729 0.04023,-0.00978 0.337628,-0.1469124 0.660893,-0.3047378 z"
     style="opacity:0.98;fill:#707070;stroke-width:0.027907" />
</svg>
