<?xml version="1.0" encoding="UTF-8" standalone="no"?>
<svg
   xmlns:dc="http://purl.org/dc/elements/1.1/"
   xmlns:cc="http://creativecommons.org/ns#"
   xmlns:rdf="http://www.w3.org/1999/02/22-rdf-syntax-ns#"
   xmlns:svg="http://www.w3.org/2000/svg"
   xmlns="http://www.w3.org/2000/svg"
   xmlns:sodipodi="http://sodipodi.sourceforge.net/DTD/sodipodi-0.dtd"
   xmlns:inkscape="http://www.inkscape.org/namespaces/inkscape"
   inkscape:version="1.0 (4035a4fb49, 2020-05-01)"
   sodipodi:docname="instagram.svg"
   id="svg4"
   version="1.1"
   viewBox="0 0 24 24"
   height="24"
   width="24">
  <metadata
     id="metadata10">
    <rdf:RDF>
      <cc:Work
         rdf:about="">
        <dc:format>image/svg+xml</dc:format>
        <dc:type
           rdf:resource="http://purl.org/dc/dcmitype/StillImage" />
      </cc:Work>
    </rdf:RDF>
  </metadata>
  <defs
     id="defs8" />
  <sodipodi:namedview
     inkscape:current-layer="svg4"
     inkscape:window-maximized="1"
     inkscape:window-y="-8"
     inkscape:window-x="-8"
     inkscape:cy="12"
     inkscape:cx="12"
     inkscape:zoom="35.833333"
     showgrid="false"
     id="namedview6"
     inkscape:window-height="1027"
     inkscape:window-width="1920"
     inkscape:pageshadow="2"
     inkscape:pageopacity="0"
     guidetolerance="10"
     gridtolerance="10"
     objecttolerance="10"
     borderopacity="1"
     bordercolor="#666666"
     pagecolor="#ffffff" />
  <path
     id="path2"
     clip-rule="evenodd"
     fill-rule="evenodd"
     d="M21.231 0h-18.462c-1.529 0-2.769 1.24-2.769 2.769v18.46c0 1.531 1.24 2.771 2.769 2.771h18.463c1.529 0 2.768-1.24 2.768-2.771v-18.46c0-1.529-1.239-2.769-2.769-2.769zm-9.231 7.385c2.549 0 4.616 2.065 4.616 4.615 0 2.549-2.067 4.616-4.616 4.616s-4.615-2.068-4.615-4.616c0-2.55 2.066-4.615 4.615-4.615zm9 12.693c0 .509-.413.922-.924.922h-16.152c-.511 0-.924-.413-.924-.922v-10.078h1.897c-.088.315-.153.64-.2.971-.05.337-.081.679-.081 1.029 0 4.079 3.306 7.385 7.384 7.385s7.384-3.306 7.384-7.385c0-.35-.031-.692-.081-1.028-.047-.331-.112-.656-.2-.971h1.897v10.077zm0-13.98c0 .509-.413.923-.924.923h-2.174c-.511 0-.923-.414-.923-.923v-2.175c0-.51.412-.923.923-.923h2.174c.511 0 .924.413.924.923v2.175z" />
  <path
     id="path835"
     d="M 2.5255814,23.971776 C 1.8961782,23.914819 1.3234925,23.648051 0.85554726,23.193842 0.36243776,22.715207 0.08468661,22.120945 0.02582221,21.418605 -0.00696579,21.027395 -0.00575097,2.9664527 0.02708924,2.5813953 0.08720967,1.8764725 0.32128549,1.3586238 0.80719995,0.85554726 1.2804371,0.36559568 1.8572378,0.09216092 2.5534884,0.02771188 c 0.37308,-0.03453446 18.5183706,-0.03444959 18.9014676,8.847e-5 0.668129,0.06023507 1.198197,0.30440151 1.686477,0.77684603 0.506076,0.48966442 0.769762,1.05312312 0.831478,1.77674902 0.03477,0.4076483 0.03414,18.4590646 -6.53e-4,18.8449706 -0.06415,0.711461 -0.335868,1.291277 -0.827807,1.766434 -0.492333,0.475538 -1.020215,0.719061 -1.689497,0.7794 C 21.116286,24.00273 2.8631489,24.00232 2.52558,23.971775 Z M 20.506772,20.904284 C 20.7008,20.799085 20.836989,20.657875 20.93563,20.459613 L 21,20.330233 21.0073,15.160465 21.0146,9.9906977 h -0.965033 c -0.910032,0 -0.964142,0.00281 -0.949378,0.049327 0.112116,0.353248 0.238418,1.203377 0.25802,1.736719 0.113778,3.095764 -1.796734,5.972897 -4.71499,7.100533 -0.883624,0.341439 -1.629719,0.475714 -2.643297,0.475714 -0.66384,0 -0.932814,-0.02371 -1.451163,-0.127932 C 8.36747,18.786472 6.4572335,17.340913 5.4531318,15.368917 4.6438912,13.779616 4.4381757,12.1324 4.8266464,10.352492 4.8582335,10.207765 4.8911224,10.067155 4.8997331,10.040025 4.9144967,9.993509 4.8603873,9.9906977 3.9503553,9.9906977 H 2.9853218 L 2.992661,15.160465 3,20.330233 3.068876,20.469767 c 0.121887,0.246929 0.3767481,0.457019 0.628798,0.518339 0.046047,0.0112 3.8072093,0.01846 8.35814,0.01613 L 20.330233,21 Z m -8.03823,-4.301395 c 1.1285,-0.123553 2.10011,-0.598233 2.873561,-1.403877 0.916525,-0.954673 1.386404,-2.277524 1.267636,-3.568779 -0.04251,-0.462178 -0.09153,-0.70136 -0.228027,-1.112687 C 16.061234,9.5518245 15.417059,8.7128026 14.554763,8.1379914 13.714165,7.5776439 12.623829,7.2988716 11.630233,7.3902606 11.16817,7.4327601 10.928872,7.4817879 10.517997,7.6181369 9.5630288,7.9350435 8.7062358,8.5927928 8.1379914,9.4452368 7.5776439,10.285835 7.2988716,11.376171 7.3902606,12.369767 c 0.042499,0.462063 0.091527,0.701361 0.2278763,1.112236 0.6739502,2.030886 2.7289791,3.353148 4.8504051,3.120886 z m 8.025122,-9.6670924 c 0.182641,-0.092542 0.342788,-0.2579283 0.440913,-0.4553403 L 21,6.3488372 V 5.0093023 3.6697674 L 20.931124,3.5302326 C 20.843113,3.3519327 20.648067,3.1568874 20.469767,3.0688764 L 20.330233,3 h -1.339535 -1.339535 l -0.157475,0.077357 c -0.183733,0.090254 -0.36658,0.2771229 -0.451989,0.4619271 -0.05861,0.1268264 -0.06053,0.166358 -0.06835,1.4103489 -0.0069,1.0891861 -0.0016,1.3019913 0.03512,1.4283787 0.07715,0.2653942 0.311039,0.5088128 0.578645,0.6022267 0.136691,0.047715 0.245048,0.051087 1.445443,0.044974 l 1.297675,-0.00661 z"
     style="opacity:0.98;fill:#707070;stroke-width:0.027907" />
</svg>
