<?xml version="1.0" encoding="UTF-8" standalone="no"?>
<svg
   xmlns:dc="http://purl.org/dc/elements/1.1/"
   xmlns:cc="http://creativecommons.org/ns#"
   xmlns:rdf="http://www.w3.org/1999/02/22-rdf-syntax-ns#"
   xmlns:svg="http://www.w3.org/2000/svg"
   xmlns="http://www.w3.org/2000/svg"
   xmlns:sodipodi="http://sodipodi.sourceforge.net/DTD/sodipodi-0.dtd"
   xmlns:inkscape="http://www.inkscape.org/namespaces/inkscape"
   height="24"
   viewBox="0 0 24 24"
   width="24"
   version="1.1"
   id="svg6"
   sodipodi:docname="language-white.svg"
   inkscape:version="1.0 (4035a4fb49, 2020-05-01)">
  <metadata
     id="metadata12">
    <rdf:RDF>
      <cc:Work
         rdf:about="">
        <dc:format>image/svg+xml</dc:format>
        <dc:type
           rdf:resource="http://purl.org/dc/dcmitype/StillImage" />
      </cc:Work>
    </rdf:RDF>
  </metadata>
  <defs
     id="defs10" />
  <sodipodi:namedview
     inkscape:document-rotation="0"
     pagecolor="#ffffff"
     bordercolor="#666666"
     borderopacity="1"
     objecttolerance="10"
     gridtolerance="10"
     guidetolerance="10"
     inkscape:pageopacity="0"
     inkscape:pageshadow="2"
     inkscape:window-width="1920"
     inkscape:window-height="1027"
     id="namedview8"
     showgrid="false"
     inkscape:zoom="35.833333"
     inkscape:cx="12"
     inkscape:cy="12"
     inkscape:window-x="-8"
     inkscape:window-y="-8"
     inkscape:window-maximized="1"
     inkscape:current-layer="svg6" />
  <path
     d="M0 0h24v24H0V0z"
     fill="none"
     id="path2" />
  <path
     d="M11.99 2C6.47 2 2 6.48 2 12s4.47 10 9.99 10C17.52 22 22 17.52 22 12S17.52 2 11.99 2zm6.93 6h-2.95c-.32-1.25-.78-2.45-1.38-3.56 1.84.63 3.37 1.91 4.33 3.56zM12 4.04c.83 1.2 1.48 2.53 1.91 3.96h-3.82c.43-1.43 1.08-2.76 1.91-3.96zM4.26 14C4.1 13.36 4 12.69 4 12s.1-1.36.26-2h3.38c-.08.66-.14 1.32-.14 2s.06 1.34.14 2H4.26zm.82 2h2.95c.32 1.25.78 2.45 1.38 3.56-1.84-.63-3.37-1.9-4.33-3.56zm2.95-8H5.08c.96-1.66 2.49-2.93 4.33-3.56C8.81 5.55 8.35 6.75 8.03 8zM12 19.96c-.83-1.2-1.48-2.53-1.91-3.96h3.82c-.43 1.43-1.08 2.76-1.91 3.96zM14.34 14H9.66c-.09-.66-.16-1.32-.16-2s.07-1.35.16-2h4.68c.09.65.16 1.32.16 2s-.07 1.34-.16 2zm.25 5.56c.6-1.11 1.06-2.31 1.38-3.56h2.95c-.96 1.65-2.49 2.93-4.33 3.56zM16.36 14c.08-.66.14-1.32.14-2s-.06-1.34-.14-2h3.38c.16.64.26 1.31.26 2s-.1 1.36-.26 2h-3.38z"
     id="path4" />
  <path
     style="opacity:0.98;fill:#707070;stroke-width:0.027907"
     d="M 11.413953,21.971319 C 9.2899111,21.846028 7.2374339,21.029487 5.5990867,19.657976 5.1817499,19.308611 4.5320454,18.646826 4.2042544,18.237209 2.1563096,15.678039 1.4926581,12.241897 2.4419873,9.1128388 2.7544271,8.0830144 3.2772264,7.0270116 3.9080616,6.1515142 4.3666894,5.5150127 5.1430504,4.6999996 5.7627907,4.2044452 8.7510949,1.8149484 12.817219,1.3434919 16.28408,2.9845289 c 1.684588,0.7973986 3.197781,2.1486544 4.186156,3.7381661 0.811019,1.304287 1.291123,2.7049021 1.469367,4.286607 0.04461,0.395858 0.04461,1.585538 0,1.981396 -0.226231,2.007537 -0.937626,3.727347 -2.193125,5.301922 -0.295003,0.369976 -1.097457,1.169891 -1.481362,1.476675 -0.37244,0.297622 -1.06736,0.763573 -1.462962,0.98093 -1.624786,0.892716 -3.551781,1.329419 -5.388201,1.221094 z m 0.817157,-2.325567 c 0.655441,-1.012217 1.204234,-2.149322 1.567665,-3.248217 0.06974,-0.210882 0.126806,-0.388689 0.126806,-0.395129 0,-0.0064 -0.866511,-0.01171 -1.925581,-0.01171 -1.05907,0 -1.925581,0.0053 -1.925581,0.01171 0,0.0064 0.05706,0.184247 0.126806,0.395129 0.269499,0.814875 0.716271,1.813686 1.138423,2.545075 0.228038,0.395081 0.63717,1.038503 0.660352,1.038503 0.0077,0 0.111674,-0.150912 0.23111,-0.335361 z M 9.3255131,19.358557 C 8.9228266,18.624841 8.4430663,17.406144 8.1480117,16.367442 L 8.0449571,16.004651 6.5620133,15.99743 c -0.8156188,-0.004 -1.4829435,0.0034 -1.4829435,0.01636 0,0.03582 0.342862,0.568922 0.4925372,0.76583 0.846214,1.113253 1.9374081,1.984657 3.1642817,2.52693 0.7280246,0.321783 0.7381774,0.322679 0.5896244,0.05201 z m 5.6368539,0.07711 c 1.450478,-0.582196 2.69397,-1.570665 3.614077,-2.872881 0.159982,-0.22642 0.344486,-0.522045 0.344486,-0.551958 0,-0.01134 -0.667325,-0.01738 -1.482943,-0.0134 l -1.482944,0.0072 -0.103055,0.362791 c -0.295054,1.038702 -0.774815,2.257399 -1.177501,2.991115 -0.08208,0.149563 -0.100945,0.204234 -0.07046,0.204234 0.0229,0 0.18415,-0.0572 0.358336,-0.127119 z M 7.6369873,13.862791 c -0.1510706,-1.286161 -0.1510706,-2.439421 0,-3.725582 L 7.6541961,9.9906977 H 5.9503192 4.2464422 L 4.1890356,10.248837 C 4.0509743,10.869656 3.9906977,11.40185 3.9906977,12 c 0,0.59815 0.060277,1.130344 0.1983379,1.751163 l 0.057407,0.258139 h 1.703877 1.7038769 z M 14.377313,13.84186 C 14.478091,13.035116 14.496346,12.752639 14.496346,12 c 0,-0.752639 -0.01826,-1.035116 -0.119033,-1.84186 L 14.35814,10.004651 H 12 9.6418605 l -0.045879,0.38479 c -0.1074502,0.901185 -0.1347173,1.724857 -0.079647,2.405908 0.033189,0.410448 0.1103626,1.131466 0.1262171,1.179228 0.00924,0.02782 0.4960634,0.03357 2.3636104,0.02791 l 2.351978,-0.0071 z m 5.433651,-0.0907 C 19.949026,13.130344 20.009302,12.59815 20.009302,12 c 0,-0.59815 -0.06028,-1.130344 -0.198338,-1.751163 L 19.753554,9.9906977 H 18.049677 16.3458 l 0.01721,0.1465113 c 0.08249,0.702325 0.109995,1.168064 0.109995,1.862791 0,0.694727 -0.0275,1.160466 -0.109995,1.862791 l -0.01721,0.146511 h 1.703877 1.703877 z M 8.1480117,7.6325581 C 8.4430663,6.593856 8.9228266,5.3751586 9.3255131,4.6414426 9.4075981,4.4918798 9.4264582,4.4372093 9.395969,4.4372093 9.328614,4.4372093 8.7459131,4.6791972 8.4158632,4.844234 7.3008095,5.4018011 6.305314,6.2384877 5.5465487,7.255814 5.3752094,7.48554 5.0790698,7.9480353 5.0790698,7.9858984 c 0,0.013141 0.6673247,0.020643 1.4829435,0.016672 l 1.4829438,-0.00722 z m 5.7775693,0.3650356 c 0,-0.00644 -0.05706,-0.1842472 -0.126806,-0.3951282 C 13.52665,6.7796492 13.103693,5.8319657 12.675538,5.0857261 12.439952,4.6751184 12.024417,4.0188865 12,4.0188865 c -0.02318,0 -0.432314,0.6434226 -0.660352,1.0385037 -0.422152,0.7313889 -0.868924,1.7301997 -1.138423,2.5450753 -0.06974,0.210881 -0.126806,0.3886886 -0.126806,0.3951282 0,0.00644 0.866511,0.011709 1.925581,0.011709 1.05907,0 1.925581,-0.00527 1.925581,-0.011709 z m 4.995334,-0.00922 C 18.920892,7.9578949 18.736719,7.6655774 18.546405,7.3939527 17.959474,6.5562586 17.100301,5.7467958 16.211132,5.1937956 15.742692,4.9024588 14.754433,4.4372093 14.604031,4.4372093 c -0.03049,0 -0.01163,0.054671 0.07046,0.2042333 0.397432,0.7241414 0.883677,1.9544841 1.162085,2.9404161 0.05555,0.1967219 0.106281,0.3733739 0.112734,0.3925599 0.0092,0.027321 0.332584,0.034884 1.491679,0.034884 0.81397,0 1.479938,-0.00942 1.47993,-0.02093 z"
     id="path837" />
  <path
     id="path832"
     d="M 11.190698,21.944995 C 9.2326113,21.765868 7.4003179,21.0411 5.8325581,19.825571 5.4519558,19.530479 4.536395,18.625782 4.2392448,18.251163 3.7594491,17.646282 3.4246062,17.121598 3.085609,16.443464 2.5772634,15.426565 2.2778829,14.438314 2.1030355,13.2 2.0330663,12.704461 2.0323588,11.302691 2.101817,10.786047 2.2587373,9.6188425 2.547784,8.6628985 3.0553305,7.6325581 3.6139659,6.4985053 4.0832773,5.8476786 5.0077724,4.9249721 5.8309534,4.1033836 6.5314266,3.5976406 7.5627907,3.0802446 8.5980692,2.5608847 9.6913398,2.2358007 10.897674,2.0886167 c 0.408126,-0.049795 1.796891,-0.05004 2.190698,-3.867e-4 1.265725,0.15959 2.325516,0.4788559 3.404651,1.0256637 0.766535,0.3884102 1.405087,0.8208437 2.059965,1.3950296 1.764492,1.5470748 2.901914,3.5928588 3.288271,5.9143327 0.0281,0.168837 0.05844,0.310422 0.06742,0.314634 0.009,0.0042 0.01087,0.04487 0.0042,0.09036 -0.0067,0.04548 -0.002,0.104828 0.01035,0.131877 0.02824,0.06174 0.03869,2.020506 0.01099,2.058482 -0.0112,0.01535 -0.02925,0.103255 -0.04012,0.195348 -0.198178,1.6793 -0.891914,3.383654 -1.95087,4.792851 -0.447002,0.594843 -1.316912,1.474452 -1.859513,1.880244 -1.496064,1.118853 -3.015078,1.745262 -4.869768,2.008188 -0.296137,0.04198 -1.724325,0.07711 -2.023255,0.04976 z m 0.971196,-2.165925 c 0.515737,-0.769021 1.075591,-1.849017 1.42134,-2.741861 0.125833,-0.324944 0.342347,-0.964004 0.342347,-1.010466 0,-0.02911 -0.370612,-0.03604 -1.925581,-0.03604 -1.616393,0 -1.925581,0.0062 -1.925581,0.03842 0,0.169882 0.691687,1.915068 0.759019,1.915068 0.01412,0 0.01775,0.01281 0.0081,0.02848 -0.04859,0.07861 1.062957,2.008734 1.156815,2.008734 0.01534,0 0.08894,-0.09105 0.16357,-0.202325 z M 9.4046511,19.523257 c 0,-0.02174 -0.1044117,-0.251839 -0.2320258,-0.511322 C 8.8048211,18.264064 8.4391565,17.30674 8.175845,16.402326 L 8.0560035,15.990698 H 6.5675366 c -1.2316513,0 -1.4884669,0.0065 -1.4884669,0.03771 0,0.05007 0.2716264,0.47243 0.5051992,0.785547 0.8407057,1.127011 1.9354962,1.973918 3.3599171,2.599159 0.345369,0.151597 0.4604651,0.179129 0.4604651,0.110143 z m 5.5528469,-0.07184 c 1.508981,-0.601175 2.819317,-1.66789 3.73912,-3.043932 0.123372,-0.184567 0.224312,-0.353849 0.224312,-0.376182 0,-0.03503 -0.204394,-0.04061 -1.488196,-0.04061 h -1.488197 l -0.132868,0.453488 c -0.260379,0.888697 -0.655045,1.913879 -1.007769,2.617778 -0.24445,0.487825 -0.249136,0.500827 -0.180514,0.500827 0.03001,0 0.180359,-0.05012 0.334112,-0.111373 z M 7.6605025,13.932558 C 7.6037896,13.584943 7.5350815,12.526248 7.5350815,12 c 0,-0.526463 0.068729,-1.585241 0.1254637,-1.932771 l 0.012563,-0.076957 -1.7219453,0.00719 -1.7219452,0.00719 -0.061393,0.276778 c -0.1225915,0.552681 -0.1577221,0.87582 -0.1704017,1.56739 -0.00939,0.512407 -0.00152,0.761031 0.033165,1.046512 0.041606,0.342492 0.1708514,1.042948 0.2016837,1.093041 0.00709,0.01151 0.7841532,0.02093 1.7268171,0.02093 h 1.7139343 z m 6.7225335,-0.02791 c 0.02887,-0.190622 0.101851,-0.883917 0.106491,-1.011628 0.0025,-0.06907 0.0042,-0.521163 0.0038,-1.004651 -6.7e-4,-0.817313 -0.02675,-1.2411 -0.110335,-1.793023 L 14.367187,9.9906977 H 12.001114 9.6350405 l -0.016238,0.1046513 c -0.091793,0.591583 -0.1150538,0.986501 -0.1138273,1.932558 0.00108,0.83096 0.010663,1.065803 0.059451,1.456505 0.031992,0.256194 0.066382,0.479101 0.076424,0.495349 0.012612,0.02041 0.7461908,0.02954 2.3722978,0.02954 h 2.354039 z m 5.45139,-0.188372 c 0.035,-0.153488 0.0591,-0.306887 0.05355,-0.340887 -0.0056,-0.034 -3.66e-4,-0.0654 0.01152,-0.06977 0.01189,-0.0044 0.04201,-0.177485 0.06694,-0.384695 0.0341,-0.283482 0.04264,-0.545996 0.03448,-1.060465 -0.01119,-0.705957 -0.04476,-1.020047 -0.168747,-1.579036 l -0.06139,-0.276778 -1.724548,-0.00719 c -1.634023,-0.00681 -1.723799,-0.00462 -1.710262,0.04186 0.0079,0.02698 0.03626,0.275098 0.06312,0.551377 0.0676,0.695428 0.0676,2.123176 0,2.818604 -0.02686,0.276279 -0.05526,0.524399 -0.06312,0.551377 -0.01354,0.04648 0.07624,0.04867 1.710262,0.04186 l 1.724548,-0.0072 z M 8.175845,7.5976744 C 8.4419818,6.6835562 8.7982613,5.753151 9.185417,4.9612305 9.4075791,4.5068013 9.428823,4.4502231 9.3801717,4.4425486 9.3055576,4.4307787 8.7798829,4.6494628 8.3115122,4.887118 7.2784001,5.4113274 6.292486,6.2425024 5.5769726,7.192472 5.3499284,7.4939132 5.0790697,7.9178123 5.0790697,7.9717001 c 0,0.031062 0.2589089,0.037602 1.4884669,0.037602 h 1.4884669 z m 5.749736,0.3755821 c 0,-0.046461 -0.216514,-0.6855218 -0.342347,-1.0104658 C 13.422951,6.5488855 13.15325,5.9546254 12.937298,5.5395348 12.614888,4.9198174 12.059501,4.0186046 12,4.0186046 c -0.05634,0 -0.597406,0.870799 -0.901874,1.4514756 -0.221015,0.421517 -0.448121,0.9162117 -0.638534,1.3908907 -0.151188,0.3768963 -0.385173,1.0525873 -0.385173,1.1122856 0,0.029108 0.370612,0.036046 1.925581,0.036046 1.554969,0 1.925581,-0.00694 1.925581,-0.036046 z m 4.995349,-0.00345 c 0,-0.056776 -0.403,-0.6585996 -0.627692,-0.9373683 C 17.73968,6.3456479 17.094898,5.7573987 16.37596,5.2832556 15.874108,4.9522819 14.778177,4.4244123 14.630917,4.4427328 c -0.06654,0.00828 -0.06388,0.016245 0.146765,0.4409881 0.379997,0.7662086 0.731481,1.665017 0.990525,2.5329505 0.07667,0.2568773 0.151544,0.4953053 0.166391,0.5298402 l 0.027,0.062791 h 1.479668 c 1.257358,0 1.479668,-0.00593 1.479668,-0.0395 z"
     style="opacity:0.98;fill:#ffffff;stroke-width:0.14;stroke-miterlimit:4;stroke-dasharray:none;stroke:#ffffff;stroke-opacity:1" />
</svg>
