<?xml version="1.0" encoding="UTF-8" standalone="no"?>
<svg
   xmlns:dc="http://purl.org/dc/elements/1.1/"
   xmlns:cc="http://creativecommons.org/ns#"
   xmlns:rdf="http://www.w3.org/1999/02/22-rdf-syntax-ns#"
   xmlns:svg="http://www.w3.org/2000/svg"
   xmlns="http://www.w3.org/2000/svg"
   xmlns:sodipodi="http://sodipodi.sourceforge.net/DTD/sodipodi-0.dtd"
   xmlns:inkscape="http://www.inkscape.org/namespaces/inkscape"
   inkscape:version="1.0 (4035a4fb49, 2020-05-01)"
   sodipodi:docname="language-.svg"
   id="svg6"
   version="1.1"
   width="24"
   viewBox="0 0 24 24"
   height="24">
  <metadata
     id="metadata12">
    <rdf:RDF>
      <cc:Work
         rdf:about="">
        <dc:format>image/svg+xml</dc:format>
        <dc:type
           rdf:resource="http://purl.org/dc/dcmitype/StillImage" />
      </cc:Work>
    </rdf:RDF>
  </metadata>
  <defs
     id="defs10" />
  <sodipodi:namedview
     inkscape:current-layer="svg6"
     inkscape:window-maximized="1"
     inkscape:window-y="-8"
     inkscape:window-x="-8"
     inkscape:cy="12"
     inkscape:cx="12"
     inkscape:zoom="35.833333"
     showgrid="false"
     id="namedview8"
     inkscape:window-height="1027"
     inkscape:window-width="1920"
     inkscape:pageshadow="2"
     inkscape:pageopacity="0"
     guidetolerance="10"
     gridtolerance="10"
     objecttolerance="10"
     borderopacity="1"
     bordercolor="#666666"
     pagecolor="#ffffff" />
  <path
     id="path2"
     fill="none"
     d="M0 0h24v24H0V0z" />
  <path
     id="path4"
     d="M11.99 2C6.47 2 2 6.48 2 12s4.47 10 9.99 10C17.52 22 22 17.52 22 12S17.52 2 11.99 2zm6.93 6h-2.95c-.32-1.25-.78-2.45-1.38-3.56 1.84.63 3.37 1.91 4.33 3.56zM12 4.04c.83 1.2 1.48 2.53 1.91 3.96h-3.82c.43-1.43 1.08-2.76 1.91-3.96zM4.26 14C4.1 13.36 4 12.69 4 12s.1-1.36.26-2h3.38c-.08.66-.14 1.32-.14 2s.06 1.34.14 2H4.26zm.82 2h2.95c.32 1.25.78 2.45 1.38 3.56-1.84-.63-3.37-1.9-4.33-3.56zm2.95-8H5.08c.96-1.66 2.49-2.93 4.33-3.56C8.81 5.55 8.35 6.75 8.03 8zM12 19.96c-.83-1.2-1.48-2.53-1.91-3.96h3.82c-.43 1.43-1.08 2.76-1.91 3.96zM14.34 14H9.66c-.09-.66-.16-1.32-.16-2s.07-1.35.16-2h4.68c.09.65.16 1.32.16 2s-.07 1.34-.16 2zm.25 5.56c.6-1.11 1.06-2.31 1.38-3.56h2.95c-.96 1.65-2.49 2.93-4.33 3.56zM16.36 14c.08-.66.14-1.32.14-2s-.06-1.34-.14-2h3.38c.16.64.26 1.31.26 2s-.1 1.36-.26 2h-3.38z" />
  <path
     id="path837"
     d="M 11.413953,21.971319 C 9.2899111,21.846028 7.2374339,21.029487 5.5990867,19.657976 5.1817499,19.308611 4.5320454,18.646826 4.2042544,18.237209 2.1563096,15.678039 1.4926581,12.241897 2.4419873,9.1128388 2.7544271,8.0830144 3.2772264,7.0270116 3.9080616,6.1515142 4.3666894,5.5150127 5.1430504,4.6999996 5.7627907,4.2044452 8.7510949,1.8149484 12.817219,1.3434919 16.28408,2.9845289 c 1.684588,0.7973986 3.197781,2.1486544 4.186156,3.7381661 0.811019,1.304287 1.291123,2.7049021 1.469367,4.286607 0.04461,0.395858 0.04461,1.585538 0,1.981396 -0.226231,2.007537 -0.937626,3.727347 -2.193125,5.301922 -0.295003,0.369976 -1.097457,1.169891 -1.481362,1.476675 -0.37244,0.297622 -1.06736,0.763573 -1.462962,0.98093 -1.624786,0.892716 -3.551781,1.329419 -5.388201,1.221094 z m 0.817157,-2.325567 c 0.655441,-1.012217 1.204234,-2.149322 1.567665,-3.248217 0.06974,-0.210882 0.126806,-0.388689 0.126806,-0.395129 0,-0.0064 -0.866511,-0.01171 -1.925581,-0.01171 -1.05907,0 -1.925581,0.0053 -1.925581,0.01171 0,0.0064 0.05706,0.184247 0.126806,0.395129 0.269499,0.814875 0.716271,1.813686 1.138423,2.545075 0.228038,0.395081 0.63717,1.038503 0.660352,1.038503 0.0077,0 0.111674,-0.150912 0.23111,-0.335361 z M 9.3255131,19.358557 C 8.9228266,18.624841 8.4430663,17.406144 8.1480117,16.367442 L 8.0449571,16.004651 6.5620133,15.99743 c -0.8156188,-0.004 -1.4829435,0.0034 -1.4829435,0.01636 0,0.03582 0.342862,0.568922 0.4925372,0.76583 0.846214,1.113253 1.9374081,1.984657 3.1642817,2.52693 0.7280246,0.321783 0.7381774,0.322679 0.5896244,0.05201 z m 5.6368539,0.07711 c 1.450478,-0.582196 2.69397,-1.570665 3.614077,-2.872881 0.159982,-0.22642 0.344486,-0.522045 0.344486,-0.551958 0,-0.01134 -0.667325,-0.01738 -1.482943,-0.0134 l -1.482944,0.0072 -0.103055,0.362791 c -0.295054,1.038702 -0.774815,2.257399 -1.177501,2.991115 -0.08208,0.149563 -0.100945,0.204234 -0.07046,0.204234 0.0229,0 0.18415,-0.0572 0.358336,-0.127119 z M 7.6369873,13.862791 c -0.1510706,-1.286161 -0.1510706,-2.439421 0,-3.725582 L 7.6541961,9.9906977 H 5.9503192 4.2464422 L 4.1890356,10.248837 C 4.0509743,10.869656 3.9906977,11.40185 3.9906977,12 c 0,0.59815 0.060277,1.130344 0.1983379,1.751163 l 0.057407,0.258139 h 1.703877 1.7038769 z M 14.377313,13.84186 C 14.478091,13.035116 14.496346,12.752639 14.496346,12 c 0,-0.752639 -0.01826,-1.035116 -0.119033,-1.84186 L 14.35814,10.004651 H 12 9.6418605 l -0.045879,0.38479 c -0.1074502,0.901185 -0.1347173,1.724857 -0.079647,2.405908 0.033189,0.410448 0.1103626,1.131466 0.1262171,1.179228 0.00924,0.02782 0.4960634,0.03357 2.3636104,0.02791 l 2.351978,-0.0071 z m 5.433651,-0.0907 C 19.949026,13.130344 20.009302,12.59815 20.009302,12 c 0,-0.59815 -0.06028,-1.130344 -0.198338,-1.751163 L 19.753554,9.9906977 H 18.049677 16.3458 l 0.01721,0.1465113 c 0.08249,0.702325 0.109995,1.168064 0.109995,1.862791 0,0.694727 -0.0275,1.160466 -0.109995,1.862791 l -0.01721,0.146511 h 1.703877 1.703877 z M 8.1480117,7.6325581 C 8.4430663,6.593856 8.9228266,5.3751586 9.3255131,4.6414426 9.4075981,4.4918798 9.4264582,4.4372093 9.395969,4.4372093 9.328614,4.4372093 8.7459131,4.6791972 8.4158632,4.844234 7.3008095,5.4018011 6.305314,6.2384877 5.5465487,7.255814 5.3752094,7.48554 5.0790698,7.9480353 5.0790698,7.9858984 c 0,0.013141 0.6673247,0.020643 1.4829435,0.016672 l 1.4829438,-0.00722 z m 5.7775693,0.3650356 c 0,-0.00644 -0.05706,-0.1842472 -0.126806,-0.3951282 C 13.52665,6.7796492 13.103693,5.8319657 12.675538,5.0857261 12.439952,4.6751184 12.024417,4.0188865 12,4.0188865 c -0.02318,0 -0.432314,0.6434226 -0.660352,1.0385037 -0.422152,0.7313889 -0.868924,1.7301997 -1.138423,2.5450753 -0.06974,0.210881 -0.126806,0.3886886 -0.126806,0.3951282 0,0.00644 0.866511,0.011709 1.925581,0.011709 1.05907,0 1.925581,-0.00527 1.925581,-0.011709 z m 4.995334,-0.00922 C 18.920892,7.9578949 18.736719,7.6655774 18.546405,7.3939527 17.959474,6.5562586 17.100301,5.7467958 16.211132,5.1937956 15.742692,4.9024588 14.754433,4.4372093 14.604031,4.4372093 c -0.03049,0 -0.01163,0.054671 0.07046,0.2042333 0.397432,0.7241414 0.883677,1.9544841 1.162085,2.9404161 0.05555,0.1967219 0.106281,0.3733739 0.112734,0.3925599 0.0092,0.027321 0.332584,0.034884 1.491679,0.034884 0.81397,0 1.479938,-0.00942 1.47993,-0.02093 z"
     style="opacity:0.98;fill:#707070;stroke-width:0.027907" />
</svg>
