<?xml version="1.0" encoding="UTF-8" standalone="no"?>
<svg
   xmlns:dc="http://purl.org/dc/elements/1.1/"
   xmlns:cc="http://creativecommons.org/ns#"
   xmlns:rdf="http://www.w3.org/1999/02/22-rdf-syntax-ns#"
   xmlns:svg="http://www.w3.org/2000/svg"
   xmlns="http://www.w3.org/2000/svg"
   xmlns:sodipodi="http://sodipodi.sourceforge.net/DTD/sodipodi-0.dtd"
   xmlns:inkscape="http://www.inkscape.org/namespaces/inkscape"
   inkscape:version="1.0 (4035a4fb49, 2020-05-01)"
   sodipodi:docname="pinterest.svg"
   id="svg4"
   version="1.1"
   height="2500"
   width="2500"
   viewBox="0 0 999.9 999.9">
  <metadata
     id="metadata10">
    <rdf:RDF>
      <cc:Work
         rdf:about="">
        <dc:format>image/svg+xml</dc:format>
        <dc:type
           rdf:resource="http://purl.org/dc/dcmitype/StillImage" />
      </cc:Work>
    </rdf:RDF>
  </metadata>
  <defs
     id="defs8" />
  <sodipodi:namedview
     inkscape:current-layer="svg4"
     inkscape:window-maximized="1"
     inkscape:window-y="-8"
     inkscape:window-x="-8"
     inkscape:cy="1250"
     inkscape:cx="1250"
     inkscape:zoom="0.344"
     showgrid="false"
     id="namedview6"
     inkscape:window-height="1027"
     inkscape:window-width="1920"
     inkscape:pageshadow="2"
     inkscape:pageopacity="0"
     guidetolerance="10"
     gridtolerance="10"
     objecttolerance="10"
     borderopacity="1"
     bordercolor="#666666"
     pagecolor="#ffffff" />
  <path
     id="path2"
     d="M0 500c2.6-141.9 52.7-260.4 150.4-355.4S364.6 1.3 500 0c145.8 2.6 265.3 52.4 358.4 149.4 93.1 97 140.3 213.9 141.6 350.6-2.6 140.6-52.7 258.8-150.4 354.5-97.7 95.6-214.2 144.1-349.6 145.4-46.9 0-93.7-7.2-140.6-21.5 9.1-14.3 18.2-30.6 27.3-48.8 10.4-22.1 23.4-63.8 39.1-125 3.9-16.9 9.8-39.7 17.6-68.4 9.1 15.6 24.7 29.9 46.9 43 58.6 27.3 120.4 24.7 185.5-7.8 67.7-39.1 114.6-99.6 140.6-181.6 23.4-85.9 20.5-165.7-8.8-239.2C778.3 277 725.9 224 650.4 191.4c-95-27.3-187.5-24.4-277.3 8.8s-152.3 90.2-187.5 170.9C176.5 401 171 430.7 169 460c-2 29.3-1 57.9 2.9 85.9s13.7 53.1 29.3 75.2 36.5 39.1 62.5 50.8c6.5 2.6 11.7 2.6 15.6 0 5.2-2.6 10.4-13 15.6-31.2 5.2-18.2 7.2-30.6 5.9-37.1-1.3-2.6-3.9-7.2-7.8-13.7-27.3-44.3-36.5-90.8-27.3-139.6 9.1-48.8 29.3-90.2 60.5-124 48.2-43 104.5-66.4 168.9-70.3 64.4-3.9 119.5 13.7 165 52.7 24.7 28.6 40.7 63.1 47.8 103.5s7.2 79.1 0 116.2c-7.2 37.1-19.9 71.9-38.1 104.5-32.6 50.8-71 76.8-115.2 78.1-26-1.3-47.2-11.4-63.5-30.3s-21.2-40.7-14.6-65.4c2.6-14.3 10.4-42.3 23.4-84 13-41.7 20.2-72.9 21.5-93.7-3.9-49.5-26.7-74.9-68.4-76.2-32.6 3.9-56.6 18.6-72.3 43.9s-24.1 54.4-25.4 86.9c3.9 37.8 9.8 63.8 17.6 78.1-14.3 58.6-25.4 105.5-33.2 140.6-2.6 9.1-9.8 37.1-21.5 84s-18.2 82.7-19.5 107.4V957C206.3 914 133.3 851.9 80 770.5 26.7 689.1 0 598.9 0 500z" />
  <path
     transform="scale(0.39996)"
     id="path835"
     d="m 1200.5814,2496.8529 c -69.7886,-2.7546 -136.2586,-11.573 -207.84884,-27.5746 -26.70137,-5.9682 -74.48887,-18.5021 -87.76686,-23.0198 -2.18271,-0.7426 2.35354,-10.8296 12.26046,-27.263 64.69026,-107.3067 89.91164,-178.1031 158.35364,-444.4985 15.9079,-61.9181 29.9378,-116.1399 31.1776,-120.4928 2.2252,-7.8125 2.4603,-7.6495 18.2426,12.6417 16.7836,21.5784 46.8365,48.2124 78.2747,69.3697 32.9726,22.1898 94.17,44.0985 151.3765,54.1928 33.6233,5.933 109.8446,6.6764 145.0615,1.4149 80.8001,-12.0718 167.159,-44.4412 231.392,-86.7314 127.2073,-83.7516 226.5463,-209.1455 287.3687,-362.7407 17.9597,-45.3538 26.7063,-73.9486 37.9286,-123.9985 47.6,-212.2882 26.5183,-419.43267 -60.7516,-596.93177 -70.9272,-144.25965 -175.628,-248.17898 -326.2803,-323.845 -34.7351,-17.44593 -46.6661,-21.76634 -88.0594,-31.88779 -212.4229,-51.94148 -407.91,-45.44631 -608.92698,20.23201 -201.64296,65.88284 -347.04648,172.10933 -448.62523,327.74912 -37.72692,57.80547 -59.3166,104.38907 -72.97707,157.46096 -23.67122,91.96447 -30.68997,150.40717 -30.54779,254.36047 0.14913,109.0225 9.03881,173.9336 32.24021,235.4133 34.81058,92.2421 102.93587,169.0025 187.39686,211.15 47.99078,23.9482 65.50206,17.9965 85.2454,-28.9731 12.05277,-28.6737 28.09564,-95.0308 28.21843,-116.7181 0.10466,-18.4596 -0.4595,-19.8835 -24.45648,-61.7413 -67.91663,-118.4664 -86.04968,-224.2756 -60.20761,-351.3204 23.06968,-113.41537 78.07319,-223.01613 146.63584,-292.18863 25.84546,-26.07538 69.06959,-59.23137 107.40334,-82.38605 141.88508,-85.70267 321.40628,-117.82377 480.05328,-85.89424 108.0553,21.74735 218.0549,81.9839 266.4783,145.92538 75.4655,99.64977 110.7689,220.09984 111.0151,378.76804 0.1328,85.6282 -7.6105,140.1099 -31.9147,224.5492 -22.7902,79.1792 -62.8228,165.1837 -100.4756,215.8578 -75.2574,101.2832 -164.4429,155.6302 -256.8776,156.5334 -38.7735,0.3788 -58.9417,-4.4205 -96.8847,-23.0551 -44.4234,-21.8174 -82.8707,-64.2764 -99.9867,-110.4197 -5.2253,-14.0871 -6.3937,-23.366 -6.3809,-50.6749 0.02,-44.7816 10.2354,-86.0448 69.4421,-280.5233 18.9378,-62.2056 38.361,-142.7005 43.9234,-182.0297 4.3793,-30.9641 4.396,-36.1638 0.2017,-62.5 -14.2164,-89.26283 -53.5646,-139.19167 -123.606,-156.84336 -59.3656,-14.96116 -135.1126,7.70724 -186.13213,55.70273 -36.80357,34.62216 -61.28302,75.82063 -81.68174,137.46903 -22.95561,69.3756 -26.69017,124.826 -13.54218,201.0727 8.54038,49.5267 17.90375,86.2849 27.80015,109.1365 l 6.40886,14.7987 -27.50817,114.5618 c -15.12962,63.009 -32.98822,138.7624 -39.68593,168.3409 -6.6977,29.5785 -18.69456,78.6337 -26.65968,109.0117 -25.13142,95.8478 -56.93942,226.3707 -67.47543,276.883 -18.89245,90.5749 -22.51887,122.3323 -24.22207,212.1177 l -1.55596,82.024 -45.41337,-23.0235 C 443.43302,2237.241 246.76593,2038.9206 123.13568,1786.5881 59.583279,1656.8761 21.496926,1519.8453 7.1228991,1369.186 1.2343625,1307.4662 2.7639381,1171.4087 9.998791,1113.3721 30.306006,950.47154 68.062677,822.68154 134.96753,690.40698 195.87173,569.99605 265.49394,475.11619 367.50733,373.50602 436.35172,304.93372 508.6702,246.09833 584.30233,197.13036 849.59262,25.368319 1164.8116,-34.438953 1491.2791,25.047409 1707.0318,64.360186 1898.89,155.13642 2059.7602,294.01985 c 35.728,30.84486 105.7133,101.40599 137.9845,139.11968 237.8449,277.95756 339.3251,632.18217 286.0689,998.54647 -25.9501,178.5187 -90.9463,349.6306 -188.2666,495.6396 -109.454,164.2129 -271.0934,315.1727 -442.1921,412.9759 -162.4141,92.839 -358.5809,148.9301 -543.7619,155.4809 -23.9825,0.8484 -47.529,1.8623 -52.3256,2.2532 -4.7965,0.3908 -30.3052,-0.1413 -56.686,-1.1827 z"
     style="opacity:0.98;fill:#707070;stroke-width:2.90698" />
</svg>
