<?xml version="1.0" encoding="UTF-8" standalone="no"?>
<svg
   xmlns:dc="http://purl.org/dc/elements/1.1/"
   xmlns:cc="http://creativecommons.org/ns#"
   xmlns:rdf="http://www.w3.org/1999/02/22-rdf-syntax-ns#"
   xmlns:svg="http://www.w3.org/2000/svg"
   xmlns="http://www.w3.org/2000/svg"
   xmlns:sodipodi="http://sodipodi.sourceforge.net/DTD/sodipodi-0.dtd"
   xmlns:inkscape="http://www.inkscape.org/namespaces/inkscape"
   inkscape:version="1.0 (4035a4fb49, 2020-05-01)"
   sodipodi:docname="vk.svg"
   id="svg4"
   version="1.1"
   viewBox="0 0 24 24"
   height="24"
   width="24">
  <metadata
     id="metadata10">
    <rdf:RDF>
      <cc:Work
         rdf:about="">
        <dc:format>image/svg+xml</dc:format>
        <dc:type
           rdf:resource="http://purl.org/dc/dcmitype/StillImage" />
      </cc:Work>
    </rdf:RDF>
  </metadata>
  <defs
     id="defs8" />
  <sodipodi:namedview
     inkscape:current-layer="svg4"
     inkscape:window-maximized="1"
     inkscape:window-y="-8"
     inkscape:window-x="-8"
     inkscape:cy="12"
     inkscape:cx="12"
     inkscape:zoom="35.833333"
     showgrid="false"
     id="namedview6"
     inkscape:window-height="1027"
     inkscape:window-width="1920"
     inkscape:pageshadow="2"
     inkscape:pageopacity="0"
     guidetolerance="10"
     gridtolerance="10"
     objecttolerance="10"
     borderopacity="1"
     bordercolor="#666666"
     pagecolor="#ffffff" />
  <path
     id="path2"
     d="M13.162 18.994c.609 0 .858-.406.851-.915-.031-1.917.714-2.949 2.059-1.604 1.488 1.488 1.796 2.519 3.603 2.519h3.2c.808 0 1.126-.26 1.126-.668 0-.863-1.421-2.386-2.625-3.504-1.686-1.565-1.765-1.602-.313-3.486 1.801-2.339 4.157-5.336 2.073-5.336h-3.981c-.772 0-.828.435-1.103 1.083-.995 2.347-2.886 5.387-3.604 4.922-.751-.485-.407-2.406-.35-5.261.015-.754.011-1.271-1.141-1.539-.629-.145-1.241-.205-1.809-.205-2.273 0-3.841.953-2.95 1.119 1.571.293 1.42 3.692 1.054 5.16-.638 2.556-3.036-2.024-4.035-4.305-.241-.548-.315-.974-1.175-.974h-3.255c-.492 0-.787.16-.787.516 0 .602 2.96 6.72 5.786 9.77 2.756 2.975 5.48 2.708 7.376 2.708z"
     class="st0" />
  <path
     id="path835"
     d="M 11.093023,18.946718 C 9.4880838,18.811781 8.1338408,18.275563 6.8651163,17.272661 6.4701661,16.96046 5.6423447,16.124274 5.2368173,15.627907 3.9507491,14.053757 2.6698643,12.049308 1.3659882,9.5704697 0.83521641,8.5614036 0.30465151,7.4224411 0.11224863,6.8790698 -0.08214923,6.3300644 0.06803817,6.0863519 0.63770816,6.0263947 0.9640325,5.9920494 3.8818203,5.9939505 4.2139535,6.0287249 c 0.3125232,0.032721 0.5137875,0.1182401 0.6426061,0.273049 0.09311,0.1118953 0.1516002,0.228948 0.4209486,0.8424121 0.2467311,0.561952 0.8608367,1.7952109 1.1603475,2.3302326 0.5773965,1.0314144 1.0201075,1.6712694 1.4581189,2.1074344 0.3428721,0.341427 0.5235424,0.452845 0.7393683,0.455965 0.3458936,0.005 0.5347471,-0.274377 0.6854844,-1.014057 C 9.5970536,9.6682951 9.5614027,8.1176972 9.2323072,7.1736745 9.0289401,6.5903083 8.7295401,6.2636103 8.2697634,6.1233698 8.0587674,6.059012 7.9534884,6.0007703 7.9534884,5.9484022 c 0,-0.030644 0.089819,-0.1523791 0.1526299,-0.2068657 0.1993753,-0.172951 0.7361476,-0.3923542 1.2780877,-0.5224126 0.5411983,-0.1298805 0.881586,-0.1715958 1.533466,-0.1879298 0.676622,-0.016954 1.115486,0.013944 1.683264,0.1185089 1.032497,0.1901501 1.383308,0.4453455 1.466717,1.0669528 0.0328,0.2444491 0.01425,0.9484738 -0.07531,2.8585778 -0.09013,1.9222264 0.0077,2.6157004 0.410777,2.9131144 0.371286,0.273927 1.002725,-0.254961 1.885223,-1.579046 0.672737,-1.0093624 1.352992,-2.2960573 1.849651,-3.4985943 0.186381,-0.4512755 0.221148,-0.5166345 0.348427,-0.6550136 0.12579,-0.1367598 0.270039,-0.1994538 0.52686,-0.228986 0.297686,-0.034231 3.982729,-0.034231 4.280415,0 0.965905,0.1110705 0.847142,0.9520129 -0.394289,2.7918966 -0.418966,0.6209355 -0.686351,0.985721 -1.564848,2.1348833 -1.12437,1.470788 -1.274654,1.715751 -1.292621,2.106977 -0.01977,0.430418 0.149985,0.670911 1.12005,1.586809 0.699324,0.660274 1.343515,1.308664 1.653575,1.664354 1.37047,1.572154 1.530675,2.472807 0.469152,2.637508 -0.132032,0.02049 -0.841262,0.02739 -2.175196,0.02117 l -1.979286,-0.0092 -0.267292,-0.07306 c -0.429733,-0.117465 -0.782404,-0.318244 -1.13312,-0.645094 -0.102189,-0.09523 -0.430627,-0.449434 -0.729863,-0.787108 -0.964136,-1.087985 -1.346048,-1.429895 -1.730805,-1.549512 -0.214947,-0.06683 -0.342898,-0.06941 -0.515982,-0.01044 -0.447073,0.152333 -0.743869,0.919932 -0.743869,1.92386 0,0.366063 -0.03694,0.591615 -0.125315,0.7652 -0.07637,0.150004 -0.151183,0.222656 -0.321196,0.311927 -0.125022,0.06565 -0.130183,0.06596 -1.15814,0.06963 -0.567907,0.002 -1.158139,-0.0069 -1.311628,-0.01977 z"
     style="opacity:0.98;fill:#707070;stroke-width:0.027907" />
</svg>
