<?xml version="1.0" encoding="UTF-8" standalone="no"?>
<svg
   xmlns:dc="http://purl.org/dc/elements/1.1/"
   xmlns:cc="http://creativecommons.org/ns#"
   xmlns:rdf="http://www.w3.org/1999/02/22-rdf-syntax-ns#"
   xmlns:svg="http://www.w3.org/2000/svg"
   xmlns="http://www.w3.org/2000/svg"
   xmlns:sodipodi="http://sodipodi.sourceforge.net/DTD/sodipodi-0.dtd"
   xmlns:inkscape="http://www.inkscape.org/namespaces/inkscape"
   height="24"
   viewBox="0 0 24 24"
   width="24"
   version="1.1"
   id="svg6"
   sodipodi:docname="comment-black.svg"
   inkscape:version="1.0 (4035a4fb49, 2020-05-01)">
  <metadata
     id="metadata12">
    <rdf:RDF>
      <cc:Work
         rdf:about="">
        <dc:format>image/svg+xml</dc:format>
        <dc:type
           rdf:resource="http://purl.org/dc/dcmitype/StillImage" />
      </cc:Work>
    </rdf:RDF>
  </metadata>
  <defs
     id="defs10" />
  <sodipodi:namedview
     inkscape:document-rotation="0"
     pagecolor="#ffffff"
     bordercolor="#666666"
     borderopacity="1"
     objecttolerance="10"
     gridtolerance="10"
     guidetolerance="10"
     inkscape:pageopacity="0"
     inkscape:pageshadow="2"
     inkscape:window-width="1920"
     inkscape:window-height="1027"
     id="namedview8"
     showgrid="false"
     inkscape:zoom="17.916667"
     inkscape:cx="12.933692"
     inkscape:cy="12.324103"
     inkscape:window-x="-8"
     inkscape:window-y="-8"
     inkscape:window-maximized="1"
     inkscape:current-layer="svg6" />
  <path
     d="M0 0h24v24H0V0z"
     fill="none"
     id="path2" />
  <path
     d="M21.99 2H2v16h16l4 4-.01-20zM18 14H6v-2h12v2zm0-3H6V9h12v2zm0-3H6V6h12v2z"
     id="path4" />
  <path
     style="opacity:0.98;fill:#ffffff;stroke:#ffffff;stroke-width:0.027907;stroke-opacity:0.995984;fill-opacity:1"
     d="M 19.995423,19.981469 18.014101,18 H 10.011702 2.0093023 V 10.004651 2.0093023 h 9.9734747 9.973475 l 0.0189,1.0953489 c 0.0104,0.6024418 0.01501,5.0920099 0.01025,9.9768178 l -0.0087,8.88147 z M 18,13.004651 V 12 H 12 6 v 1.004651 1.004651 h 6 6 z m 0,-3 V 8.9860465 H 12 6 v 1.0186045 1.018605 h 6 6 z M 18,7.0046512 V 6 H 12 6 v 1.0046512 1.0046511 h 6 6 z"
     id="path837" />
  <path
     id="path832"
     d="m 19.994456,19.915101 -1.95319,-1.953789 H 10.045619 2.0499713 V 10.007824 2.0543357 h 9.9287857 9.928785 l 0.03723,1.0744186 c 0.02048,0.5909303 0.0295,5.0492048 0.02005,9.9072777 l -0.01718,8.832859 z M 18.012762,13.021777 V 11.989219 H 11.984855 5.9569479 v 1.032558 1.032559 h 6.0279071 6.027907 z m 0,-3.013953 V 8.9752659 H 11.984855 5.9569479 v 1.0325581 1.032558 h 6.0279071 6.027907 z m 0,-3.0139535 V 5.9613124 H 11.984855 5.9569479 v 1.0325581 1.0325582 h 6.0279071 6.027907 z"
     style="opacity:0.98;fill:#000000;stroke:#ffffff;stroke-width:0.055814" />
</svg>
