<?xml version="1.0" encoding="UTF-8" standalone="no"?>
<svg
   xmlns:dc="http://purl.org/dc/elements/1.1/"
   xmlns:cc="http://creativecommons.org/ns#"
   xmlns:rdf="http://www.w3.org/1999/02/22-rdf-syntax-ns#"
   xmlns:svg="http://www.w3.org/2000/svg"
   xmlns="http://www.w3.org/2000/svg"
   xmlns:sodipodi="http://sodipodi.sourceforge.net/DTD/sodipodi-0.dtd"
   xmlns:inkscape="http://www.inkscape.org/namespaces/inkscape"
   inkscape:version="1.0 (4035a4fb49, 2020-05-01)"
   sodipodi:docname="play_circle_outline.svg"
   id="svg6"
   version="1.1"
   width="24"
   viewBox="0 0 24 24"
   height="24">
  <metadata
     id="metadata12">
    <rdf:RDF>
      <cc:Work
         rdf:about="">
        <dc:format>image/svg+xml</dc:format>
        <dc:type
           rdf:resource="http://purl.org/dc/dcmitype/StillImage" />
      </cc:Work>
    </rdf:RDF>
  </metadata>
  <defs
     id="defs10" />
  <sodipodi:namedview
     inkscape:current-layer="svg6"
     inkscape:window-maximized="1"
     inkscape:window-y="-8"
     inkscape:window-x="-8"
     inkscape:cy="12"
     inkscape:cx="12"
     inkscape:zoom="35.833333"
     showgrid="false"
     id="namedview8"
     inkscape:window-height="1027"
     inkscape:window-width="1920"
     inkscape:pageshadow="2"
     inkscape:pageopacity="0"
     guidetolerance="10"
     gridtolerance="10"
     objecttolerance="10"
     borderopacity="1"
     bordercolor="#666666"
     pagecolor="#ffffff" />
  <path
     id="path2"
     fill="none"
     d="M0 0h24v24H0V0z" />
  <path
     id="path4"
     d="M10 16.5l6-4.5-6-4.5v9zM12 2C6.48 2 2 6.48 2 12s4.48 10 10 10 10-4.48 10-10S17.52 2 12 2zm0 18c-4.41 0-8-3.59-8-8s3.59-8 8-8 8 3.59 8 8-3.59 8-8 8z" />
  <path
     id="path837"
     d="M 10.018605,12 V 7.5347903 L 12.98947,9.7604184 C 14.623446,10.984514 15.960335,11.992326 15.960335,12 c 0,0.0077 -1.336889,1.015486 -2.970865,2.239581 l -2.970865,2.225629 z"
     style="opacity:0.98;fill:#ffffff;stroke:#ffffff;stroke-width:0.027907;stroke-opacity:0.995984" />
  <path
     id="path839"
     d="M 11.455814,21.974215 C 10.71439,21.917687 10.184432,21.83512 9.5613971,21.679068 7.8695816,21.255317 6.3370814,20.400105 5.0690138,19.172093 3.382063,17.538429 2.3602055,15.47127 2.0754458,13.116279 c -0.067425,-0.557614 -0.067425,-1.674944 0,-2.232558 C 2.3570187,8.5550847 3.3649124,6.4963479 5.0138263,4.8817468 6.6621918,3.2676824 8.6582107,2.328433 11.009302,2.0605071 c 0.45973,-0.05239 1.616,-0.044114 2.106977,0.015081 2.836753,0.3420139 5.306404,1.7899504 6.983201,4.0941938 1.01005,1.3880052 1.636974,3.0368146 1.840123,4.8395201 0.04461,0.395858 0.04461,1.585538 0,1.981396 -0.271389,2.408256 -1.28744,4.506386 -2.98061,6.154914 -1.600963,1.558752 -3.60395,2.51253 -5.82876,2.775526 -0.352172,0.04163 -1.392168,0.0746 -1.674419,0.05308 z m 1.727631,-2.047974 c 2.585545,-0.393728 4.815384,-2.014159 5.981398,-4.346703 0.380976,-0.76212 0.631173,-1.550461 0.765,-2.410426 0.05349,-0.343698 0.06251,-0.512433 0.06251,-1.169112 0,-0.656679 -0.009,-0.825414 -0.06251,-1.169112 C 19.611721,8.7866548 18.582389,7.0079355 16.967442,5.71176 16.395325,5.2525719 15.490419,4.7444303 14.776744,4.4815928 14.316671,4.3121538 13.684472,4.1503571 13.169112,4.0701572 12.825414,4.0166711 12.656679,4.0076495 12,4.0076495 c -0.880658,0 -1.250245,0.043161 -1.992368,0.2326737 C 8.3937846,4.6524437 6.9219678,5.5857215 5.8269974,6.8912601 5.3111311,7.5063299 4.7658017,8.4515517 4.4815928,9.2232558 4.3125408,9.6822779 4.1506441,10.314329 4.0698062,10.830888 4.0157348,11.176408 4.0070124,11.339841 4.0074109,12 c 3.948e-4,0.654482 0.00965,0.826564 0.062858,1.169112 0.2676947,1.723283 1.0552342,3.283892 2.2671739,4.492692 1.2250541,1.22188 2.8255474,2.027537 4.4948162,2.2626 0.56209,0.07915 0.576866,0.07994 1.307276,0.06993 0.48972,-0.0067 0.754104,-0.02396 1.04391,-0.06809 z"
     style="opacity:0.98;fill:#ffffff;stroke:#ffffff;stroke-width:0.027907;stroke-opacity:1" />
</svg>
